<svg width="16" height="16" viewBox="0 0 16 16" fill="none" xmlns="http://www.w3.org/2000/svg">
<path d="M11.358 5.89669C11.4807 6.01918 11.4807 6.21793 11.358 6.34043L6.96763 10.7308C6.84513 10.8535 6.64638 10.8535 6.52389 10.7308L4.64229 8.84923C4.47149 8.67843 4.54963 8.38679 4.78295 8.32428C4.89123 8.29526 5.00676 8.32622 5.08603 8.40549L6.74576 10.0652L10.9143 5.89669C11.0368 5.77405 11.2355 5.77405 11.358 5.89669ZM15.8402 8.00016C15.8402 14.0354 9.30683 17.8074 4.08016 14.7898C-1.14651 11.7722 -1.14651 4.22814 4.08016 1.21052C5.27199 0.522413 6.62395 0.160156 8.00016 0.160156C12.3281 0.164906 15.8354 3.67221 15.8402 8.00016ZM15.213 8.00016C15.213 2.44774 9.20229 -1.02252 4.39376 1.75369C-0.414773 4.52989 -0.414773 11.4704 4.39376 14.2466C5.49024 14.8797 6.73405 15.213 8.00016 15.213C11.9819 15.2086 15.2086 11.9819 15.213 8.00016Z" fill="#FFD858"/>
</svg>
