<svg width="22" height="22" viewBox="0 0 22 22" fill="none" xmlns="http://www.w3.org/2000/svg">
<path d="M11 0.0625C8.83677 0.0625 6.72212 0.703973 4.92346 1.9058C3.12479 3.10763 1.72291 4.81583 0.895072 6.8144C0.0672389 8.81297 -0.14936 11.0121 0.272666 13.1338C0.694692 15.2555 1.73639 17.2043 3.26602 18.734C4.79566 20.2636 6.74454 21.3053 8.8662 21.7273C10.9879 22.1494 13.187 21.9328 15.1856 21.1049C17.1842 20.2771 18.8924 18.8752 20.0942 17.0765C21.296 15.2779 21.9375 13.1632 21.9375 11C21.9343 8.10017 20.781 5.32003 18.7305 3.26954C16.68 1.21905 13.8998 0.0656846 11 0.0625ZM11 21.0625C9.00983 21.0625 7.06435 20.4723 5.40958 19.3667C3.75481 18.261 2.46507 16.6894 1.70347 14.8508C0.94186 13.0121 0.742589 10.9888 1.13085 9.0369C1.51912 7.08497 2.47748 5.292 3.88474 3.88474C5.29201 2.47747 7.08497 1.51911 9.03691 1.13085C10.9888 0.742584 13.0121 0.941855 14.8508 1.70346C16.6894 2.46507 18.261 3.7548 19.3667 5.40957C20.4724 7.06434 21.0625 9.00983 21.0625 11C21.0596 13.6679 19.9985 16.2256 18.1121 18.1121C16.2256 19.9985 13.6679 21.0596 11 21.0625ZM17.5625 11C17.5625 11.116 17.5164 11.2273 17.4344 11.3094C17.3523 11.3914 17.241 11.4375 17.125 11.4375H11C10.884 11.4375 10.7727 11.3914 10.6906 11.3094C10.6086 11.2273 10.5625 11.116 10.5625 11V4.875C10.5625 4.75897 10.6086 4.64769 10.6906 4.56564C10.7727 4.48359 10.884 4.4375 11 4.4375C11.116 4.4375 11.2273 4.48359 11.3094 4.56564C11.3914 4.64769 11.4375 4.75897 11.4375 4.875V10.5625H17.125C17.241 10.5625 17.3523 10.6086 17.4344 10.6906C17.5164 10.7727 17.5625 10.884 17.5625 11Z" fill="#FFD858"/>
</svg>
