<svg width="654" height="248" viewBox="0 0 654 248" fill="none" xmlns="http://www.w3.org/2000/svg">
<g clip-path="url(#clip0_96_34)">
<path d="M272.428 210.593L218.954 222.656C218.954 222.656 208.05 221.415 218.391 206.19C219.319 204.819 220.421 203.344 221.717 201.743L249.43 188.142L249.172 186.313L243.272 144.701L240.99 128.595L258.384 112.425L261.704 109.336L305.848 150.169L305.533 150.75L287.08 184.105L272.428 210.593Z" fill="#FFB7B7"/>
<path d="M252.656 198.466L199.181 210.529C198.378 210.438 197.604 210.178 196.909 209.765C196.214 209.353 195.615 208.798 195.151 208.137C194.686 207.476 194.367 206.724 194.215 205.93C194.062 205.137 194.08 204.32 194.267 203.534C194.526 201.978 195.013 200.47 195.712 199.057C197.41 195.675 199.502 192.506 201.944 189.616L229.657 176.015L226.259 152.049L224.566 140.098L223.47 132.371L221.217 116.468L241.932 97.209L264.492 118.071L286.076 138.042L283.163 143.299L279.69 149.583L263.022 179.727L259.626 185.867L252.656 198.466Z" fill="#FFB7B7"/>
<path d="M345.624 190.042C345.624 190.042 325.587 188.708 318.093 175.153C315.721 170.668 314.807 165.555 315.478 160.526L307.311 144.382L295.688 121.38L266.039 116.699L264.492 118.071L242.993 137.172L236.416 143.016L226.259 152.049L177.002 195.812C175.041 199.306 172.521 202.455 169.542 205.135C166.805 207.675 163.792 209.902 160.561 211.775C151.162 217.229 137.113 221.468 116.91 219.242L10.4088 247.587L0 176.161L89.3275 146.791L220.331 61.0991L308.767 83.731L349.776 141.961L345.624 190.042Z" fill="#FFB7B7"/>
<path d="M648.446 0H275.487C274.054 0.00160396 272.68 0.571607 271.667 1.58493C270.654 2.59825 270.084 3.97216 270.082 5.40521V226.246C270.084 227.679 270.654 229.053 271.667 230.067C272.68 231.08 274.054 231.65 275.487 231.651H648.446C649.88 231.65 651.253 231.08 652.267 230.067C653.28 229.053 653.85 227.679 653.852 226.246V5.40518C653.85 3.97215 653.28 2.5983 652.267 1.58499C651.253 0.571687 649.88 0.00166734 648.446 0Z" fill="white"/>
<path d="M648.446 0H275.487C274.054 0.00160396 272.68 0.571607 271.667 1.58493C270.654 2.59825 270.084 3.97216 270.082 5.40521V226.246C270.084 227.679 270.654 229.053 271.667 230.067C272.68 231.08 274.054 231.65 275.487 231.651H648.446C649.88 231.65 651.253 231.08 652.267 230.067C653.28 229.053 653.85 227.679 653.852 226.246V5.40518C653.85 3.97215 653.28 2.5983 652.267 1.58499C651.253 0.571687 649.88 0.00166734 648.446 0ZM652.307 226.246C652.307 227.27 651.9 228.252 651.176 228.976C650.452 229.7 649.47 230.107 648.446 230.107H275.487C274.463 230.107 273.482 229.7 272.758 228.976C272.034 228.252 271.627 227.27 271.626 226.246V5.40518C271.627 4.38135 272.034 3.39958 272.758 2.67563C273.482 1.95167 274.463 1.54478 275.487 1.54434H648.446C649.47 1.54478 650.452 1.95167 651.176 2.67563C651.9 3.39958 652.307 4.38135 652.307 5.40518V226.246Z" fill="#1E1E1E"/>
<path d="M311.777 30.1166C309.944 30.1166 308.153 29.5731 306.629 28.555C305.105 27.5368 303.917 26.0896 303.216 24.3965C302.515 22.7033 302.331 20.8402 302.689 19.0428C303.046 17.2454 303.929 15.5943 305.225 14.2984C306.521 13.0026 308.172 12.1201 309.969 11.7625C311.767 11.405 313.63 11.5885 315.323 12.2898C317.016 12.9911 318.463 14.1788 319.481 15.7026C320.499 17.2264 321.043 19.0179 321.043 20.8505C321.043 23.308 320.067 25.6649 318.329 27.4026C316.591 29.1404 314.234 30.1166 311.777 30.1166ZM311.777 13.1288C310.25 13.1288 308.757 13.5817 307.487 14.4302C306.217 15.2786 305.227 16.4846 304.643 17.8956C304.058 19.3065 303.905 20.8591 304.203 22.3569C304.501 23.8548 305.237 25.2307 306.317 26.3106C307.397 27.3905 308.772 28.1259 310.27 28.4239C311.768 28.7218 313.321 28.5689 314.732 27.9845C316.143 27.4 317.349 26.4103 318.197 25.1405C319.046 23.8707 319.498 22.3777 319.498 20.8505C319.498 19.8365 319.299 18.8324 318.911 17.8956C318.523 16.9587 317.954 16.1075 317.237 15.3905C316.52 14.6734 315.669 14.1046 314.732 13.7166C313.795 13.3285 312.791 13.1288 311.777 13.1288Z" fill="#FFD858"/>
<path d="M297.374 20.8503C297.374 19.0828 297.926 17.3594 298.952 15.9201C299.978 14.4808 301.427 13.3974 303.098 12.8208C301.819 12.3795 300.452 12.2502 299.113 12.4438C297.773 12.6374 296.5 13.1483 295.398 13.9339C294.295 14.7194 293.397 15.757 292.777 16.9601C292.157 18.1632 291.834 19.497 291.834 20.8503C291.834 22.2037 292.157 23.5375 292.777 24.7406C293.397 25.9436 294.295 26.9812 295.398 27.7668C296.5 28.5524 297.773 29.0633 299.113 29.2569C300.452 29.4505 301.819 29.3212 303.098 28.8798C301.427 28.3032 299.978 27.2198 298.952 25.7805C297.926 24.3413 297.374 22.6179 297.374 20.8503Z" fill="#FFD858"/>
<path d="M349.338 130.327C347.496 130.325 345.729 129.592 344.426 128.289C343.124 126.987 342.391 125.22 342.389 123.378V102.529C342.391 100.687 343.124 98.9219 344.427 97.6204C345.73 96.3189 347.497 95.5879 349.338 95.5879C351.18 95.5879 352.946 96.3189 354.249 97.6204C355.552 98.9219 356.286 100.687 356.288 102.529V123.378C356.286 125.22 355.553 126.987 354.25 128.289C352.947 129.592 351.181 130.325 349.338 130.327Z" fill="#FFD858"/>
<path d="M367.87 130.327C366.028 130.325 364.262 129.592 362.959 128.289C361.656 126.987 360.923 125.22 360.921 123.378V102.529C360.923 100.687 361.656 98.9219 362.959 97.6204C364.262 96.3189 366.029 95.5879 367.87 95.5879C369.712 95.5879 371.479 96.3189 372.782 97.6204C374.085 98.9219 374.818 100.687 374.82 102.529V123.378C374.818 125.22 374.085 126.987 372.782 128.289C371.479 129.592 369.713 130.325 367.87 130.327Z" fill="#FFD858"/>
<path d="M386.403 130.327C384.56 130.325 382.794 129.592 381.491 128.289C380.188 126.987 379.455 125.22 379.453 123.378V102.529C379.455 100.687 380.188 98.9219 381.492 97.6204C382.795 96.3189 384.561 95.5879 386.403 95.5879C388.244 95.5879 390.011 96.3189 391.314 97.6204C392.617 98.9219 393.35 100.687 393.352 102.529V123.378C393.35 125.22 392.617 126.987 391.314 128.289C390.012 129.592 388.245 130.325 386.403 130.327Z" fill="#FFD858"/>
<path d="M414.973 130.327C413.131 130.325 411.364 129.592 410.061 128.289C408.758 126.987 408.026 125.22 408.023 123.378V102.529C408.026 100.687 408.759 98.9219 410.062 97.6204C411.365 96.3189 413.131 95.5879 414.973 95.5879C416.815 95.5879 418.581 96.3189 419.884 97.6204C421.187 98.9219 421.92 100.687 421.923 102.529V123.378C421.92 125.22 421.188 126.987 419.885 128.289C418.582 129.592 416.816 130.325 414.973 130.327Z" fill="#FFD858"/>
<path d="M433.505 130.327C431.663 130.325 429.896 129.592 428.593 128.289C427.291 126.987 426.558 125.22 426.556 123.378V102.529C426.558 100.687 427.291 98.9219 428.594 97.6204C429.897 96.3189 431.663 95.5879 433.505 95.5879C435.347 95.5879 437.113 96.3189 438.416 97.6204C439.719 98.9219 440.453 100.687 440.455 102.529V123.378C440.453 125.22 439.72 126.987 438.417 128.289C437.114 129.592 435.348 130.325 433.505 130.327Z" fill="#FFD858"/>
<path d="M452.036 130.327C450.194 130.325 448.428 129.592 447.125 128.289C445.822 126.987 445.089 125.22 445.087 123.378V102.529C445.089 100.687 445.822 98.9219 447.125 97.6204C448.428 96.3189 450.195 95.5879 452.036 95.5879C453.878 95.5879 455.645 96.3189 456.948 97.6204C458.251 98.9219 458.984 100.687 458.986 102.529V123.378C458.984 125.22 458.251 126.987 456.948 128.289C455.645 129.592 453.879 130.325 452.036 130.327Z" fill="#FFD858"/>
<path d="M480.608 130.327C478.765 130.325 476.999 129.592 475.696 128.289C474.393 126.987 473.66 125.22 473.658 123.378V102.529C473.66 100.687 474.394 98.9219 475.697 97.6204C477 96.3189 478.766 95.5879 480.608 95.5879C482.449 95.5879 484.216 96.3189 485.519 97.6204C486.822 98.9219 487.555 100.687 487.557 102.529V123.378C487.555 125.22 486.822 126.987 485.519 128.289C484.217 129.592 482.45 130.325 480.608 130.327Z" fill="#FFD858"/>
<path d="M499.139 130.327C497.296 130.325 495.53 129.592 494.227 128.289C492.924 126.987 492.192 125.22 492.189 123.378V102.529C492.192 100.687 492.925 98.9219 494.228 97.6204C495.531 96.3189 497.297 95.5879 499.139 95.5879C500.981 95.5879 502.747 96.3189 504.05 97.6204C505.353 98.9219 506.086 100.687 506.089 102.529V123.378C506.086 125.22 505.354 126.987 504.051 128.289C502.748 129.592 500.981 130.325 499.139 130.327Z" fill="#FFD858"/>
<path d="M517.671 130.327C515.829 130.325 514.062 129.592 512.759 128.289C511.457 126.987 510.724 125.22 510.722 123.378V102.529C510.724 100.687 511.457 98.9219 512.76 97.6204C514.063 96.3189 515.83 95.5879 517.671 95.5879C519.513 95.5879 521.279 96.3189 522.582 97.6204C523.885 98.9219 524.619 100.687 524.621 102.529V123.378C524.619 125.22 523.886 126.987 522.583 128.289C521.28 129.592 519.514 130.325 517.671 130.327Z" fill="#FFD858"/>
<path d="M546.242 130.327C544.399 130.325 542.633 129.592 541.33 128.289C540.027 126.987 539.294 125.22 539.292 123.378V102.529C539.294 100.687 540.027 98.9219 541.33 97.6204C542.633 96.3189 544.4 95.5879 546.242 95.5879C548.083 95.5879 549.85 96.3189 551.153 97.6204C552.456 98.9219 553.189 100.687 553.191 102.529V123.378C553.189 125.22 552.456 126.987 551.153 128.289C549.85 129.592 548.084 130.325 546.242 130.327Z" fill="#FFD858"/>
<path d="M564.774 130.327C562.931 130.325 561.165 129.592 559.862 128.289C558.559 126.987 557.826 125.22 557.824 123.378V102.529C557.826 100.687 558.56 98.9219 559.863 97.6204C561.166 96.3189 562.932 95.5879 564.774 95.5879C566.615 95.5879 568.382 96.3189 569.685 97.6204C570.988 98.9219 571.721 100.687 571.723 102.529V123.378C571.721 125.22 570.988 126.987 569.686 128.289C568.383 129.592 566.616 130.325 564.774 130.327Z" fill="#FFD858"/>
<path d="M583.306 130.327C581.464 130.325 579.697 129.592 578.394 128.289C577.091 126.987 576.359 125.22 576.356 123.378V102.529C576.359 100.687 577.092 98.9219 578.395 97.6204C579.698 96.3189 581.464 95.5879 583.306 95.5879C585.148 95.5879 586.914 96.3189 588.217 97.6204C589.52 98.9219 590.253 100.687 590.256 102.529V123.378C590.253 125.22 589.521 126.987 588.218 128.289C586.915 129.592 585.149 130.325 583.306 130.327Z" fill="#FFD858"/>
<path d="M396.455 207.673H296.505C295.891 207.674 295.283 207.554 294.715 207.32C294.148 207.085 293.633 206.742 293.198 206.308C292.764 205.874 292.419 205.359 292.184 204.792C291.949 204.225 291.828 203.617 291.828 203.004C291.828 202.39 291.949 201.782 292.184 201.215C292.419 200.648 292.764 200.133 293.198 199.699C293.633 199.266 294.148 198.922 294.715 198.688C295.283 198.453 295.891 198.333 296.505 198.334H396.455C397.692 198.336 398.878 198.829 399.752 199.704C400.626 200.58 401.117 201.766 401.117 203.004C401.117 204.241 400.626 205.428 399.752 206.303C398.878 207.179 397.692 207.671 396.455 207.673Z" fill="#E6E6E6"/>
<path d="M364.409 187.597H328.549C327.311 187.597 326.123 187.105 325.248 186.229C324.372 185.354 323.88 184.166 323.88 182.927C323.88 181.689 324.372 180.501 325.248 179.625C326.123 178.75 327.311 178.258 328.549 178.258H364.409C365.648 178.258 366.836 178.75 367.711 179.625C368.587 180.501 369.079 181.689 369.079 182.927C369.079 184.166 368.587 185.354 367.711 186.229C366.836 187.105 365.648 187.597 364.409 187.597Z" fill="#E6E6E6"/>
<path d="M652.029 46.1606H271.349V47.705H652.029V46.1606Z" fill="#1E1E1E"/>
<path opacity="0.15" d="M227.821 202.764L227.011 200.936L260.015 186.299L267.883 158.697L256.023 149.108L257.28 147.552L270.169 157.973L261.682 187.748L227.821 202.764Z" fill="black"/>
<path opacity="0.1" d="M195.713 199.057L187.037 203.282L169.543 205.135C166.805 207.675 163.792 209.902 160.561 211.775L145.219 211.266L119.308 210.455L206.907 135.76L224.567 140.098C224.567 140.098 194.895 200.8 195.713 199.057Z" fill="black"/>
<path d="M318.093 175.153C315.794 175.596 313.273 175.962 310.486 176.243C296.105 177.681 265.703 179.592 263.023 179.727C245.016 180.574 233.694 180.564 233.694 180.564L195.712 199.057L187.037 203.282L116.72 210.729L211.936 129.539L223.471 132.371L242.993 137.172L264.501 142.46L283.163 143.299L307.311 144.382L326.83 145.259C330.212 145.376 333.41 146.827 335.726 149.294C338.041 151.761 339.287 155.045 339.19 158.427C338.883 164.866 334.417 171.981 318.093 175.153Z" fill="#FFB7B7"/>
<path opacity="0.15" d="M325.495 170.258C325.184 170.163 317.851 167.856 315.524 161.401C313.959 157.061 315.06 151.983 318.797 146.308L320.467 147.407C317.1 152.522 316.068 156.998 317.4 160.71C319.379 166.221 326.014 168.325 326.081 168.345L325.495 170.258Z" fill="black"/>
<path opacity="0.15" d="M230.62 180.946L197.017 197.313L197.892 199.112L231.495 182.744L230.62 180.946Z" fill="black"/>
<path opacity="0.15" d="M218.073 134.541L265.672 115.768L266.406 117.629L225.273 133.852L260.231 140.382L259.863 142.348L218.073 134.541Z" fill="black"/>
</g>
<defs>
<clipPath id="clip0_96_34">
<rect width="653.852" height="247.587" fill="white"/>
</clipPath>
</defs>
</svg>
