<svg width="743" height="713" viewBox="0 0 743 713" fill="none" xmlns="http://www.w3.org/2000/svg">
<g clip-path="url(#clip0_108_242)">
<path d="M112.508 252.571C112.508 252.571 124.129 290.92 120.643 295.571C117.157 300.222 157.83 270.005 157.83 270.005C157.83 270.005 142.723 259.546 148.53 244.439L112.508 252.571Z" fill="#9F616A"/>
<path d="M624.815 168.892H620.915V61.915C620.915 45.4941 614.391 29.7458 602.78 18.1345C591.169 6.52317 575.42 8.07633e-09 559 8.07633e-09H332.35C324.219 -0.000131315 316.167 1.60125 308.655 4.71272C301.143 7.82418 294.318 12.3848 288.568 18.1341C282.819 23.8835 278.258 30.709 275.147 38.2209C272.035 45.7329 270.434 53.7841 270.434 61.915V648.798C270.434 665.219 276.957 680.967 288.568 692.578C300.179 704.19 315.928 710.713 332.349 710.713H558.997C575.417 710.712 591.165 704.189 602.775 692.577C614.386 680.966 620.909 665.218 620.909 648.798V245.04H624.809L624.815 168.892Z" fill="#1E1E1E"/>
<path d="M608.215 57.7684V652.943C608.213 665.392 603.269 677.331 594.467 686.136C585.666 694.94 573.729 699.889 561.28 699.895H329.973C317.517 699.897 305.57 694.951 296.761 686.144C287.952 677.338 283.002 665.392 283 652.936V57.7694C283.004 45.3149 287.954 33.3718 296.763 24.567C305.571 15.7622 317.517 10.8168 329.971 10.8184H358.029C356.651 14.2064 356.127 17.8809 356.502 21.519C356.877 25.1571 358.14 28.6474 360.18 31.6831C362.22 34.7188 364.974 37.207 368.201 38.9289C371.427 40.6508 375.028 41.5537 378.685 41.5584H510.553C514.211 41.5538 517.811 40.6509 521.038 38.9289C524.264 37.2069 527.019 34.7187 529.059 31.6828C531.099 28.647 532.362 25.1566 532.737 21.5183C533.111 17.8801 532.587 14.2054 531.209 10.8174H561.264C573.713 10.819 585.651 15.7638 594.456 24.5648C603.26 33.3658 608.209 45.3026 608.215 57.7514V57.7684Z" fill="white"/>
<path d="M445.565 296.694C498.896 296.694 542.13 253.461 542.13 200.129C542.13 146.798 498.896 103.564 445.565 103.564C392.234 103.564 349 146.798 349 200.129C349 253.461 392.234 296.694 445.565 296.694Z" fill="#FFD858"/>
<path d="M550.88 400.596H345.343C344.334 400.595 343.367 400.194 342.653 399.48C341.94 398.767 341.538 397.799 341.537 396.79V345.807C341.538 344.798 341.94 343.831 342.653 343.117C343.367 342.404 344.334 342.002 345.343 342.001H550.88C551.889 342.002 552.856 342.404 553.57 343.117C554.283 343.831 554.685 344.798 554.686 345.807V396.787C554.685 397.796 554.283 398.763 553.57 399.477C552.856 400.19 551.889 400.592 550.88 400.593V400.596ZM345.343 343.522C344.738 343.523 344.157 343.763 343.729 344.192C343.3 344.62 343.06 345.2 343.059 345.806V396.787C343.06 397.393 343.3 397.973 343.729 398.401C344.157 398.83 344.738 399.07 345.343 399.071H550.88C551.486 399.07 552.066 398.83 552.495 398.401C552.923 397.973 553.164 397.393 553.164 396.787V345.806C553.164 345.2 552.923 344.62 552.495 344.192C552.066 343.763 551.486 343.523 550.88 343.522H345.343Z" fill="#E6E6E6"/>
<path d="M408.908 360.361C408.211 360.374 407.546 360.661 407.057 361.159C406.569 361.657 406.295 362.327 406.295 363.025C406.295 363.723 406.569 364.393 407.057 364.891C407.546 365.39 408.211 365.676 408.908 365.69H534.508C535.21 365.709 535.892 365.451 536.404 364.971C536.917 364.491 537.219 363.828 537.246 363.126C537.272 362.424 537.02 361.74 536.545 361.223C536.07 360.706 535.41 360.397 534.708 360.364H534.591H408.908V360.361Z" fill="#E6E6E6"/>
<path d="M408.909 376.345C408.202 376.345 407.524 376.626 407.025 377.126C406.525 377.625 406.244 378.303 406.244 379.01C406.244 379.716 406.525 380.394 407.025 380.894C407.524 381.393 408.202 381.674 408.909 381.674H534.509C535.211 381.694 535.892 381.435 536.405 380.955C536.917 380.475 537.22 379.812 537.246 379.11C537.273 378.408 537.021 377.724 536.546 377.207C536.07 376.69 535.41 376.381 534.709 376.348H534.592H408.909V376.345Z" fill="#E6E6E6"/>
<path d="M550.88 485.576H345.343C344.334 485.575 343.367 485.174 342.653 484.46C341.94 483.747 341.538 482.779 341.537 481.77V430.787C341.538 429.778 341.94 428.811 342.653 428.097C343.367 427.384 344.334 426.982 345.343 426.981H550.88C551.889 426.982 552.856 427.384 553.57 428.097C554.283 428.811 554.685 429.778 554.686 430.787V481.772C554.683 482.78 554.281 483.746 553.568 484.458C552.855 485.17 551.888 485.571 550.88 485.572V485.576ZM345.343 428.503C344.738 428.504 344.157 428.744 343.729 429.173C343.3 429.601 343.06 430.181 343.059 430.787V481.772C343.06 482.378 343.3 482.958 343.729 483.386C344.157 483.815 344.738 484.055 345.343 484.056H550.88C551.486 484.055 552.066 483.815 552.495 483.386C552.923 482.958 553.164 482.378 553.164 481.772V430.787C553.164 430.181 552.923 429.601 552.495 429.173C552.066 428.744 551.486 428.504 550.88 428.503H345.343Z" fill="#E6E6E6"/>
<path d="M408.909 445.617C408.202 445.617 407.524 445.898 407.025 446.398C406.525 446.897 406.244 447.575 406.244 448.282C406.244 448.988 406.525 449.666 407.025 450.166C407.524 450.665 408.202 450.946 408.909 450.946H534.509C534.861 450.956 535.211 450.895 535.54 450.768C535.869 450.641 536.169 450.45 536.423 450.207C536.678 449.963 536.881 449.671 537.022 449.348C537.163 449.026 537.239 448.678 537.245 448.326C537.25 447.973 537.186 447.623 537.056 447.296C536.925 446.969 536.732 446.671 536.485 446.419C536.239 446.167 535.945 445.966 535.621 445.829C535.296 445.691 534.948 445.619 534.596 445.617H408.909Z" fill="#E6E6E6"/>
<path d="M408.909 461.605C408.202 461.605 407.524 461.886 407.025 462.385C406.525 462.885 406.244 463.563 406.244 464.269C406.244 464.976 406.525 465.654 407.025 466.154C407.524 466.653 408.202 466.934 408.909 466.934H534.509C534.861 466.943 535.211 466.883 535.54 466.756C535.869 466.629 536.169 466.438 536.423 466.195C536.678 465.951 536.881 465.659 537.022 465.336C537.163 465.013 537.239 464.666 537.245 464.313C537.25 463.961 537.186 463.611 537.056 463.284C536.925 462.957 536.732 462.658 536.485 462.407C536.239 462.155 535.945 461.954 535.621 461.817C535.296 461.679 534.948 461.607 534.596 461.605H408.909Z" fill="#E6E6E6"/>
<path d="M550.88 570.834H345.343C344.334 570.833 343.367 570.432 342.653 569.718C341.94 569.005 341.538 568.037 341.537 567.028V516.045C341.538 515.036 341.94 514.069 342.653 513.355C343.367 512.642 344.334 512.241 345.343 512.239H550.88C551.889 512.241 552.856 512.642 553.57 513.355C554.283 514.069 554.685 515.036 554.686 516.045V567.03C554.685 568.039 554.283 569.007 553.57 569.72C552.856 570.434 551.889 570.835 550.88 570.836V570.834ZM345.343 513.761C344.738 513.762 344.157 514.003 343.729 514.431C343.3 514.859 343.06 515.44 343.059 516.045V567.03C343.06 567.636 343.3 568.216 343.729 568.645C344.157 569.073 344.738 569.314 345.343 569.314H550.88C551.486 569.314 552.066 569.073 552.495 568.645C552.923 568.216 553.164 567.636 553.164 567.03V516.045C553.164 515.44 552.923 514.859 552.495 514.431C552.066 514.003 551.486 513.762 550.88 513.761H345.343Z" fill="#E6E6E6"/>
<path d="M408.909 530.878C408.202 530.878 407.524 531.159 407.025 531.658C406.525 532.158 406.244 532.836 406.244 533.542C406.244 534.249 406.525 534.927 407.025 535.427C407.524 535.926 408.202 536.207 408.909 536.207H534.509C535.211 536.227 535.892 535.968 536.405 535.488C536.917 535.008 537.22 534.345 537.246 533.643C537.273 532.941 537.021 532.257 536.546 531.74C536.07 531.223 535.41 530.914 534.709 530.881H534.592H408.909V530.878Z" fill="#E6E6E6"/>
<path d="M408.909 546.865C408.202 546.865 407.524 547.146 407.025 547.646C406.525 548.145 406.244 548.823 406.244 549.53C406.244 550.236 406.525 550.914 407.025 551.414C407.524 551.914 408.202 552.194 408.909 552.194H534.509C535.211 552.214 535.892 551.955 536.405 551.475C536.917 550.995 537.22 550.332 537.246 549.63C537.273 548.928 537.021 548.245 536.546 547.727C536.07 547.21 535.41 546.901 534.709 546.868H534.592H408.909V546.865Z" fill="#E6E6E6"/>
<path d="M740.479 712.573H1.938C0.867004 712.573 0 712.105 0 711.528C0 710.951 0.868003 710.483 1.938 710.483H740.48C741.55 710.483 742.418 710.951 742.418 711.528C742.418 712.105 741.55 712.573 740.479 712.573Z" fill="#E6E6E6"/>
<path d="M709.202 671.808C706.046 672.917 702.659 673.195 699.365 672.615C696.071 672.034 692.982 670.616 690.396 668.495C683.809 662.967 681.744 653.859 680.064 645.425L675.094 620.48L685.499 627.645C692.982 632.797 700.633 638.115 705.815 645.578C710.997 653.041 713.258 663.229 709.095 671.304" fill="#E6E6E6"/>
<path d="M707.595 703.745C708.905 694.203 710.252 684.539 709.333 674.896C708.517 666.331 705.904 657.966 700.584 651.107C697.76 647.473 694.324 644.36 690.431 641.907C689.416 641.266 688.481 642.875 689.492 643.513C696.229 647.771 701.439 654.058 704.373 661.469C707.613 669.71 708.133 678.693 707.573 687.446C707.235 692.74 706.52 697.999 705.799 703.246C705.742 703.483 705.777 703.734 705.898 703.946C706.019 704.158 706.215 704.317 706.449 704.39C706.686 704.454 706.94 704.421 707.154 704.3C707.368 704.178 707.526 703.977 707.593 703.74L707.595 703.745Z" fill="#F2F2F2"/>
<path d="M698.167 688.435C696.814 690.492 694.953 692.166 692.766 693.295C690.578 694.424 688.136 694.971 685.676 694.882C679.353 694.582 674.081 690.169 669.336 685.982L655.301 673.582L664.59 673.138C671.27 672.818 678.123 672.52 684.49 674.58C690.857 676.64 696.721 681.598 697.884 688.18" fill="#E6E6E6"/>
<path d="M711.295 709.23C704.995 698.074 697.677 685.675 684.61 681.712C680.976 680.614 677.167 680.22 673.386 680.553C672.194 680.653 672.492 682.493 673.686 682.39C680.023 681.864 686.349 683.537 691.598 687.129C696.649 690.567 700.581 695.346 703.909 700.415C705.948 703.515 707.774 706.756 709.6 709.988C710.18 711.02 711.886 710.275 711.295 709.23Z" fill="#F2F2F2"/>
<path d="M370.986 386.971C379.815 386.971 386.972 379.814 386.972 370.985C386.972 362.156 379.815 354.999 370.986 354.999C362.157 354.999 355 362.156 355 370.985C355 379.814 362.157 386.971 370.986 386.971Z" fill="#FFD858"/>
<path d="M363.333 367.999C363.149 367.999 363 369.192 363 370.663C363 372.134 363.149 373.328 363.333 373.328H379.052C379.236 373.352 379.388 372.179 379.391 370.708C379.493 369.792 379.381 368.865 379.063 368H363.333V367.999Z" fill="#E6E6E6"/>
<path d="M370.986 472.264C379.815 472.264 386.972 465.107 386.972 456.278C386.972 447.449 379.815 440.292 370.986 440.292C362.157 440.292 355 447.449 355 456.278C355 465.107 362.157 472.264 370.986 472.264Z" fill="#FFD858"/>
<path d="M363.333 453.292C363.149 453.292 363 454.485 363 455.956C363 457.427 363.149 458.621 363.333 458.621H379.052C379.236 458.645 379.388 457.472 379.391 456.001C379.493 455.085 379.381 454.158 379.063 453.293L363.333 453.292Z" fill="#E6E6E6"/>
<path d="M370.986 557.522C379.815 557.522 386.972 550.365 386.972 541.536C386.972 532.707 379.815 525.55 370.986 525.55C362.157 525.55 355 532.707 355 541.536C355 550.365 362.157 557.522 370.986 557.522Z" fill="#FFD858"/>
<path d="M363.333 538.55C363.149 538.55 363 539.743 363 541.214C363 542.685 363.149 543.879 363.333 543.879H379.052C379.236 543.903 379.388 542.73 379.391 541.259C379.493 540.343 379.381 539.416 379.063 538.551L363.333 538.55Z" fill="#E6E6E6"/>
<path d="M424.708 173.611L419.051 179.268L466.427 226.644L472.084 220.987L424.708 173.611Z" fill="white"/>
<path d="M472.083 179.273L466.426 173.616L419.05 220.992L424.706 226.649L472.083 179.273Z" fill="white"/>
<path d="M90.2599 456.135C91.6457 455.645 92.9071 454.856 93.9552 453.826C95.0034 452.795 95.8128 451.547 96.3265 450.169C96.8402 448.792 97.0456 447.319 96.9284 445.853C96.8112 444.388 96.3741 442.966 95.6479 441.688L119.209 414.824L100.817 412.287L81.2589 438.187C79.1916 439.549 77.6959 441.622 77.0553 444.013C76.4147 446.405 76.6738 448.948 77.7833 451.161C78.8929 453.374 80.7759 455.103 83.0754 456.02C85.3748 456.937 87.9308 456.979 90.2589 456.137L90.2599 456.135Z" fill="#9F616A"/>
<path d="M118.68 694.215H102.245L94.4258 630.82H118.683L118.68 694.215Z" fill="#9F616A"/>
<path d="M204.712 680.461L189.012 685.334L162.75 627.11L185.916 619.918L204.712 680.461Z" fill="#9F616A"/>
<path d="M106.093 401.943L81.752 429.82L100.808 431.535L106.093 401.943Z" fill="#E6E6E6"/>
<path d="M96.582 437.876C96.582 437.876 88.127 442.103 87.07 461.127C86.013 480.151 90.2411 529.827 90.2411 529.827C90.2411 529.827 86.0141 552.021 90.2411 572.101C94.4681 592.181 86.014 665.101 91.298 665.101C96.582 665.101 124.06 668.272 125.117 665.101C126.174 661.93 127.231 614.372 127.231 614.372C127.231 614.372 135.686 590.064 127.231 575.272C127.231 575.272 156.752 626.82 175.846 666.161C180.025 674.771 211.779 665.104 206.495 655.592C201.211 646.08 188.529 602.749 188.529 602.749C188.529 602.749 179.017 571.043 162.108 557.304L170.563 489.665C170.563 489.665 188.53 444.22 177.963 437.879C167.396 431.538 96.582 437.876 96.582 437.876Z" fill="#1E1E1E"/>
<path d="M128.287 267.721C143.462 267.721 155.765 255.419 155.765 240.243C155.765 225.067 143.462 212.765 128.287 212.765C113.111 212.765 100.809 225.067 100.809 240.243C100.809 255.419 113.111 267.721 128.287 267.721Z" fill="#9F616A"/>
<path d="M158.935 267.721L124.775 287.801C124.775 287.801 111.695 295.167 106.809 307.881C101.601 321.431 104.628 340.509 106.809 344.871C111.036 353.326 105.036 374.463 105.036 374.463L99.752 423.078C99.752 423.078 80.729 441.044 95.525 443.158C110.321 445.272 136.742 442.101 152.595 443.158C168.448 444.215 186.414 446.329 181.13 435.758C175.846 425.187 169.505 417.791 175.846 396.658C180.808 380.118 180.593 318.275 180.265 292.158C180.221 288.571 179.259 285.055 177.472 281.944C175.684 278.834 173.131 276.232 170.054 274.387L158.935 267.721Z" fill="#E5E5E5"/>
<path opacity="0.1" d="M143.617 301.014L146.787 365.482L116.061 427.705L110.85 425.722L142.556 367.595L143.617 301.014Z" fill="black"/>
<path opacity="0.1" d="M178.488 379.219V371.819L142.559 431.005L178.488 379.219Z" fill="black"/>
<path d="M108.785 214.788L104.246 212.972C104.246 212.972 113.746 202.515 126.959 203.424L123.242 199.332C123.242 199.332 132.327 195.695 140.587 205.242C144.929 210.261 149.952 216.161 153.087 222.806H157.952L155.922 227.277L163.028 231.748L155.734 230.948C156.424 234.808 156.188 238.777 155.044 242.527L155.244 246.061C155.244 246.061 146.785 232.972 146.785 231.161V235.701C146.785 235.701 142.242 231.609 142.242 228.881L139.764 232.064L138.525 227.064L123.245 232.064L125.721 227.97L116.221 229.334L119.938 224.334C119.938 224.334 109.201 230.244 108.788 235.246C108.375 240.248 103.007 246.612 103.007 246.612L100.529 242.065C100.529 242.065 96.8086 221.608 108.785 214.788Z" fill="#1E1E1E"/>
<path d="M126.564 459.126C127.841 458.397 128.942 457.398 129.791 456.197C130.639 454.997 131.214 453.625 131.475 452.178C131.736 450.732 131.677 449.245 131.301 447.824C130.926 446.403 130.243 445.081 129.302 443.952L147.725 413.332L129.171 414.1L114.521 443.06C112.729 444.767 111.625 447.073 111.42 449.54C111.214 452.006 111.92 454.463 113.405 456.443C114.89 458.424 117.049 459.791 119.474 460.286C121.9 460.78 124.422 460.368 126.564 459.127V459.126Z" fill="#9F616A"/>
<path d="M168.45 281.462L176.376 279.877C176.376 279.877 200.155 297.315 192.757 332.191C185.359 367.067 152.597 419.91 152.597 419.91C152.597 419.91 145.197 429.422 143.085 431.535C140.973 433.648 136.744 431.535 138.858 434.706C140.972 437.877 135.687 439.99 135.687 439.99C135.687 439.99 112.436 439.99 114.55 431.535C116.664 423.08 152.597 362.835 152.597 362.835L147.31 306.822C147.31 306.822 143.084 279.348 168.45 281.462Z" fill="#E5E5E5"/>
<path d="M192.449 680.235C192.449 680.235 181.62 672.294 181.62 676.625C181.62 680.956 169.347 698.283 169.347 698.283C169.347 698.283 149.133 712.722 165.737 712.722C182.341 712.722 189.561 709.834 189.561 709.834L206.888 698.283C206.888 698.283 211.22 693.229 209.776 687.454C208.332 681.679 203.276 673.737 203.276 673.737C203.276 673.737 197.503 681.679 192.449 680.235Z" fill="#1E1E1E"/>
<path d="M100.945 685.38C100.945 685.38 99.4513 677.909 94.2223 681.645C88.9933 685.381 74.7993 696.586 74.7993 696.586C74.7993 696.586 48.6523 702.562 65.0873 710.033C81.5223 717.504 118.874 707.045 118.874 707.045C118.874 707.045 120.368 683.139 118.874 683.886C117.38 684.633 101.692 686.874 100.945 685.38Z" fill="#1E1E1E"/>
</g>
<defs>
<clipPath id="clip0_108_242">
<rect width="742.417" height="712.723" fill="white"/>
</clipPath>
</defs>
</svg>
