<svg width="28" height="28" viewBox="0 0 28 28" fill="none" xmlns="http://www.w3.org/2000/svg">
<path d="M17.8095 10.8095L14.6191 14L17.8095 17.1905C17.8916 17.2726 17.9377 17.3839 17.9377 17.5C17.9377 17.6161 17.8916 17.7274 17.8095 17.8095C17.7274 17.8916 17.6161 17.9377 17.5 17.9377C17.3839 17.9377 17.2726 17.8916 17.1905 17.8095L14 14.6191L10.8095 17.8095C10.7274 17.8916 10.6161 17.9377 10.5 17.9377C10.3839 17.9377 10.2726 17.8916 10.1905 17.8095C10.1084 17.7274 10.0623 17.6161 10.0623 17.5C10.0623 17.3839 10.1084 17.2726 10.1905 17.1905L13.3809 14L10.1905 10.8095C10.1084 10.7274 10.0623 10.6161 10.0623 10.5C10.0623 10.3839 10.1084 10.2726 10.1905 10.1905C10.2726 10.1084 10.3839 10.0623 10.5 10.0623C10.6161 10.0623 10.7274 10.1084 10.8095 10.1905L14 13.3809L17.1905 10.1905C17.2311 10.1498 17.2794 10.1176 17.3325 10.0956C17.3856 10.0736 17.4425 10.0623 17.5 10.0623C17.5575 10.0623 17.6144 10.0736 17.6675 10.0956C17.7206 10.1176 17.7689 10.1498 17.8095 10.1905C17.8502 10.2311 17.8824 10.2794 17.9044 10.3325C17.9264 10.3856 17.9377 10.4425 17.9377 10.5C17.9377 10.5575 17.9264 10.6144 17.9044 10.6675C17.8824 10.7206 17.8502 10.7689 17.8095 10.8095ZM24.9375 14C24.9375 16.1632 24.296 18.2779 23.0942 20.0765C21.8924 21.8752 20.1842 23.2771 18.1856 24.1049C16.187 24.9328 13.9879 25.1494 11.8662 24.7273C9.74454 24.3053 7.79566 23.2636 6.26602 21.734C4.73639 20.2043 3.69469 18.2555 3.27267 16.1338C2.85064 14.0121 3.06724 11.813 3.89507 9.8144C4.72291 7.81583 6.12479 6.10763 7.92346 4.9058C9.72212 3.70397 11.8368 3.0625 14 3.0625C16.8998 3.06568 19.68 4.21905 21.7305 6.26954C23.781 8.32003 24.9343 11.1002 24.9375 14ZM24.0625 14C24.0625 12.0098 23.4724 10.0643 22.3667 8.40957C21.261 6.7548 19.6894 5.46507 17.8508 4.70346C16.0121 3.94186 13.9888 3.74258 12.0369 4.13085C10.085 4.51911 8.29201 5.47747 6.88474 6.88474C5.47748 8.292 4.51912 10.085 4.13085 12.0369C3.74259 13.9888 3.94186 16.0121 4.70347 17.8508C5.46507 19.6894 6.75481 21.261 8.40958 22.3667C10.0643 23.4723 12.0098 24.0625 14 24.0625C16.6679 24.0596 19.2256 22.9985 21.1121 21.1121C22.9985 19.2256 24.0596 16.6679 24.0625 14Z" fill="#EA4335"/>
</svg>
