<svg width="732" height="669" viewBox="0 0 732 669" fill="none" xmlns="http://www.w3.org/2000/svg">
<g clip-path="url(#clip0_81_129)">
<path d="M507.153 667.417H288.506C260.016 667.417 236.838 644.239 236.838 615.749V51.6678C236.838 23.1779 260.016 0 288.506 0H507.153C535.643 0 558.821 23.1779 558.821 51.6678V615.749C558.821 644.239 535.643 667.417 507.153 667.417Z" fill="#1E1E1E"/>
<path d="M507.376 653.473H288.283C266.906 653.473 249.515 636.081 249.515 614.704V49.5434C249.515 28.1667 266.906 10.7749 288.283 10.7749H507.376C528.753 10.7749 546.144 28.1667 546.144 49.5434V614.704C546.144 636.081 528.753 653.473 507.376 653.473Z" fill="white"/>
<path d="M432.056 47.5368H362.335C354.297 47.5368 347.757 40.9974 347.757 32.9588C347.757 24.9203 354.297 18.3809 362.335 18.3809H432.056C440.094 18.3809 446.633 24.9203 446.633 32.9588C446.633 40.9974 440.094 47.5368 432.056 47.5368Z" fill="#1E1E1E"/>
<path d="M181.466 277.232L206.729 285.537V249.166H183.806L181.466 277.232Z" fill="#A0616A"/>
<path d="M203.605 259.233C217.508 259.233 228.778 247.962 228.778 234.059C228.778 220.157 217.508 208.886 203.605 208.886C189.702 208.886 178.432 220.157 178.432 234.059C178.432 247.962 189.702 259.233 203.605 259.233Z" fill="#A0616A"/>
<path d="M197.19 236.027L200.661 240.244L206.935 229.264C206.935 229.264 214.945 229.676 214.945 223.736C214.945 217.796 222.299 217.629 222.299 217.629C222.299 217.629 232.7 199.463 211.152 204.245C211.152 204.245 196.2 193.998 188.769 202.754C188.769 202.754 165.974 214.235 172.492 234.227L183.33 254.823L185.786 250.156C185.786 250.156 184.295 230.575 197.19 236.027Z" fill="#1E1E1E"/>
<path d="M194.863 621.775H174.523V650.626H194.863V621.775Z" fill="#A0616A"/>
<path d="M192.613 667.146C189.129 667.468 171.734 668.831 170.859 664.845C170.062 661.181 171.232 657.35 171.399 656.835C173.071 640.199 173.688 640.006 174.061 639.89C174.652 639.723 176.388 640.533 179.19 642.346L179.37 642.462L179.409 642.667C179.46 642.925 180.708 649.031 186.596 648.106C190.633 647.463 191.944 646.576 192.368 646.139C192.021 645.984 191.597 645.714 191.301 645.239C190.864 644.557 190.787 643.683 191.07 642.642C191.828 639.878 194.104 635.789 194.194 635.622L194.451 635.159L217.567 650.754L231.838 654.83C232.918 655.138 233.78 655.91 234.217 656.938C234.821 658.378 234.448 660.05 233.291 661.091C230.694 663.418 225.551 667.416 220.139 667.905C218.699 668.034 216.796 668.085 214.662 668.085C205.726 668.085 192.703 667.159 192.6 667.146L192.613 667.146Z" fill="#1E1E1E"/>
<path d="M131.408 578.464L113.019 600.693L128.69 613.658L147.08 591.429L131.408 578.464Z" fill="#A0616A"/>
<path d="M116.45 624.964C113.57 622.984 99.2863 612.956 101.151 609.33C102.873 606 106.216 603.802 106.679 603.506C118.571 591.755 119.175 591.999 119.535 592.154C120.101 592.398 120.911 594.134 121.927 597.309L121.991 597.502L121.888 597.682C121.76 597.913 118.828 603.416 123.958 606.45C127.481 608.533 129.062 608.674 129.654 608.61C129.486 608.276 129.332 607.787 129.396 607.235C129.486 606.437 129.988 605.705 130.888 605.087C133.241 603.442 137.586 601.745 137.779 601.668L138.268 601.475L146.136 628.229L154.531 640.469C155.161 641.394 155.341 642.539 155.02 643.619C154.57 645.11 153.22 646.164 151.651 646.229C148.167 646.37 141.662 646.164 137.175 643.092C135.992 642.282 134.488 641.112 132.842 639.749C125.964 634.053 116.514 625.041 116.437 624.964L116.45 624.964Z" fill="#1E1E1E"/>
<path d="M228.495 399.241H158.735L174.24 629.836H197.498L228.508 399.241L228.495 399.241Z" fill="#1E1E1E"/>
<path d="M214.289 411.943L228.495 399.241L221.386 526.071L141.945 601.642L122.133 585.276L168.429 525.21L214.289 411.943Z" fill="#1E1E1E"/>
<path d="M214.289 263.604L179.833 258.011L169.136 276.718C155.534 300.502 149.993 328.041 153.323 355.233L158.735 399.267H228.495L214.289 263.617L214.289 263.604Z" fill="#FFD858"/>
<path d="M186.313 440.768C187.74 447.878 185.079 454.37 180.386 455.27C175.68 456.157 170.718 451.117 169.291 443.995C168.686 441.154 168.789 438.222 169.599 435.432L163.942 405.207L178.727 402.905L182.726 432.951C184.551 435.252 185.786 437.927 186.313 440.781L186.313 440.768Z" fill="#A0616A"/>
<path d="M168.327 432.578L146.612 365.492V365.389L154.815 296.311C156.075 285.73 165.049 277.759 175.694 277.759C182.212 277.759 188.255 280.703 192.266 285.846C196.277 290.988 197.679 297.558 196.097 303.896L181.608 361.841L185.066 427.602L168.314 432.578H168.327Z" fill="#FFD858"/>
<path d="M286.448 209.993H339.216" stroke="#090814" stroke-width="2" stroke-miterlimit="10"/>
<path d="M286.448 229.993H397.448" stroke="#090814" stroke-width="2" stroke-miterlimit="10"/>
<path d="M286.448 220.993H445.448" stroke="#090814" stroke-width="2" stroke-miterlimit="10"/>
<path d="M274.448 223.993C279.419 223.993 283.448 219.963 283.448 214.993C283.448 210.022 279.419 205.993 274.448 205.993C269.478 205.993 265.448 210.022 265.448 214.993C265.448 219.963 269.478 223.993 274.448 223.993Z" fill="#FFD858"/>
<path d="M511.249 368.993H293.647C289.402 368.993 285.948 365.539 285.948 361.293V247.192C285.948 242.947 289.402 239.493 293.647 239.493H511.249C515.495 239.493 518.948 242.947 518.948 247.192V361.293C518.948 365.539 515.495 368.993 511.249 368.993Z" fill="#D3D3D3"/>
<path d="M394.588 373.502L394.532 373.446L394.476 373.502C391.768 370.796 387.38 370.799 384.675 373.507C381.969 376.216 381.914 380.659 384.622 383.365L394.539 393.271L404.448 383.352C407.154 380.643 407.097 376.201 404.39 373.495C401.682 370.789 397.294 370.793 394.589 373.501L394.588 373.502Z" fill="#FFD858"/>
<path d="M0 667.455H35.54H67.13H68.4H96.21H286.66H331.98H731.503" stroke="#090814" stroke-width="2" stroke-miterlimit="10"/>
</g>
<defs>
<clipPath id="clip0_81_129">
<rect width="731.503" height="668.455" fill="white"/>
</clipPath>
</defs>
</svg>
