<svg xmlns="http://www.w3.org/2000/svg" fill="none" viewBox="0 0 16 16" id="Image-Duotone--Streamline-Phosphor" height="16" width="16"><desc>Image Duotone Streamline Icon: https://streamlinehq.com</desc><g id="image-duotone"><path id="Vector" fill="#ffd858" d="M14 3.5v7.62875l-2.4825 -2.4825c-0.09375 -0.0936875 -0.220875 -0.1463125 -0.3534375 -0.1463125 -0.1325625 0 -0.2596875 0.052625 -0.3534375 0.1463125L9.206875 10.25l-3.103125 -3.10375c-0.0464375 -0.0465 -0.10158125 -0.083375 -0.16228125 -0.1085 -0.0607 -0.0251875 -0.1257625 -0.038125 -0.19146875 -0.038125s-0.13076875 0.0129375 -0.19146875 0.038125c-0.0607 0.025125 -0.11584375 0.062 -0.16228125 0.1085L2 10.543125V3.5c0 -0.13260625 0.05268125 -0.2597875 0.14644375 -0.35355625C2.2402125 3.05268125 2.36739375 3 2.5 3h11c0.132625 0 0.2598125 0.05268125 0.3535625 0.14644375C13.9473125 3.2402125 14 3.36739375 14 3.5Z" stroke-width="0.0625"></path><path id="Vector_2" fill="#000000" d="M13.5 2.5H2.5c-0.26521875 0 -0.51956875 0.10535625 -0.70710625 0.29289375C1.60535625 2.98043125 1.5 3.23478125 1.5 3.5v9c0 0.2651875 0.10535625 0.5195625 0.29289375 0.707125C1.98043125 13.394625 2.23478125 13.5 2.5 13.5h11c0.2651875 0 0.5195625 -0.105375 0.707125 -0.292875 0.1875 -0.1875625 0.292875 -0.4419375 0.292875 -0.707125V3.5c0 -0.26521875 -0.105375 -0.51956875 -0.292875 -0.70710625C14.0195625 2.60535625 13.7651875 2.5 13.5 2.5Zm0 1v6.421875l-1.629375 -1.62875c-0.092875 -0.092875 -0.203125 -0.1665625 -0.3244375 -0.2168125 -0.121375 -0.0503125 -0.2514375 -0.0761875 -0.38275 -0.0761875s-0.261375 0.025875 -0.38275 0.0761875c-0.1213125 0.05025 -0.2315625 0.1239375 -0.3244375 0.2168125l-1.25 1.25 -2.75 -2.75c-0.1875 -0.187375 -0.441775 -0.2926875 -0.706875 -0.2926875 -0.2651 0 -0.51935625 0.1053125 -0.706875 0.2926875L2.5 9.335625V3.5h11ZM2.5 10.75l3.25 -3.25 5 5H2.5v-1.75Zm11 1.75h-1.335625l-2.25 -2.25 1.25 -1.25L13.5 11.33625V12.5Zm-4.5 -6.25c0 -0.1483375 0.044 -0.2933375 0.126375 -0.416675 0.0824375 -0.1233375 0.1995625 -0.21946875 0.336625 -0.2762375 0.1370625 -0.0567625 0.2878125 -0.0716125 0.4333125 -0.042675 0.1455 0.0289375 0.279125 0.10036875 0.384 0.20525625 0.1049375 0.1048875 0.1763125 0.238525 0.20525 0.3840125 0.0289375 0.1454875 0.014125 0.29625625 -0.042625 0.43331875 -0.0568125 0.1370625 -0.1529375 0.2541875 -0.27625 0.336625 -0.123375 0.082375 -0.268375 0.126375 -0.4166875 0.126375 -0.1989375 0 -0.3896875 -0.079 -0.5303125 -0.2196875 -0.1406875 -0.140625 -0.2196875 -0.331375 -0.2196875 -0.5303125Z" stroke-width="0.0625"></path></g></svg>