<svg width="201" height="288" viewBox="0 0 201 288" fill="none" xmlns="http://www.w3.org/2000/svg">
<path d="M6.88965 232.191C6.88965 229.952 8.61214 228.746 10.3346 228.746H77.8562C79.7509 228.746 81.3301 230.125 81.3011 232.191C80.7989 268.019 43.4064 288 15.5021 288H10.6791C8.61214 288 6.88965 286.45 6.88965 284.21V232.191Z" fill="#FBBC05"/>
<path d="M4.47847 68.2105C1.86029 68.2105 0.401914 65.4545 0 64.0766V61.6651C0 51.1579 10.5072 20.1531 37.2057 7.23445C44.4385 3.73472 53.9139 0.344498 61.3206 0H194.297H196.364C198.982 0.275598 199.981 2.64115 200.153 3.78947V5.85646C192.402 46.6794 166.22 68.2105 140.211 68.2105H4.47847Z" fill="#FBBC05"/>
<path d="M87.8472 85.4353C87.8472 83.7128 88.8807 80.9568 91.9811 80.9568H190.163C193.263 80.9568 193.608 83.5405 193.608 83.7128C193.608 102.832 168.115 147.789 124.364 147.789H92.6701C90.6031 147.789 87.8472 147.1 87.8472 142.966V85.4353Z" fill="#FBBC05"/>
<circle cx="40.6509" cy="116.785" r="39.6172" fill="#FBBC05"/>
<rect x="6.88965" y="164.325" width="74.756" height="53.7416" rx="8" fill="#FBBC05"/>
</svg>
