<svg width="502" height="384" viewBox="0 0 502 384" fill="none" xmlns="http://www.w3.org/2000/svg">
<path d="M55.8 181H20.7V120.7H3.6V93.7H20.7V89.38C20.7 64.18 34.2 53.2 57.24 53.2C67.32 53.2 74.52 54.46 83.52 58.6L76.86 81.82C73.26 80.02 70.2 79.3 66.24 79.3C59.76 79.3 55.8 82.54 55.8 89.92V93.7H78.3V120.7H55.8V181ZM180.579 121.24V133.84C180.579 149.68 180.579 165.16 181.479 181H149.439L147.279 166.6H145.479C139.899 177.22 131.259 182.8 117.039 182.8C99.3994 182.8 87.8794 172 87.8794 155.98C87.8794 137.8 100.119 127.72 125.499 126.1L146.739 124.84V122.68C146.739 114.4 141.699 111.34 133.779 111.34C125.859 111.34 120.639 115.12 119.739 121.96L88.9594 115.66C91.8394 98.38 107.859 87.4 133.779 87.4C165.459 87.4 180.579 100.54 180.579 121.24ZM131.439 158.14C139.539 158.14 146.559 152.92 146.739 141.04L134.139 141.76C124.779 142.3 121.359 145.18 121.359 150.58C121.359 155.26 124.599 158.14 131.439 158.14ZM280.564 181H197.044V155.08L234.484 117.82V116.02H198.844V89.2H278.764V115.12L241.324 152.38V154.18H280.564V181ZM387.298 121.24V133.84C387.298 149.68 387.298 165.16 388.198 181H356.158L353.998 166.6H352.198C346.618 177.22 337.978 182.8 323.758 182.8C306.118 182.8 294.598 172 294.598 155.98C294.598 137.8 306.838 127.72 332.218 126.1L353.458 124.84V122.68C353.458 114.4 348.418 111.34 340.498 111.34C332.578 111.34 327.358 115.12 326.458 121.96L295.678 115.66C298.558 98.38 314.578 87.4 340.498 87.4C372.178 87.4 387.298 100.54 387.298 121.24ZM338.158 158.14C346.258 158.14 353.278 152.92 353.458 141.04L340.858 141.76C331.498 142.3 328.078 145.18 328.078 150.58C328.078 155.26 331.318 158.14 338.158 158.14Z" fill="white"/>
<path d="M37.4 334H22.1V260.05H5.1V247.3H22.1V238.63C22.1 222.82 32.3 213.3 47.43 213.3C55.42 213.3 61.54 215 67.49 219.08L62.56 229.62C57.63 226.73 53.89 226.05 49.81 226.05C43.35 226.05 37.4 229.96 37.4 239.65V247.3H62.05V260.05H37.4V334ZM122.818 245.6C125.198 245.6 126.728 245.6 129.618 245.77V260.22C126.898 260.05 125.538 260.05 123.158 260.05C109.558 260.05 94.7684 268.38 94.7684 294.22V334H79.4684V293.54C79.4684 278.07 79.4684 262.77 78.6184 247.3H93.0684L95.1084 264.3H96.1284C101.228 252.06 110.748 245.6 122.818 245.6ZM213.566 276.03V287.76C213.566 303.23 213.566 318.53 214.416 334H201.666L199.966 318.36H198.776C193.336 329.24 183.136 335.7 169.196 335.7C152.196 335.7 140.976 325.5 140.976 310.2C140.976 293.54 152.876 283.51 177.356 282.15L198.776 280.96V276.54C198.776 263.96 189.766 258.35 178.376 258.35C166.306 258.35 158.656 264.13 155.086 275.01L141.826 270.25C145.736 254.1 160.526 245.6 178.376 245.6C200.306 245.6 213.566 256.65 213.566 276.03ZM171.746 322.61C186.706 322.61 198.266 310.2 198.776 293.2L179.736 294.39C164.946 295.41 155.766 299.49 155.766 309.69C155.766 317.68 161.886 322.61 171.746 322.61ZM252.151 334H236.851V293.54C236.851 278.07 236.851 262.77 236.001 247.3H250.451L251.981 260.9H253.171C258.611 250.87 268.641 245.6 279.181 245.6C292.441 245.6 300.941 251.21 305.701 262.6H306.891C312.501 251.72 322.701 245.6 335.281 245.6C353.641 245.6 364.351 256.65 364.351 280.45V334H349.051V282.49C349.051 267.19 342.421 259.2 330.861 259.2C317.601 259.2 308.251 269.91 308.251 284.53V334H292.951V282.49C292.951 267.19 286.321 259.2 274.761 259.2C261.501 259.2 252.151 269.91 252.151 284.53V334ZM462.911 288.44C462.911 290.99 462.741 293.71 462.401 295.92H398.651C400.181 312.41 410.041 322.95 424.661 322.95C434.521 322.95 441.831 318.7 446.931 308.5L460.531 313.43C454.411 328.22 441.661 335.7 424.661 335.7C398.821 335.7 383.011 315.98 383.011 290.65C383.011 265.32 398.651 245.6 424.491 245.6C447.271 245.6 462.911 261.41 462.911 288.44ZM424.491 258.35C410.381 258.35 400.861 268.04 398.821 283.68H448.291C446.931 267.53 437.581 258.35 424.491 258.35Z" fill="white"/>
</svg>
