<svg width="609" height="522" viewBox="0 0 609 522" fill="none" xmlns="http://www.w3.org/2000/svg">
<g clip-path="url(#clip0_84_328)">
<path d="M413.672 38.7474C413.672 23.1721 426.298 10.5459 441.873 10.5459C457.449 10.5459 470.075 23.1721 470.075 38.7474C470.075 50.5731 462.793 60.6925 452.471 64.8824C455.791 72.3737 460.622 78.5282 460.622 78.5282L432.829 101.689L426.924 62.6568C418.966 57.671 413.672 48.8298 413.672 38.7474Z" fill="#ED9DA0"/>
<path d="M364.243 225.799L376.614 201.421L390.847 208.644L378.477 233.022C379.798 236.863 379.505 241.577 377.301 245.92C373.445 253.519 365.221 257.092 358.932 253.9C352.644 250.709 350.672 241.962 354.528 234.363C356.731 230.021 360.363 227.001 364.243 225.799Z" fill="#ED9DA0"/>
<path d="M448.2 115.581L385.705 232.385L361.27 219.312L416.015 99.6289" fill="#1E1E1E"/>
<path d="M414.061 142.954L397.028 222.064L471.263 224.654C471.263 224.654 461.537 169.713 464.99 160.218L414.061 142.954Z" fill="#ED9DA0"/>
<path d="M528.35 447.697L514.387 457.991L524.68 471.954L538.643 461.66L528.35 447.697Z" fill="#ED9DA0"/>
<path d="M545.624 476.118L515.944 497.999C513.407 499.869 510.429 501.167 507.333 501.754L499.922 503.157C498.39 503.448 496.802 502.824 495.877 501.569C494.791 500.097 494.822 498.064 495.951 496.625L504.937 485.18L516.765 460.792L516.833 460.855C518.543 462.418 521.14 464.768 521.335 464.884C524.987 465.692 527.793 465.238 529.673 463.534C532.952 460.562 532.291 454.732 532.284 454.673L532.278 454.629L532.317 454.606C533.211 454.08 534.071 453.962 534.876 454.255C536.583 454.878 537.474 457.12 537.601 457.463C539.268 457.696 543.603 462.666 543.951 463.069C546.445 463.52 548.163 464.457 549.055 465.851C549.835 467.071 549.986 468.625 549.504 470.473C548.925 472.695 547.547 474.7 545.624 476.118Z" fill="#1E1E1E"/>
<path d="M408.613 488.439H391.266V505.787H408.613V488.439Z" fill="#ED9DA0"/>
<path d="M405.653 521.566H368.779C365.627 521.566 362.46 520.844 359.619 519.479L352.822 516.211C351.416 515.536 350.508 514.092 350.508 512.532C350.508 510.703 351.739 509.085 353.501 508.597L367.526 504.717L391.518 492.106L391.536 492.197C391.985 494.469 392.68 497.902 392.768 498.11C395.229 500.929 397.756 502.228 400.28 501.972C404.684 501.526 407.611 496.441 407.64 496.39L407.662 496.35L407.707 496.355C408.738 496.462 409.501 496.877 409.974 497.591C410.979 499.106 410.366 501.438 410.265 501.79C411.468 502.967 412.008 509.54 412.05 510.07C413.789 511.914 414.616 513.686 414.506 515.338C414.41 516.783 413.609 518.124 412.126 519.325C410.34 520.77 408.042 521.566 405.653 521.566Z" fill="#1E1E1E"/>
<path d="M479.393 198.28H396.254L383.002 493.08H412.281L431.198 367.712L507.106 468.006L534.819 442.933L479.393 367.712V198.28Z" fill="#1E1E1E"/>
<path d="M428.103 79.6383L460.041 71.8696L480.513 98.0821C485.389 108.03 486.159 119.497 482.655 130.007L465.68 180.935C465.68 180.935 413.888 180.072 402.667 149.86L399.45 143.158C395.053 133.997 396.05 123.16 402.046 114.956L428.103 79.6383Z" fill="#1E1E1E"/>
<path d="M480.766 57.4668C480.766 57.4668 479.399 67.389 466.875 68.0691L454.352 68.7492C454.352 68.7492 461.227 37.6903 452.387 43.5847C443.547 49.4791 419.973 24.768 419.973 24.768L413.017 37.8137C413.017 37.8137 396.399 31.7959 414.816 17.0599C414.816 17.0599 436.79 0.071079 460.119 10.2729C483.447 20.4747 480.766 57.4668 480.766 57.4668Z" fill="#1E1E1E"/>
<path d="M462.098 248.009L461.505 220.679L477.462 220.333L478.055 247.663C481.032 250.427 482.998 254.722 483.103 259.59C483.288 268.11 477.723 275.14 470.672 275.293C463.622 275.446 457.757 268.664 457.572 260.144C457.466 255.275 459.244 250.9 462.098 248.009Z" fill="#ED9DA0"/>
<path d="M484.129 111.22V243.693H456.416L448.226 112.338" fill="#1E1E1E"/>
<path d="M155.779 521H191.319H222.909H224.179H251.989H442.439H487.759H608.779" stroke="#1E1E1E" stroke-width="1.5" stroke-miterlimit="10"/>
<path d="M31.5127 6.00244H110.696" stroke="#1E1E1E" stroke-width="2" stroke-miterlimit="10"/>
<path d="M31.5127 36.0146H198.079" stroke="#1E1E1E" stroke-width="2" stroke-miterlimit="10"/>
<path d="M31.5127 22.5088H270.108" stroke="#1E1E1E" stroke-width="2" stroke-miterlimit="10"/>
<path d="M13.5054 27.0108C20.9642 27.0108 27.0108 20.9642 27.0108 13.5054C27.0108 6.04657 20.9642 0 13.5054 0C6.04657 0 0 6.04657 0 13.5054C0 20.9642 6.04657 27.0108 13.5054 27.0108Z" fill="#FFD858"/>
<path d="M368.849 244.598H42.3158C35.9452 244.598 30.7627 239.415 30.7627 233.044V61.8235C30.7627 55.4532 35.9452 50.27 42.3158 50.27H368.849C375.22 50.27 380.403 55.4532 380.403 61.8235V233.044C380.403 239.415 375.22 244.598 368.849 244.598Z" fill="#D9D9D9"/>
<path d="M193.785 251.365L193.702 251.281L193.618 251.365C189.555 247.305 182.97 247.31 178.91 251.373C174.85 255.438 174.768 262.105 178.831 266.165L193.712 281.03L208.582 266.146C212.642 262.081 212.557 255.415 208.495 251.355C204.432 247.295 197.847 247.3 193.787 251.363L193.785 251.365Z" fill="#FFD858"/>
</g>
<defs>
<clipPath id="clip0_84_328">
<rect width="608.779" height="521.75" fill="white"/>
</clipPath>
</defs>
</svg>
