<svg width="732" height="512" viewBox="0 0 732 512" fill="none" xmlns="http://www.w3.org/2000/svg">
<g clip-path="url(#clip0_82_190)">
<path d="M0 509.7C0 510.36 0.53 510.89 1.19 510.89H730.48C731.14 510.89 731.67 510.36 731.67 509.7C731.67 509.04 731.14 508.51 730.48 508.51H1.19C0.53 508.51 0 509.04 0 509.7Z" fill="#1E1E1E"/>
<path d="M440.61 79.1199L466.22 87.5399V50.6699H442.98L440.61 79.1199Z" fill="#F8A8AB"/>
<path d="M463.05 60.8701C477.145 60.8701 488.57 49.4444 488.57 35.3501C488.57 21.2558 477.145 9.83008 463.05 9.83008C448.956 9.83008 437.53 21.2558 437.53 35.3501C437.53 49.4444 448.956 60.8701 463.05 60.8701Z" fill="#F8A8AB"/>
<path d="M456.55 37.3499L460.07 41.6199L466.43 30.4799C466.43 30.4799 474.55 30.8999 474.55 24.8699C474.55 18.8399 482 18.6699 482 18.6699C482 18.6699 492.55 0.249918 470.7 5.09992C470.7 5.09992 455.54 -5.28008 448.01 3.58992C448.01 3.58992 424.9 15.2299 431.51 35.4899L442.5 56.3799L444.99 51.6499C444.99 51.6499 443.48 31.7999 456.55 37.3299V37.3499Z" fill="#1E1E1E"/>
<path d="M453.87 461.78H432.93V491.49H453.87V461.78Z" fill="#F8A8AB"/>
<path d="M451.55 508.51C447.97 508.83 430.05 510.25 429.15 506.14C428.33 502.37 429.54 498.43 429.71 497.89C431.43 480.75 432.07 480.56 432.46 480.45C433.07 480.27 434.85 481.12 437.74 482.98L437.92 483.1L437.96 483.31C438.01 483.58 439.29 489.87 445.36 488.9C449.52 488.24 450.87 487.32 451.3 486.87C450.95 486.71 450.51 486.43 450.2 485.95C449.75 485.25 449.67 484.35 449.97 483.27C450.75 480.42 453.09 476.21 453.19 476.04L453.46 475.56L477.26 491.62L491.96 495.82C493.07 496.14 493.96 496.93 494.41 497.99C495.03 499.47 494.65 501.19 493.45 502.27C490.78 504.67 485.48 508.78 479.91 509.29C478.43 509.43 476.47 509.48 474.27 509.48C465.08 509.48 451.66 508.53 451.56 508.51H451.55Z" fill="#1E1E1E"/>
<path d="M480.61 205.64L425.68 202.83C425.68 202.83 417.26 234.75 427.9 268.01L429.18 468.3H460.22L489.48 261.69L480.61 205.64Z" fill="#1E1E1E"/>
<path d="M471.35 72.0298L441.2 56.0298C441.2 56.0298 408.71 103.51 413.2 129.23C417.7 154.95 425.68 202.83 425.68 202.83L492.19 205.64L480.58 111.35L471.35 72.0298Z" fill="#E2E3E4"/>
<path d="M468.77 461.78H447.83V491.49H468.77V461.78Z" fill="#F8A8AB"/>
<path d="M466.45 508.51C462.87 508.83 444.95 510.25 444.05 506.14C443.23 502.37 444.44 498.43 444.61 497.89C446.33 480.75 446.97 480.56 447.36 480.45C447.97 480.27 449.75 481.12 452.64 482.98L452.82 483.1L452.86 483.31C452.91 483.58 454.19 489.87 460.26 488.9C464.42 488.24 465.77 487.32 466.2 486.87C465.85 486.71 465.41 486.43 465.1 485.95C464.65 485.25 464.57 484.35 464.87 483.27C465.65 480.42 467.99 476.21 468.09 476.04L468.36 475.56L492.16 491.62L506.86 495.82C507.97 496.14 508.86 496.93 509.31 497.99C509.93 499.47 509.55 501.19 508.35 502.27C505.68 504.67 500.38 508.78 494.81 509.29C493.33 509.43 491.37 509.48 489.17 509.48C479.98 509.48 466.56 508.53 466.46 508.51H466.45Z" fill="#1E1E1E"/>
<path d="M492.19 205.64L425.68 202.83C425.68 202.83 417.26 234.75 427.9 268.01L440.76 468.3H471.8L501.06 261.69L492.19 205.64Z" fill="#1E1E1E"/>
<path d="M485.25 336.46C480.6 336.46 475.53 335.32 470.52 334.2C466.81 333.37 463.54 333.16 460.92 333C456.94 332.75 453.79 332.55 452.04 330.22C450.31 327.92 450.31 324.01 452.04 316.3C454.34 306.06 459.46 289.7 465.72 276.24C473.81 258.88 481.58 250.89 488.83 252.52C498.54 254.7 502.41 270.91 503.86 280.37C505.88 293.58 505.7 309.28 503.42 319.44C500.4 332.89 493.47 336.45 485.24 336.45H485.25V336.46ZM487.02 255.33C481.69 255.33 475.15 263.11 468.45 277.51C462.28 290.76 457.24 306.87 454.97 316.96C453.52 323.44 453.36 326.97 454.44 328.42C455.36 329.64 457.77 329.8 461.1 330C463.83 330.17 467.23 330.38 471.17 331.27C486.83 334.78 496.62 336.06 500.49 318.79C504.64 300.29 501.48 258.44 488.17 255.45C487.79 255.36 487.4 255.32 487.01 255.32H487.02V255.33Z" fill="#DFDFE0"/>
<path d="M548.58 460.81L399.43 461.79L376.26 451.13L389.76 313.42L403.34 314.11L543.07 321.22L548.58 460.81Z" fill="#FFD858"/>
<path opacity="0.2" d="M399.43 461.79L376.26 451.13L389.76 313.42L403.34 314.11L399.43 461.79Z" fill="#272223"/>
<path d="M487.5 311.06C484.73 311.06 481.7 310.38 478.72 309.71C476.51 309.21 474.56 309.09 472.99 308.99C470.62 308.84 468.74 308.72 467.7 307.33C466.67 305.96 466.67 303.63 467.7 299.03C469.07 292.92 472.12 283.17 475.86 275.15C480.68 264.8 485.32 260.04 489.64 261.01C495.43 262.31 497.74 271.97 498.6 277.62C499.8 285.5 499.7 294.86 498.34 300.91C496.54 308.93 492.41 311.05 487.5 311.05V311.06ZM488.56 262.69C485.38 262.69 481.48 267.33 477.49 275.92C473.81 283.82 470.8 293.42 469.46 299.44C468.59 303.3 468.5 305.41 469.15 306.27C469.7 307 471.13 307.09 473.12 307.21C474.75 307.31 476.77 307.44 479.12 307.97C488.45 310.06 494.29 310.82 496.6 300.53C499.07 289.5 497.19 264.55 489.26 262.77C489.03 262.72 488.8 262.69 488.57 262.69H488.56Z" fill="#DFDFE0"/>
<path d="M525.25 385.21L436.33 385.79L422.51 379.44L430.56 297.33L438.66 297.74L521.97 301.98L525.25 385.21Z" fill="#E2E3E4"/>
<path opacity="0.2" d="M436.33 385.79L422.51 379.44L430.56 297.33L438.66 297.74L436.33 385.79Z" fill="#272223"/>
<path d="M492.7 255.64C494.19 262.96 491.46 269.65 486.62 270.58C481.78 271.51 476.65 266.32 475.17 259C474.54 256.08 474.64 253.06 475.46 250.18L469.57 219.07L484.79 216.66L488.98 247.58C490.87 249.94 492.14 252.7 492.7 255.64Z" fill="#F8A8AB"/>
<path d="M433 71.4498C433 71.4498 455.26 68.6298 457.92 75.2798C460.58 81.9298 491.84 240.22 491.84 240.22H471.22L433 71.4498Z" fill="#E2E3E4"/>
<path d="M278.34 105.33L255.98 112.68V80.5H276.27L278.34 105.33Z" fill="#F8A8AB"/>
<path d="M258.75 89.4101C271.055 89.4101 281.03 79.435 281.03 67.1301C281.03 54.8252 271.055 44.8501 258.75 44.8501C246.445 44.8501 236.47 54.8252 236.47 67.1301C236.47 79.435 246.445 89.4101 258.75 89.4101Z" fill="#F8A8AB"/>
<path d="M264.87 64.9202C261.14 64.8102 258.69 61.0402 257.24 57.6002C255.79 54.1602 254.3 50.2102 250.84 48.7902C248.01 47.6302 243.02 55.4802 240.79 53.3902C238.46 51.2102 240.73 40.0202 243.2 38.0102C245.67 36.0002 249.05 35.6102 252.23 35.4602C259.99 35.1002 267.8 35.7302 275.41 37.3202C280.12 38.3002 284.96 39.7802 288.36 43.1802C292.66 47.5002 293.76 54.0102 294.07 60.1002C294.39 66.3302 294.03 72.8502 291 78.3002C287.97 83.7502 281.63 87.7702 275.55 86.3802C274.94 83.0802 275.56 79.6902 275.8 76.3302C276.03 72.9802 275.79 69.3602 273.74 66.6902C271.69 64.0202 267.32 62.9602 264.94 65.3302" fill="#1E1E1E"/>
<path d="M292.28 72.64C294.51 71.01 297.18 69.64 299.92 69.98C302.88 70.34 305.39 72.78 306.15 75.67C306.91 78.56 306.06 81.74 304.22 84.1C302.39 86.46 299.66 88.02 296.78 88.8C295.11 89.25 293.28 89.44 291.69 88.76C289.35 87.75 288.08 84.76 289 82.38" fill="#1E1E1E"/>
<path d="M270.96 463.43H250.02V493.14H270.96V463.43Z" fill="#F8A8AB"/>
<path d="M229.62 511.12C227.42 511.12 225.46 511.07 223.98 510.93C218.42 510.42 213.11 506.31 210.44 503.91C209.24 502.83 208.86 501.11 209.48 499.63C209.93 498.57 210.82 497.77 211.93 497.46L226.63 493.26L250.43 477.2L250.7 477.68C250.8 477.86 253.14 482.07 253.92 484.91C254.22 485.99 254.14 486.89 253.69 487.59C253.38 488.07 252.94 488.35 252.59 488.51C253.02 488.96 254.37 489.88 258.53 490.54C264.6 491.5 265.88 485.21 265.93 484.95L265.97 484.74L266.15 484.62C269.04 482.76 270.82 481.91 271.43 482.09C271.81 482.2 272.45 482.4 274.18 499.53C274.35 500.07 275.56 504.01 274.74 507.78C273.85 511.88 255.93 510.47 252.34 510.15C252.24 510.16 238.82 511.12 229.63 511.12H229.62Z" fill="#1E1E1E"/>
<path d="M330.586 440.069L312.818 451.15L328.54 476.359L346.308 465.278L330.586 440.069Z" fill="#F8A8AB"/>
<path d="M306.98 507.05C304.52 507.05 302.26 506.75 300.65 506.47C299.07 506.19 297.83 504.93 297.57 503.35C297.39 502.21 297.72 501.06 298.5 500.21L308.75 488.87L320.45 462.65L320.93 462.91C321.11 463.01 325.32 465.34 327.49 467.34C328.32 468.1 328.73 468.91 328.71 469.74C328.7 470.32 328.48 470.78 328.26 471.11C328.86 471.27 330.49 471.33 334.37 469.69C340.03 467.3 337.79 461.28 337.69 461.03L337.61 460.83L337.7 460.64C339.17 457.53 340.22 455.87 340.84 455.7C341.23 455.59 341.87 455.42 352.4 469.05C352.83 469.41 355.94 472.12 357.24 475.75C358.65 479.7 342.7 487.99 339.49 489.61C339.39 489.69 322.7 501.82 315.84 505.27C313.12 506.64 309.9 507.06 306.97 507.06L306.98 507.05Z" fill="#1E1E1E"/>
<path d="M286.38 214.98H227.75L222.43 269.52L245.71 471.04H275.64L263.67 354.65L312.22 459.73L338.82 441.11L300.91 343.01C300.91 343.01 314.45 257.55 303.81 236.26C293.17 214.97 286.38 214.98 286.38 214.98Z" fill="#1E1E1E"/>
<path d="M315.54 218.3H222.43L250.36 97.9199H290.93L315.54 218.3Z" fill="#FFD858"/>
<path d="M199.3 95.5498C197.81 88.2298 200.54 81.5398 205.38 80.6098C210.22 79.6798 215.35 84.8698 216.83 92.1898C217.46 95.1098 217.36 98.1298 216.54 101.01L222.43 132.12L207.21 134.53L203.02 103.61C201.13 101.25 199.86 98.4898 199.3 95.5498Z" fill="#F8A8AB"/>
<path d="M289.94 97.9202H254.16L230.04 146.16L220.94 110.01L200.95 112.13C200.95 112.13 205.68 182.76 226.35 180.37C247.02 177.98 295.23 114.35 289.93 97.9102H289.94V97.9202Z" fill="#FFD858"/>
<path d="M323.73 326.73C320.96 326.73 317.93 326.05 314.95 325.38C312.74 324.88 310.79 324.76 309.22 324.66C306.85 324.51 304.97 324.39 303.93 323C302.9 321.63 302.9 319.3 303.93 314.7C305.3 308.59 308.35 298.84 312.09 290.82C316.91 280.47 321.55 275.71 325.87 276.68C331.66 277.98 333.97 287.64 334.83 293.29C336.03 301.17 335.93 310.53 334.57 316.58C332.77 324.6 328.64 326.72 323.73 326.72V326.73ZM324.79 278.36C321.61 278.36 317.71 283 313.72 291.59C310.04 299.49 307.03 309.09 305.69 315.11C304.82 318.97 304.73 321.08 305.38 321.94C305.93 322.67 307.36 322.76 309.35 322.88C310.98 322.98 313 323.11 315.35 323.64C324.68 325.73 330.52 326.49 332.83 316.2C335.3 305.17 333.42 280.22 325.49 278.44C325.26 278.39 325.03 278.36 324.8 278.36H324.79Z" fill="#DFDFE0"/>
<path d="M361.49 400.87L272.57 401.45L258.75 395.1L266.8 312.99L274.9 313.4L358.21 317.64L361.49 400.87Z" fill="#E2E3E4"/>
<path opacity="0.2" d="M272.57 401.45L258.75 395.1L266.8 312.99L274.9 313.4L272.57 401.45Z" fill="#272223"/>
<path d="M329.89 281.37C331.38 288.69 328.65 295.38 323.81 296.31C318.97 297.24 313.84 292.05 312.36 284.73C311.73 281.81 311.83 278.79 312.65 275.91L306.76 244.8L321.98 242.39L326.17 273.31C328.06 275.67 329.33 278.43 329.89 281.37Z" fill="#F8A8AB"/>
<path d="M269.54 97.9198C269.54 97.9198 289.87 97.0598 290.93 97.9198C296.48 102.45 329.03 265.96 329.03 265.96H308.41L269.54 97.9198Z" fill="#FFD858"/>
</g>
<defs>
<clipPath id="clip0_82_190">
<rect width="731.67" height="511.12" fill="white"/>
</clipPath>
</defs>
</svg>
