<svg width="802" height="537" viewBox="0 0 802 537" fill="none" xmlns="http://www.w3.org/2000/svg">
<g clip-path="url(#clip0_83_267)">
<path d="M658.249 321.503C658.78 321.345 659.322 321.229 659.87 321.156L681.769 276.66L675.083 266.637L688.891 254.57L706.248 275.81L670.897 327.258C671.767 329.204 672.024 331.369 671.633 333.464C671.243 335.559 670.224 337.486 668.712 338.988C667.2 340.49 665.266 341.496 663.168 341.872C661.071 342.249 658.908 341.977 656.968 341.095C655.028 340.212 653.403 338.76 652.309 336.931C651.214 335.102 650.703 332.983 650.842 330.856C650.981 328.73 651.764 326.696 653.087 325.025C654.411 323.354 656.211 322.126 658.249 321.503Z" fill="#A0616A"/>
<path d="M695.632 260.718C695.333 261.033 694.991 261.302 694.615 261.519L672.21 274.508C671.671 274.82 671.074 275.017 670.455 275.087C669.837 275.156 669.21 275.097 668.616 274.912C668.021 274.727 667.472 274.421 667.002 274.012C666.532 273.604 666.152 273.103 665.886 272.54L654.988 249.518C654.525 248.549 654.425 247.445 654.707 246.409C654.989 245.373 655.635 244.472 656.526 243.872L670.415 234.424C671.282 233.835 672.328 233.566 673.372 233.666C674.416 233.765 675.392 234.226 676.133 234.968L695.546 254.449C696.372 255.279 696.843 256.396 696.858 257.566C696.874 258.737 696.434 259.867 695.632 260.718Z" fill="#CCCCCC"/>
<path d="M727.092 515.689L715.262 518.908L697.217 474.811L714.677 470.06L727.092 515.689Z" fill="#A0616A"/>
<path d="M705.892 517.827L728.706 511.62L732.615 525.984L695.436 536.1C694.922 534.214 694.786 532.245 695.033 530.305C695.281 528.366 695.908 526.495 696.879 524.798C697.85 523.101 699.146 521.612 700.692 520.416C702.239 519.22 704.006 518.34 705.892 517.827Z" fill="#1E1E1E"/>
<path d="M625.961 524.716L613.702 524.715L607.869 477.427L625.963 477.428L625.961 524.716Z" fill="#A0616A"/>
<path d="M604.944 521.212H628.588V536.099H590.058C590.058 534.144 590.443 532.208 591.191 530.402C591.939 528.596 593.035 526.955 594.418 525.573C595.8 524.19 597.441 523.094 599.247 522.346C601.054 521.597 602.989 521.212 604.944 521.212Z" fill="#1E1E1E"/>
<path d="M638.878 218.727C652.443 218.727 663.439 207.73 663.439 194.166C663.439 180.601 652.443 169.604 638.878 169.604C625.314 169.604 614.317 180.601 614.317 194.166C614.317 207.73 625.314 218.727 638.878 218.727Z" fill="#A0616A"/>
<path d="M625.211 491H608.457C607.312 490.998 606.21 490.561 605.375 489.776C604.54 488.992 604.035 487.92 603.961 486.777C598.969 407.416 601.889 350.488 613.151 307.624C613.2 307.437 613.261 307.252 613.333 307.072L614.231 304.829C614.562 303.992 615.138 303.275 615.883 302.77C616.629 302.265 617.509 301.997 618.409 302H652.861C653.51 302 654.152 302.14 654.742 302.411C655.331 302.682 655.856 303.078 656.278 303.571L660.957 309.031C661.048 309.138 661.134 309.246 661.216 309.36C682.317 338.786 701.227 396.315 723.128 473.639C723.452 474.762 723.324 475.968 722.771 476.999C722.218 478.029 721.285 478.803 720.17 479.155L702.165 484.917C701.132 485.242 700.015 485.186 699.02 484.758C698.024 484.33 697.215 483.559 696.74 482.585L650.018 385.678C649.691 385.001 649.155 384.446 648.488 384.098C647.822 383.749 647.062 383.624 646.319 383.741C645.576 383.859 644.891 384.212 644.365 384.749C643.838 385.286 643.499 385.979 643.397 386.724L629.669 487.109C629.518 488.186 628.985 489.172 628.166 489.886C627.347 490.601 626.297 490.996 625.211 491Z" fill="#1E1E1E"/>
<path d="M659.068 309.431C659.021 309.431 658.974 309.43 658.927 309.429L617.078 308.108C616.002 308.077 614.973 307.661 614.179 306.936C613.384 306.21 612.877 305.222 612.75 304.153C607.445 261.212 621.994 249.708 628.495 246.756C629.039 246.511 629.509 246.129 629.862 245.649C630.214 245.168 630.437 244.605 630.507 244.013L631.07 239.512C631.166 238.717 631.473 237.962 631.959 237.326C642.153 224.121 656.072 219.893 663.462 218.548C664.061 218.44 664.676 218.455 665.269 218.593C665.863 218.73 666.422 218.986 666.913 219.346C667.404 219.706 667.817 220.163 668.126 220.687C668.436 221.212 668.635 221.794 668.713 222.398L669.556 228.86C669.642 229.477 669.888 230.06 670.269 230.552C691.528 258.344 667.845 299.379 662.881 307.322C662.475 307.967 661.913 308.499 661.246 308.868C660.579 309.236 659.83 309.43 659.068 309.431Z" fill="#CCCCCC"/>
<path d="M688.431 196.931C682.952 189.216 676.381 182.337 668.926 176.51C662.727 171.669 655.828 167.532 648.216 165.554C640.604 163.575 632.197 163.912 625.253 167.603C618.307 171.294 611.127 178.628 611.083 186.492C611.07 189.019 611.712 192.437 614.2 192L614.92 192.096C620.923 190.883 626.925 189.671 632.927 188.459C635.484 197.331 638.04 206.202 640.596 215.074C641.135 216.944 641.858 219.035 643.633 219.833C645.305 220.584 647.238 219.876 648.929 219.17C649.207 219.054 651.597 213.688 651.597 213.688C651.657 213.521 651.761 213.372 651.897 213.258C652.034 213.143 652.198 213.068 652.374 213.038C652.55 213.009 652.73 213.027 652.896 213.09C653.062 213.154 653.209 213.261 653.32 213.4L654.74 215.174C655.011 215.514 655.386 215.755 655.806 215.863C656.227 215.97 656.671 215.938 657.072 215.771C666.86 211.684 676.649 207.598 686.438 203.512C687.79 202.947 689.302 202.21 689.695 200.797C690.071 199.444 689.243 198.076 688.431 196.931Z" fill="#1E1E1E"/>
<path d="M800.953 537H499.953C499.688 537 499.434 536.895 499.246 536.707C499.058 536.52 498.953 536.265 498.953 536C498.953 535.735 499.058 535.48 499.246 535.293C499.434 535.105 499.688 535 499.953 535H800.953C801.218 535 801.473 535.105 801.66 535.293C801.848 535.48 801.953 535.735 801.953 536C801.953 536.265 801.848 536.52 801.66 536.707C801.473 536.895 801.218 537 800.953 537Z" fill="#1E1E1E"/>
<path d="M637.77 381.164C637.09 381.161 636.428 380.942 635.881 380.539L631.329 377.231C630.951 376.956 630.496 376.807 630.028 376.807C629.56 376.807 629.105 376.956 628.727 377.231L624.175 380.539C623.626 380.937 622.965 381.152 622.286 381.152C621.608 381.152 620.947 380.938 620.398 380.539C619.849 380.14 619.44 379.578 619.23 378.932C619.02 378.287 619.02 377.592 619.23 376.946L620.969 371.595C621.114 371.151 621.115 370.672 620.97 370.227C620.826 369.782 620.543 369.395 620.165 369.121L615.613 365.813C615.064 365.414 614.655 364.852 614.445 364.206C614.236 363.561 614.236 362.866 614.445 362.22C614.655 361.575 615.064 361.013 615.613 360.614C616.162 360.215 616.823 360 617.501 360H623.128C623.596 360.001 624.051 359.853 624.43 359.578C624.808 359.304 625.089 358.916 625.233 358.471L626.972 353.12C627.181 352.474 627.59 351.912 628.139 351.513C628.688 351.114 629.349 350.899 630.028 350.899C630.706 350.899 631.368 351.114 631.917 351.513C632.466 351.912 632.874 352.474 633.084 353.12L634.823 358.471C634.966 358.916 635.248 359.304 635.626 359.578C636.004 359.853 636.46 360.001 636.928 360H642.554C643.233 360 643.894 360.215 644.443 360.614C644.992 361.013 645.401 361.575 645.61 362.22C645.82 362.866 645.82 363.561 645.61 364.206C645.401 364.852 644.992 365.414 644.443 365.813L639.891 369.12C639.512 369.394 639.23 369.782 639.086 370.227C638.941 370.671 638.942 371.151 639.087 371.595L640.826 376.946C641.043 377.591 641.047 378.289 640.837 378.936C640.626 379.583 640.213 380.145 639.658 380.539C639.111 380.942 638.45 381.161 637.77 381.164Z" fill="#FFD858"/>
<path d="M655.165 370.466C656.451 369.564 657.524 368.391 658.307 367.03C659.091 365.669 659.566 364.153 659.7 362.588C659.834 361.023 659.624 359.448 659.083 357.974C658.543 356.499 657.686 355.161 656.572 354.053L664.345 260.182L641.201 263.366L640.761 354.571C639.024 356.565 638.08 359.126 638.106 361.77C638.132 364.414 639.127 366.957 640.903 368.916C642.678 370.876 645.111 372.116 647.74 372.401C650.368 372.687 653.011 371.998 655.165 370.466Z" fill="#A0616A"/>
<path d="M665.857 273.699C665.423 273.699 664.992 273.637 664.576 273.514L639.73 266.206C639.133 266.031 638.579 265.733 638.102 265.332C637.626 264.932 637.238 264.436 636.963 263.878C636.688 263.319 636.532 262.71 636.504 262.088C636.477 261.466 636.579 260.845 636.804 260.265L645.998 236.511C646.382 235.508 647.113 234.676 648.059 234.167C649.005 233.658 650.103 233.506 651.151 233.739L667.566 237.308C668.59 237.531 669.505 238.105 670.152 238.93C670.798 239.756 671.137 240.781 671.108 241.829L670.344 269.321C670.312 270.491 669.825 271.602 668.987 272.419C668.15 273.237 667.027 273.696 665.857 273.699Z" fill="#CCCCCC"/>
<path d="M432 391H7C5.14412 390.998 3.36485 390.26 2.05255 388.947C0.740248 387.635 0.00208302 385.856 0 384V257C0.00208302 255.144 0.740248 253.365 2.05255 252.053C3.36485 250.74 5.14412 250.002 7 250H432C433.856 250.002 435.635 250.74 436.948 252.053C438.26 253.365 438.998 255.144 439 257V384C438.998 385.856 438.26 387.635 436.948 388.947C435.635 390.26 433.856 390.998 432 391ZM7 252C5.67439 252.002 4.40352 252.529 3.46617 253.466C2.52882 254.404 2.00154 255.674 2 257V384C2.00154 385.326 2.52882 386.596 3.46617 387.534C4.40352 388.471 5.67439 388.998 7 389H432C433.326 388.998 434.597 388.471 435.534 387.534C436.471 386.597 436.999 385.326 437 384V257C436.999 255.674 436.471 254.403 435.534 253.466C434.597 252.529 433.326 252.002 432 252H7Z" fill="#1E1E1E"/>
<path d="M192.975 444.475C192.142 444.472 191.332 444.204 190.661 443.709L185.085 439.658C184.622 439.32 184.064 439.138 183.491 439.138C182.918 439.138 182.36 439.32 181.897 439.658L176.321 443.709C175.648 444.198 174.839 444.461 174.007 444.461C173.176 444.461 172.366 444.198 171.693 443.709C171.021 443.221 170.52 442.532 170.263 441.741C170.006 440.951 170.006 440.099 170.263 439.308L172.393 432.753C172.571 432.208 172.572 431.621 172.395 431.076C172.218 430.531 171.872 430.057 171.408 429.721L165.832 425.669C165.159 425.181 164.659 424.492 164.402 423.701C164.145 422.911 164.145 422.059 164.402 421.268C164.659 420.478 165.159 419.789 165.832 419.3C166.504 418.811 167.314 418.548 168.145 418.548H175.038C175.611 418.549 176.17 418.368 176.633 418.032C177.097 417.695 177.441 417.22 177.617 416.675L179.747 410.119C180.004 409.329 180.504 408.64 181.177 408.151C181.85 407.662 182.66 407.399 183.491 407.399C184.322 407.399 185.132 407.662 185.805 408.151C186.478 408.64 186.978 409.329 187.235 410.119L189.365 416.675C189.541 417.22 189.886 417.695 190.349 418.032C190.812 418.368 191.371 418.549 191.944 418.548H198.837C199.668 418.548 200.478 418.811 201.15 419.3C201.823 419.789 202.323 420.478 202.58 421.268C202.837 422.059 202.837 422.911 202.58 423.701C202.323 424.492 201.823 425.181 201.15 425.669L195.574 429.721C195.11 430.057 194.764 430.531 194.587 431.076C194.41 431.621 194.411 432.208 194.589 432.753L196.719 439.308C196.985 440.098 196.99 440.953 196.732 441.745C196.475 442.538 195.969 443.227 195.289 443.709C194.619 444.203 193.808 444.472 192.975 444.475Z" fill="#FFD858"/>
<path d="M249.484 444.475C248.651 444.472 247.84 444.204 247.17 443.709L241.593 439.658C241.131 439.32 240.572 439.138 240 439.138C239.427 439.138 238.869 439.32 238.406 439.658L232.829 443.709C232.157 444.198 231.347 444.461 230.516 444.461C229.684 444.461 228.874 444.198 228.202 443.709C227.529 443.221 227.029 442.532 226.772 441.741C226.515 440.951 226.515 440.099 226.771 439.308L228.902 432.753C229.08 432.208 229.08 431.621 228.903 431.076C228.726 430.531 228.381 430.057 227.917 429.721L222.34 425.669C221.668 425.181 221.167 424.492 220.91 423.701C220.654 422.91 220.654 422.059 220.91 421.268C221.167 420.478 221.668 419.789 222.34 419.3C223.013 418.811 223.823 418.548 224.654 418.548H231.547C232.12 418.549 232.678 418.368 233.142 418.032C233.605 417.695 233.95 417.22 234.126 416.675L236.256 410.119C236.513 409.329 237.013 408.64 237.686 408.151C238.358 407.662 239.168 407.399 240 407.399C240.831 407.399 241.641 407.662 242.314 408.151C242.986 408.64 243.487 409.329 243.744 410.119L245.873 416.675C246.05 417.22 246.394 417.695 246.858 418.032C247.321 418.368 247.88 418.549 248.452 418.548H255.345C256.176 418.548 256.986 418.811 257.659 419.3C258.331 419.789 258.832 420.478 259.089 421.268C259.346 422.059 259.346 422.91 259.089 423.701C258.832 424.492 258.332 425.181 257.659 425.669L252.083 429.721C251.618 430.057 251.273 430.531 251.096 431.076C250.919 431.621 250.919 432.208 251.097 432.753L253.228 439.308C253.494 440.098 253.499 440.953 253.241 441.745C252.983 442.538 252.477 443.227 251.797 443.709C251.127 444.203 250.317 444.472 249.484 444.475Z" fill="#FFD858"/>
<path d="M305.991 444.475C305.158 444.472 304.348 444.203 303.678 443.709L298.101 439.658C297.638 439.321 297.08 439.139 296.508 439.139C295.935 439.139 295.377 439.321 294.914 439.658L289.337 443.709C288.665 444.198 287.855 444.461 287.024 444.461C286.192 444.461 285.382 444.198 284.71 443.709C284.037 443.221 283.537 442.532 283.28 441.741C283.023 440.95 283.023 440.099 283.28 439.308L285.409 432.753C285.587 432.208 285.588 431.621 285.411 431.076C285.234 430.531 284.889 430.057 284.424 429.721L278.848 425.669C278.176 425.181 277.675 424.492 277.418 423.701C277.161 422.91 277.161 422.059 277.418 421.268C277.675 420.478 278.176 419.789 278.848 419.3C279.521 418.811 280.331 418.548 281.162 418.548H288.055C288.628 418.549 289.186 418.368 289.649 418.032C290.113 417.695 290.457 417.22 290.633 416.675L292.764 410.119C293.02 409.329 293.521 408.64 294.194 408.151C294.866 407.662 295.676 407.399 296.508 407.399C297.339 407.399 298.149 407.662 298.821 408.151C299.494 408.64 299.995 409.329 300.251 410.119L302.381 416.675C302.558 417.22 302.902 417.695 303.366 418.032C303.829 418.368 304.387 418.549 304.96 418.548H311.853C312.684 418.548 313.494 418.811 314.167 419.3C314.839 419.789 315.34 420.478 315.597 421.268C315.854 422.059 315.854 422.91 315.597 423.701C315.34 424.492 314.839 425.181 314.167 425.669L308.59 429.721C308.126 430.057 307.781 430.531 307.604 431.076C307.427 431.621 307.428 432.208 307.606 432.753L309.735 439.308C310.002 440.098 310.006 440.953 309.749 441.745C309.491 442.538 308.985 443.227 308.305 443.709C307.635 444.203 306.825 444.472 305.991 444.475Z" fill="#FFD858"/>
<path d="M362.501 444.475C361.668 444.472 360.857 444.203 360.187 443.709L354.61 439.658C354.148 439.32 353.589 439.138 353.017 439.138C352.444 439.138 351.886 439.32 351.423 439.658L345.846 443.709C345.174 444.198 344.364 444.461 343.533 444.461C342.701 444.461 341.891 444.198 341.219 443.709C340.546 443.221 340.046 442.532 339.789 441.741C339.532 440.95 339.532 440.099 339.788 439.308L341.918 432.753C342.097 432.208 342.097 431.621 341.92 431.076C341.743 430.532 341.398 430.057 340.933 429.721L335.357 425.669C334.684 425.181 334.184 424.492 333.927 423.701C333.67 422.91 333.67 422.059 333.927 421.268C334.184 420.478 334.685 419.789 335.357 419.3C336.03 418.811 336.84 418.548 337.671 418.548H344.564C345.136 418.549 345.695 418.368 346.158 418.032C346.622 417.695 346.966 417.22 347.143 416.675L349.272 410.119C349.529 409.329 350.03 408.64 350.702 408.151C351.375 407.662 352.185 407.399 353.016 407.399C353.848 407.399 354.658 407.662 355.33 408.151C356.003 408.64 356.503 409.329 356.76 410.119L358.89 416.675C359.066 417.22 359.411 417.695 359.874 418.032C360.338 418.368 360.896 418.549 361.469 418.548H368.362C369.193 418.548 370.003 418.811 370.676 419.3C371.348 419.789 371.849 420.478 372.105 421.268C372.362 422.059 372.362 422.91 372.106 423.701C371.849 424.492 371.348 425.181 370.676 425.669L365.099 429.721C364.635 430.057 364.29 430.531 364.113 431.076C363.936 431.621 363.936 432.208 364.114 432.753L366.244 439.308C366.511 440.098 366.515 440.953 366.258 441.745C366 442.538 365.494 443.227 364.814 443.709C364.144 444.203 363.334 444.472 362.501 444.475Z" fill="#FFD858"/>
<path d="M400.041 444.864C399.126 444.86 398.236 444.566 397.5 444.023C396.753 443.493 396.197 442.736 395.914 441.866C395.631 440.995 395.636 440.056 395.929 439.188L398.059 432.633C398.211 432.166 398.212 431.663 398.06 431.196C397.908 430.729 397.612 430.323 397.215 430.035L391.638 425.983C390.899 425.446 390.349 424.689 390.067 423.821C389.785 422.952 389.785 422.017 390.067 421.148C390.349 420.28 390.899 419.523 391.638 418.986C392.377 418.45 393.267 418.161 394.18 418.161H401.073C401.564 418.162 402.042 418.007 402.439 417.718C402.837 417.429 403.132 417.022 403.283 416.555L405.413 410C405.695 409.131 406.245 408.374 406.984 407.838C407.723 407.301 408.612 407.012 409.525 407.012C410.439 407.012 411.328 407.301 412.067 407.838C412.806 408.374 413.356 409.131 413.638 410L415.768 416.555C415.919 417.022 416.214 417.429 416.611 417.718C417.008 418.007 417.487 418.162 417.978 418.161H424.871C425.784 418.161 426.674 418.45 427.412 418.987C428.151 419.523 428.701 420.28 428.983 421.148C429.265 422.017 429.265 422.952 428.983 423.821C428.701 424.689 428.151 425.446 427.412 425.983L421.836 430.035C421.438 430.322 421.142 430.729 420.99 431.196C420.838 431.663 420.839 432.166 420.992 432.633L423.122 439.188C423.404 440.056 423.404 440.992 423.122 441.86C422.839 442.729 422.289 443.486 421.551 444.022C420.812 444.559 419.922 444.848 419.009 444.848C418.096 444.848 417.206 444.559 416.467 444.022L410.891 439.971C410.494 439.682 410.016 439.526 409.525 439.526C409.034 439.526 408.556 439.682 408.159 439.971L402.583 444.022C401.846 444.566 400.956 444.86 400.041 444.864ZM409.525 437.525C410.439 437.525 411.328 437.815 412.066 438.353L417.643 442.404C418.04 442.693 418.518 442.848 419.009 442.849C419.5 442.849 419.978 442.693 420.375 442.405C420.772 442.116 421.068 441.709 421.219 441.243C421.371 440.776 421.371 440.273 421.219 439.806L419.089 433.251C418.805 432.383 418.805 431.447 419.087 430.578C419.369 429.709 419.92 428.952 420.66 428.417L426.237 424.365C426.634 424.076 426.929 423.67 427.081 423.203C427.232 422.736 427.232 422.233 427.081 421.767C426.929 421.3 426.634 420.893 426.237 420.605C425.84 420.316 425.361 420.161 424.871 420.161H417.978C417.064 420.162 416.174 419.874 415.435 419.337C414.696 418.8 414.146 418.042 413.865 417.173L411.735 410.618C411.584 410.151 411.288 409.744 410.891 409.456C410.494 409.167 410.016 409.012 409.525 409.012C409.034 409.012 408.556 409.167 408.159 409.456C407.762 409.744 407.466 410.151 407.315 410.618L405.185 417.173C404.904 418.042 404.355 418.8 403.615 419.337C402.876 419.874 401.986 420.162 401.073 420.161H394.18C393.689 420.161 393.211 420.316 392.814 420.604C392.417 420.893 392.121 421.3 391.969 421.766C391.818 422.233 391.818 422.736 391.969 423.203C392.121 423.67 392.416 424.076 392.813 424.365L398.39 428.417C399.13 428.952 399.681 429.709 399.963 430.578C400.246 431.447 400.245 432.383 399.961 433.251L397.831 439.806C397.679 440.273 397.679 440.776 397.831 441.243C397.982 441.709 398.278 442.116 398.675 442.405C399.072 442.693 399.55 442.848 400.041 442.848C400.532 442.848 401.01 442.693 401.407 442.404L406.984 438.353C407.722 437.815 408.612 437.525 409.525 437.525Z" fill="#1E1E1E"/>
<path d="M55 280C53.2761 280 51.6228 280.685 50.4038 281.904C49.1848 283.123 48.5 284.776 48.5 286.5C48.5 288.224 49.1848 289.877 50.4038 291.096C51.6228 292.315 53.2761 293 55 293H384C385.724 293 387.377 292.315 388.596 291.096C389.815 289.877 390.5 288.224 390.5 286.5C390.5 284.776 389.815 283.123 388.596 281.904C387.377 280.685 385.724 280 384 280H55Z" fill="#CCCCCC"/>
<path d="M55 314C53.2761 314 51.6228 314.685 50.4038 315.904C49.1848 317.123 48.5 318.776 48.5 320.5C48.5 322.224 49.1848 323.877 50.4038 325.096C51.6228 326.315 53.2761 327 55 327H384C385.724 327 387.377 326.315 388.596 325.096C389.815 323.877 390.5 322.224 390.5 320.5C390.5 318.776 389.815 317.123 388.596 315.904C387.377 314.685 385.724 314 384 314H55Z" fill="#CCCCCC"/>
<path d="M55 348C53.2761 348 51.6228 348.685 50.4038 349.904C49.1848 351.123 48.5 352.776 48.5 354.5C48.5 356.224 49.1848 357.877 50.4038 359.096C51.6228 360.315 53.2761 361 55 361H384C385.724 361 387.377 360.315 388.596 359.096C389.815 357.877 390.5 356.224 390.5 354.5C390.5 352.776 389.815 351.123 388.596 349.904C387.377 348.685 385.724 348 384 348H55Z" fill="#CCCCCC"/>
<path d="M55 280C53.2761 280 51.6228 280.685 50.4038 281.904C49.1848 283.123 48.5 284.776 48.5 286.5C48.5 288.224 49.1848 289.877 50.4038 291.096C51.6228 292.315 53.2761 293 55 293H384C385.724 293 387.377 292.315 388.596 291.096C389.815 289.877 390.5 288.224 390.5 286.5C390.5 284.776 389.815 283.123 388.596 281.904C387.377 280.685 385.724 280 384 280H55Z" fill="#CCCCCC"/>
<path d="M55 314C53.2761 314 51.6228 314.685 50.4038 315.904C49.1848 317.123 48.5 318.776 48.5 320.5C48.5 322.224 49.1848 323.877 50.4038 325.096C51.6228 326.315 53.2761 327 55 327H384C385.724 327 387.377 326.315 388.596 325.096C389.815 323.877 390.5 322.224 390.5 320.5C390.5 318.776 389.815 317.123 388.596 315.904C387.377 314.685 385.724 314 384 314H55Z" fill="#CCCCCC"/>
<path d="M55 348C53.2761 348 51.6228 348.685 50.4038 349.904C49.1848 351.123 48.5 352.776 48.5 354.5C48.5 356.224 49.1848 357.877 50.4038 359.096C51.6228 360.315 53.2761 361 55 361H384C385.724 361 387.377 360.315 388.596 359.096C389.815 357.877 390.5 356.224 390.5 354.5C390.5 352.776 389.815 351.123 388.596 349.904C387.377 348.685 385.724 348 384 348H55Z" fill="#CCCCCC"/>
<path d="M432 141H7C5.14412 140.998 3.36485 140.26 2.05255 138.947C0.740248 137.635 0.00208302 135.856 0 134V7C0.00208302 5.14412 0.740248 3.36485 2.05255 2.05255C3.36485 0.740248 5.14412 0.00208302 7 0H432C433.856 0.00208038 435.635 0.740247 436.948 2.05255C438.26 3.36486 438.998 5.14412 439 7V134C438.998 135.856 438.26 137.635 436.948 138.947C435.635 140.26 433.856 140.998 432 141ZM7 2C5.67439 2.00154 4.40352 2.52881 3.46617 3.46616C2.52882 4.40351 2.00154 5.67439 2 7V134C2.00154 135.326 2.52882 136.596 3.46617 137.534C4.40352 138.471 5.67439 138.998 7 139H432C433.326 138.998 434.597 138.471 435.534 137.534C436.471 136.597 436.999 135.326 437 134V7C436.999 5.67438 436.471 4.40349 435.534 3.46614C434.597 2.52879 433.326 2.00151 432 2H7Z" fill="#1E1E1E"/>
<path d="M192.975 194.475C192.142 194.472 191.332 194.204 190.661 193.709L185.085 189.658C184.622 189.32 184.064 189.138 183.491 189.138C182.918 189.138 182.36 189.32 181.897 189.658L176.321 193.709C175.648 194.198 174.839 194.461 174.007 194.461C173.176 194.461 172.366 194.198 171.693 193.709C171.021 193.221 170.52 192.532 170.263 191.741C170.006 190.951 170.006 190.099 170.263 189.308L172.393 182.753C172.571 182.208 172.572 181.621 172.395 181.076C172.218 180.531 171.872 180.057 171.408 179.721L165.832 175.669C165.159 175.181 164.659 174.492 164.402 173.701C164.145 172.911 164.145 172.059 164.402 171.268C164.659 170.478 165.159 169.789 165.832 169.3C166.504 168.811 167.314 168.548 168.145 168.548H175.038C175.611 168.549 176.17 168.368 176.633 168.032C177.097 167.695 177.441 167.22 177.617 166.675L179.747 160.119C180.004 159.329 180.504 158.64 181.177 158.151C181.85 157.662 182.66 157.399 183.491 157.399C184.322 157.399 185.132 157.662 185.805 158.151C186.478 158.64 186.978 159.329 187.235 160.119L189.365 166.675C189.541 167.22 189.886 167.695 190.349 168.032C190.812 168.368 191.371 168.549 191.944 168.548H198.837C199.668 168.548 200.478 168.811 201.15 169.3C201.823 169.789 202.323 170.478 202.58 171.268C202.837 172.059 202.837 172.911 202.58 173.701C202.323 174.492 201.823 175.181 201.15 175.669L195.574 179.721C195.11 180.057 194.764 180.531 194.587 181.076C194.41 181.621 194.411 182.208 194.589 182.753L196.719 189.308C196.985 190.098 196.99 190.953 196.732 191.745C196.475 192.538 195.969 193.227 195.289 193.709C194.619 194.203 193.808 194.472 192.975 194.475Z" fill="#FFD858"/>
<path d="M249.484 194.475C248.651 194.472 247.84 194.204 247.17 193.709L241.593 189.658C241.131 189.32 240.572 189.138 240 189.138C239.427 189.138 238.869 189.32 238.406 189.658L232.829 193.709C232.157 194.198 231.347 194.461 230.516 194.461C229.684 194.461 228.874 194.198 228.202 193.709C227.529 193.221 227.029 192.532 226.772 191.741C226.515 190.951 226.515 190.099 226.771 189.308L228.902 182.753C229.08 182.208 229.08 181.621 228.903 181.076C228.726 180.531 228.381 180.057 227.917 179.721L222.34 175.669C221.668 175.181 221.167 174.492 220.91 173.701C220.654 172.91 220.654 172.059 220.91 171.268C221.167 170.478 221.668 169.789 222.34 169.3C223.013 168.811 223.823 168.548 224.654 168.548H231.547C232.12 168.549 232.678 168.368 233.142 168.032C233.605 167.695 233.95 167.22 234.126 166.675L236.256 160.119C236.513 159.329 237.013 158.64 237.686 158.151C238.358 157.662 239.168 157.399 240 157.399C240.831 157.399 241.641 157.662 242.314 158.151C242.986 158.64 243.487 159.329 243.744 160.119L245.873 166.675C246.05 167.22 246.394 167.695 246.858 168.032C247.321 168.368 247.88 168.549 248.452 168.548H255.345C256.176 168.548 256.986 168.811 257.659 169.3C258.331 169.789 258.832 170.478 259.089 171.268C259.346 172.059 259.346 172.91 259.089 173.701C258.832 174.492 258.332 175.181 257.659 175.669L252.083 179.721C251.618 180.057 251.273 180.531 251.096 181.076C250.919 181.621 250.919 182.208 251.097 182.753L253.228 189.308C253.494 190.098 253.499 190.953 253.241 191.745C252.983 192.538 252.477 193.227 251.797 193.709C251.127 194.203 250.317 194.472 249.484 194.475Z" fill="#FFD858"/>
<path d="M305.991 194.475C305.158 194.472 304.348 194.203 303.678 193.709L298.101 189.658C297.638 189.321 297.08 189.139 296.508 189.139C295.935 189.139 295.377 189.321 294.914 189.658L289.337 193.709C288.665 194.198 287.855 194.461 287.024 194.461C286.192 194.461 285.382 194.198 284.71 193.709C284.037 193.221 283.537 192.532 283.28 191.741C283.023 190.95 283.023 190.099 283.28 189.308L285.409 182.753C285.587 182.208 285.588 181.621 285.411 181.076C285.234 180.531 284.889 180.057 284.424 179.721L278.848 175.669C278.176 175.181 277.675 174.492 277.418 173.701C277.161 172.91 277.161 172.059 277.418 171.268C277.675 170.478 278.176 169.789 278.848 169.3C279.521 168.811 280.331 168.548 281.162 168.548H288.055C288.628 168.549 289.186 168.368 289.649 168.032C290.113 167.695 290.457 167.22 290.633 166.675L292.764 160.119C293.02 159.329 293.521 158.64 294.194 158.151C294.866 157.662 295.676 157.399 296.508 157.399C297.339 157.399 298.149 157.662 298.821 158.151C299.494 158.64 299.995 159.329 300.251 160.119L302.381 166.675C302.558 167.22 302.902 167.695 303.366 168.032C303.829 168.368 304.387 168.549 304.96 168.548H311.853C312.684 168.548 313.494 168.811 314.167 169.3C314.839 169.789 315.34 170.478 315.597 171.268C315.854 172.059 315.854 172.91 315.597 173.701C315.34 174.492 314.839 175.181 314.167 175.669L308.59 179.721C308.126 180.057 307.781 180.531 307.604 181.076C307.427 181.621 307.428 182.208 307.606 182.753L309.735 189.308C310.002 190.098 310.006 190.953 309.749 191.745C309.491 192.538 308.985 193.227 308.305 193.709C307.635 194.203 306.825 194.472 305.991 194.475Z" fill="#FFD858"/>
<path d="M400.041 194.864C399.126 194.86 398.236 194.566 397.5 194.023C396.753 193.493 396.197 192.736 395.914 191.866C395.631 190.995 395.636 190.056 395.929 189.188L398.059 182.633C398.211 182.166 398.212 181.663 398.06 181.196C397.908 180.729 397.612 180.323 397.215 180.035L391.638 175.983C390.899 175.446 390.349 174.689 390.067 173.821C389.785 172.952 389.785 172.017 390.067 171.148C390.349 170.28 390.899 169.523 391.638 168.986C392.377 168.45 393.267 168.161 394.18 168.161H401.073C401.564 168.162 402.042 168.007 402.439 167.718C402.837 167.429 403.132 167.022 403.283 166.555L405.413 160C405.695 159.131 406.245 158.374 406.984 157.838C407.723 157.301 408.612 157.012 409.525 157.012C410.439 157.012 411.328 157.301 412.067 157.838C412.806 158.374 413.356 159.131 413.638 160L415.768 166.555C415.919 167.022 416.214 167.429 416.611 167.718C417.008 168.007 417.487 168.162 417.978 168.161H424.871C425.784 168.161 426.674 168.45 427.412 168.987C428.151 169.523 428.701 170.28 428.983 171.149C429.265 172.017 429.265 172.952 428.983 173.821C428.701 174.689 428.151 175.446 427.412 175.983L421.836 180.035C421.438 180.322 421.142 180.729 420.99 181.196C420.838 181.663 420.839 182.166 420.992 182.633L423.122 189.188C423.404 190.057 423.404 190.992 423.122 191.86C422.839 192.729 422.289 193.486 421.551 194.022C420.812 194.559 419.922 194.848 419.009 194.848C418.096 194.848 417.206 194.559 416.467 194.023L410.891 189.971C410.494 189.682 410.016 189.526 409.525 189.526C409.034 189.526 408.556 189.682 408.159 189.971L402.583 194.023C401.846 194.566 400.956 194.86 400.041 194.864ZM409.525 187.525C410.439 187.525 411.328 187.815 412.066 188.353L417.643 192.404C418.04 192.693 418.518 192.848 419.009 192.849C419.5 192.849 419.978 192.693 420.375 192.405C420.772 192.116 421.068 191.71 421.219 191.243C421.371 190.776 421.371 190.273 421.219 189.806L419.089 183.251C418.805 182.383 418.805 181.447 419.087 180.578C419.369 179.709 419.92 178.952 420.66 178.417L426.237 174.365C426.634 174.076 426.929 173.67 427.081 173.203C427.232 172.736 427.232 172.233 427.081 171.767C426.929 171.3 426.634 170.893 426.237 170.605C425.84 170.316 425.361 170.161 424.871 170.161H417.978C417.064 170.162 416.174 169.874 415.435 169.337C414.696 168.8 414.146 168.042 413.865 167.173L411.735 160.618C411.584 160.151 411.288 159.744 410.891 159.456C410.494 159.167 410.016 159.012 409.525 159.012C409.034 159.012 408.556 159.167 408.159 159.456C407.762 159.744 407.466 160.151 407.315 160.618L405.185 167.173C404.904 168.042 404.355 168.8 403.615 169.337C402.876 169.874 401.986 170.162 401.073 170.161H394.18C393.689 170.161 393.211 170.316 392.814 170.604C392.417 170.893 392.121 171.3 391.969 171.766C391.818 172.233 391.818 172.736 391.969 173.203C392.121 173.67 392.416 174.076 392.813 174.365L398.39 178.417C399.13 178.952 399.681 179.709 399.963 180.578C400.246 181.447 400.245 182.383 399.961 183.251L397.831 189.806C397.679 190.273 397.679 190.776 397.831 191.243C397.982 191.709 398.278 192.116 398.675 192.405C399.072 192.693 399.55 192.848 400.041 192.848C400.532 192.848 401.01 192.693 401.407 192.404L406.984 188.353C407.722 187.815 408.612 187.525 409.525 187.525Z" fill="#1E1E1E"/>
<path d="M343.041 194.703C342.126 194.699 341.236 194.405 340.5 193.862C339.753 193.332 339.197 192.576 338.914 191.705C338.631 190.834 338.636 189.895 338.928 189.027L341.059 182.472C341.211 182.005 341.212 181.502 341.06 181.036C340.908 180.569 340.612 180.162 340.215 179.874L334.638 175.822C333.899 175.286 333.349 174.529 333.067 173.66C332.785 172.792 332.785 171.856 333.067 170.988C333.349 170.119 333.899 169.362 334.638 168.826C335.377 168.289 336.267 168 337.18 168H344.073C344.564 168.001 345.042 167.846 345.439 167.557C345.836 167.269 346.132 166.861 346.283 166.394L348.413 159.839C348.695 158.97 349.245 158.214 349.984 157.677C350.722 157.14 351.612 156.851 352.525 156.851C353.438 156.851 354.328 157.14 355.067 157.677C355.806 158.214 356.356 158.97 356.638 159.839L358.768 166.394C358.918 166.861 359.214 167.269 359.611 167.557C360.008 167.846 360.487 168.001 360.978 168H367.871C368.784 168 369.673 168.289 370.412 168.826C371.151 169.363 371.701 170.119 371.983 170.988C372.265 171.856 372.265 172.792 371.983 173.66C371.701 174.529 371.151 175.286 370.412 175.822L364.836 179.874C364.438 180.162 364.142 180.569 363.99 181.035C363.838 181.502 363.839 182.006 363.992 182.472L366.122 189.027C366.404 189.896 366.404 190.831 366.122 191.7C365.839 192.568 365.289 193.325 364.551 193.862C363.812 194.399 362.922 194.688 362.009 194.688C361.096 194.688 360.206 194.399 359.467 193.862L353.891 189.811C353.494 189.521 353.016 189.365 352.525 189.365C352.034 189.365 351.556 189.521 351.159 189.811L345.583 193.862C344.846 194.405 343.956 194.7 343.041 194.703ZM352.525 187.364C353.439 187.364 354.328 187.654 355.066 188.192L360.643 192.244C361.04 192.532 361.518 192.688 362.009 192.688C362.5 192.688 362.978 192.533 363.375 192.244C363.772 191.956 364.068 191.549 364.219 191.082C364.371 190.615 364.371 190.112 364.219 189.646L362.089 183.09C361.805 182.222 361.805 181.286 362.087 180.417C362.369 179.548 362.92 178.791 363.66 178.256L369.237 174.204C369.634 173.916 369.929 173.509 370.081 173.042C370.232 172.575 370.232 172.073 370.081 171.606C369.929 171.139 369.633 170.732 369.236 170.444C368.839 170.155 368.361 170 367.871 170H360.978C360.064 170.002 359.174 169.713 358.435 169.176C357.696 168.639 357.146 167.882 356.865 167.012L354.735 160.457C354.584 159.99 354.288 159.583 353.891 159.295C353.494 159.006 353.016 158.851 352.525 158.851C352.034 158.851 351.556 159.006 351.159 159.295C350.762 159.583 350.466 159.99 350.315 160.457L348.185 167.012C347.904 167.882 347.354 168.639 346.615 169.176C345.876 169.713 344.986 170.002 344.073 170H337.18C336.689 170 336.211 170.155 335.814 170.444C335.417 170.732 335.121 171.139 334.969 171.606C334.818 172.073 334.818 172.575 334.969 173.042C335.121 173.509 335.416 173.916 335.813 174.204L341.39 178.256C342.13 178.792 342.681 179.548 342.963 180.417C343.246 181.286 343.245 182.222 342.961 183.09L340.831 189.646C340.679 190.112 340.679 190.615 340.831 191.082C340.982 191.549 341.278 191.955 341.675 192.244C342.072 192.532 342.55 192.688 343.041 192.688C343.532 192.688 344.01 192.532 344.407 192.244L349.984 188.192C350.722 187.654 351.612 187.364 352.525 187.364Z" fill="#1E1E1E"/>
<path d="M55 30C53.2761 30 51.6228 30.6848 50.4038 31.9038C49.1848 33.1228 48.5 34.7761 48.5 36.5C48.5 38.2239 49.1848 39.8772 50.4038 41.0962C51.6228 42.3152 53.2761 43 55 43H384C385.724 43 387.377 42.3152 388.596 41.0962C389.815 39.8772 390.5 38.2239 390.5 36.5C390.5 34.7761 389.815 33.1228 388.596 31.9038C387.377 30.6848 385.724 30 384 30H55Z" fill="#CCCCCC"/>
<path d="M55 64C53.2761 64 51.6228 64.6848 50.4038 65.9038C49.1848 67.1228 48.5 68.7761 48.5 70.5C48.5 72.2239 49.1848 73.8772 50.4038 75.0962C51.6228 76.3152 53.2761 77 55 77H384C385.724 77 387.377 76.3152 388.596 75.0962C389.815 73.8772 390.5 72.2239 390.5 70.5C390.5 68.7761 389.815 67.1228 388.596 65.9038C387.377 64.6848 385.724 64 384 64H55Z" fill="#CCCCCC"/>
<path d="M55 98C53.2761 98 51.6228 98.6848 50.4038 99.9038C49.1848 101.123 48.5 102.776 48.5 104.5C48.5 106.224 49.1848 107.877 50.4038 109.096C51.6228 110.315 53.2761 111 55 111H384C385.724 111 387.377 110.315 388.596 109.096C389.815 107.877 390.5 106.224 390.5 104.5C390.5 102.776 389.815 101.123 388.596 99.9038C387.377 98.6848 385.724 98 384 98H55Z" fill="#CCCCCC"/>
<path d="M55 30C53.2761 30 51.6228 30.6848 50.4038 31.9038C49.1848 33.1228 48.5 34.7761 48.5 36.5C48.5 38.2239 49.1848 39.8772 50.4038 41.0962C51.6228 42.3152 53.2761 43 55 43H384C385.724 43 387.377 42.3152 388.596 41.0962C389.815 39.8772 390.5 38.2239 390.5 36.5C390.5 34.7761 389.815 33.1228 388.596 31.9038C387.377 30.6848 385.724 30 384 30H55Z" fill="#CCCCCC"/>
<path d="M55 64C53.2761 64 51.6228 64.6848 50.4038 65.9038C49.1848 67.1228 48.5 68.7761 48.5 70.5C48.5 72.2239 49.1848 73.8772 50.4038 75.0962C51.6228 76.3152 53.2761 77 55 77H384C385.724 77 387.377 76.3152 388.596 75.0962C389.815 73.8772 390.5 72.2239 390.5 70.5C390.5 68.7761 389.815 67.1228 388.596 65.9038C387.377 64.6848 385.724 64 384 64H55Z" fill="#CCCCCC"/>
<path d="M55 98C53.2761 98 51.6228 98.6848 50.4038 99.9038C49.1848 101.123 48.5 102.776 48.5 104.5C48.5 106.224 49.1848 107.877 50.4038 109.096C51.6228 110.315 53.2761 111 55 111H384C385.724 111 387.377 110.315 388.596 109.096C389.815 107.877 390.5 106.224 390.5 104.5C390.5 102.776 389.815 101.123 388.596 99.9038C387.377 98.6848 385.724 98 384 98H55Z" fill="#CCCCCC"/>
</g>
<defs>
<clipPath id="clip0_83_267">
<rect width="801.953" height="537" fill="white"/>
</clipPath>
</defs>
</svg>
