<svg width="677" height="607" viewBox="0 0 677 607" fill="none" xmlns="http://www.w3.org/2000/svg">
<g clip-path="url(#clip0_80_79)">
<path d="M471.374 601.374C462.382 593.776 456.92 581.772 458.352 570.087C459.785 558.401 468.657 547.658 480.165 545.177C491.674 542.695 504.793 549.564 508.289 560.807C510.212 539.132 512.429 516.549 523.953 498.092C534.387 481.378 552.459 469.42 572.046 467.28C591.632 465.141 612.254 473.221 624.469 488.68C636.685 504.14 639.676 526.614 631.12 544.363C624.818 557.438 613.207 567.168 601.041 575.084C561.729 600.449 514.58 610.763 468.269 604.13" fill="#F2F2F2"/>
<path d="M605.101 473.669C588.94 486.833 574.114 501.555 560.837 517.624C540.059 542.684 523.245 570.782 510.981 600.938C510.084 603.138 513.656 604.095 514.544 601.92C534.609 552.91 566.643 509.714 607.713 476.282C609.558 474.78 606.93 472.18 605.101 473.669Z" fill="white"/>
<path d="M332.99 102H17.0098C30.9578 71.8414 53.2464 46.305 81.2425 28.4077C109.238 10.5104 141.772 1 175 1C208.228 1 240.762 10.5104 268.758 28.4077C296.754 46.305 319.042 71.8414 332.99 102Z" fill="#E6E6E6"/>
<path d="M315.641 254.23L328.9 247.746C330.33 247.047 331.978 246.945 333.483 247.461C334.989 247.978 336.227 249.071 336.926 250.501L387.719 354.382C389.278 357.57 389.507 361.247 388.355 364.603C387.203 367.959 384.765 370.721 381.577 372.279C378.389 373.838 374.712 374.067 371.356 372.915C368 371.763 365.238 369.325 363.68 366.137L312.886 262.255C312.187 260.826 312.085 259.177 312.601 257.672C313.118 256.167 314.211 254.929 315.641 254.23Z" fill="#FFD858"/>
<path d="M366.329 282.027C366.823 278.637 363.507 275.656 360.111 275.207C356.715 274.758 353.367 276.108 350.207 277.431C344.594 279.782 338.889 282.187 334.201 286.069C329.514 289.951 325.908 295.598 325.945 301.684C325.98 307.476 329.201 312.706 332.315 317.59L361.529 363.401C364.619 368.247 368.115 373.422 373.561 375.26C377.193 376.323 381.075 376.16 384.605 374.795C389.932 372.812 394.487 369.178 397.604 364.424C400.72 359.67 402.236 354.044 401.93 348.367C400.93 335.247 390.515 325.183 382.718 314.584C375.001 304.077 369.479 292.124 366.484 279.437" fill="#1E1E1E"/>
<path d="M284.026 529.199C282.459 529.201 280.944 528.635 279.763 527.605L268.63 517.915C267.986 517.354 267.459 516.673 267.079 515.908C266.698 515.144 266.472 514.313 266.413 513.461C266.354 512.61 266.463 511.755 266.735 510.946C267.006 510.136 267.434 509.388 267.995 508.745L348.76 415.957C349.893 414.658 351.495 413.862 353.214 413.743C354.933 413.624 356.629 414.192 357.93 415.322L369.063 425.011C370.361 426.144 371.158 427.746 371.277 429.465C371.396 431.185 370.828 432.881 369.698 434.182L288.934 526.969C288.323 527.671 287.569 528.233 286.722 528.618C285.876 529.002 284.956 529.201 284.026 529.199Z" fill="#FFD858"/>
<path d="M272.483 448.278C271.22 448.279 269.983 447.912 268.925 447.221C267.866 446.531 267.032 445.548 266.522 444.391L260.589 430.877C259.898 429.298 259.862 427.51 260.488 425.904C261.114 424.298 262.351 423.007 263.928 422.312L376.566 372.864C378.145 372.173 379.934 372.137 381.539 372.763C383.145 373.389 384.437 374.626 385.132 376.203L391.064 389.717C391.755 391.296 391.792 393.084 391.166 394.69C390.54 396.296 389.303 397.587 387.726 398.282L275.087 447.73C274.267 448.091 273.38 448.278 272.483 448.278Z" fill="#FFD858"/>
<path d="M262.187 495.71L276.928 496.443C278.518 496.522 280.073 495.966 281.253 494.898C282.433 493.83 283.14 492.337 283.219 490.748L286.162 430.175C286.202 429.388 286.085 428.601 285.82 427.859C285.555 427.117 285.147 426.434 284.618 425.85C284.089 425.266 283.451 424.792 282.738 424.455C282.026 424.117 281.255 423.923 280.468 423.884L265.726 423.151C264.137 423.072 262.581 423.628 261.402 424.696C260.222 425.764 259.515 427.257 259.436 428.846L256.492 489.419C256.413 491.008 256.969 492.564 258.037 493.744C259.105 494.924 260.598 495.631 262.187 495.71Z" fill="#FFD858"/>
<path d="M469.925 325.991C498.091 325.991 520.925 303.158 520.925 274.991C520.925 246.825 498.091 223.991 469.925 223.991C441.758 223.991 418.925 246.825 418.925 274.991C418.925 303.158 441.758 325.991 469.925 325.991Z" fill="#FFD858"/>
<path d="M450.88 363.227L450.97 362.807C451.187 361.782 451.133 360.718 450.811 359.721C450.49 358.723 449.913 357.828 449.138 357.123L429.666 339.409L431.951 336.784C432.468 336.19 432.864 335.499 433.114 334.752C433.365 334.005 433.466 333.216 433.411 332.43C433.357 331.644 433.148 330.876 432.797 330.171C432.446 329.466 431.959 328.836 431.365 328.319L419.296 317.814C418.096 316.769 416.53 316.244 414.942 316.354C413.355 316.464 411.876 317.2 410.831 318.401L408.949 320.563L391.297 304.506C390.516 303.795 389.561 303.303 388.529 303.08C387.497 302.856 386.424 302.909 385.419 303.233C361.922 310.805 340.84 324.444 324.302 342.772C307.763 361.101 296.355 383.469 291.229 407.618L291.14 408.038C290.922 409.063 290.977 410.127 291.298 411.124C291.619 412.121 292.196 413.017 292.971 413.722L350.812 466.339C351.593 467.05 352.548 467.542 353.58 467.765C354.612 467.988 355.684 467.935 356.69 467.612C380.187 460.04 401.269 446.401 417.808 428.072C434.346 409.744 445.754 387.376 450.88 363.227Z" fill="#1E1E1E"/>
<path d="M365.892 478.78L351.874 474.161C350.363 473.663 349.111 472.585 348.395 471.164C347.678 469.743 347.556 468.096 348.054 466.584L384.245 356.76C385.356 353.389 387.76 350.598 390.928 349C394.097 347.403 397.77 347.129 401.14 348.24C404.511 349.35 407.302 351.754 408.899 354.923C410.497 358.091 410.771 361.765 409.66 365.135L373.469 474.96C372.971 476.471 371.893 477.723 370.472 478.439C369.051 479.156 367.404 479.278 365.892 478.78Z" fill="#FFD858"/>
<path d="M355.605 418.203C352.833 420.216 353.013 424.671 355.063 427.417C357.112 430.162 360.416 431.616 363.569 432.955C369.171 435.334 374.875 437.74 380.926 438.387C386.978 439.034 393.539 437.673 397.871 433.399C401.994 429.331 403.491 423.373 404.814 417.734L417.224 364.838C418.537 359.242 419.802 353.126 417.317 347.944C415.543 344.601 412.716 341.935 409.275 340.36C404.136 337.93 398.355 337.205 392.775 338.292C387.195 339.379 382.108 342.22 378.257 346.402C369.56 356.277 369.625 370.76 367.478 383.742C365.342 396.602 360.636 408.899 353.643 419.9" fill="#1E1E1E"/>
<path d="M447.026 289.275C446.122 287.804 445.543 286.157 445.329 284.443C445.226 283.262 445.382 282.073 445.787 280.958C446.192 279.844 446.835 278.831 447.672 277.992C448.257 277.383 448.974 276.919 449.768 276.633C450.562 276.348 451.411 276.251 452.249 276.348C454.397 276.633 456.262 278.205 457.451 280.645L470.238 265.384L471.771 266.669L456.738 284.609L456.188 282.874C455.549 280.863 454.11 278.612 451.986 278.331C451.449 278.276 450.906 278.347 450.4 278.536C449.894 278.726 449.438 279.03 449.069 279.424C448.449 280.052 447.972 280.807 447.669 281.636C447.367 282.466 447.247 283.351 447.318 284.231C447.641 287.268 449.675 289.852 452.099 292.676L450.582 293.978C449.259 292.52 448.069 290.946 447.026 289.275Z" fill="#1E1E1E"/>
<path d="M455.148 251.301L453.668 252.646L460.91 260.619L462.39 259.275L455.148 251.301Z" fill="#1E1E1E"/>
<path d="M478.008 276.469L476.527 277.813L483.769 285.787L485.25 284.443L478.008 276.469Z" fill="#1E1E1E"/>
<path d="M508.152 278.929C494.115 271.411 478.446 263.155 470.704 248.502C467.219 241.907 465.344 234.032 466.568 226.59C467.137 223.056 468.462 219.685 470.453 216.71C472.443 213.734 475.052 211.222 478.102 209.347C490.327 201.739 506.618 202.673 520.003 206.236C533.622 209.964 546.141 216.922 556.497 226.521C567.041 236.112 575.153 248.072 580.165 261.415C582.613 268.001 584.169 274.884 584.793 281.882C585.453 291.379 584.931 300.922 583.237 310.291C580.201 328.652 574.512 346.495 572.388 365.018C570.475 381.693 571.406 399.447 579.737 414.408C586.202 426.018 597.119 434.628 609.408 439.401C621.79 444.308 635.45 444.961 648.244 441.26C651.345 440.311 654.353 439.079 657.229 437.58C658.943 436.689 657.427 434.1 655.715 434.99C643.882 441.141 629.894 442.056 617.083 438.729C604.256 435.398 592.299 427.807 584.745 416.794C575.154 402.812 573.56 385.131 575.016 368.672C576.674 349.93 582.445 331.91 585.725 313.446C587.57 303.951 588.326 294.277 587.978 284.611C587.597 277.292 586.235 270.057 583.927 263.101C579.252 249.449 571.488 237.06 561.239 226.9C550.99 216.741 538.533 209.085 524.84 204.53C511.329 200.179 495.38 198.574 481.951 204.062C475.233 206.808 469.309 211.519 466.105 218.149C462.788 225.014 462.55 232.93 464.361 240.251C468.402 256.589 481.88 267.407 495.779 275.522C499.35 277.607 502.993 279.567 506.638 281.519C508.339 282.43 509.856 279.841 508.152 278.929Z" fill="#1E1E1E"/>
<path d="M175 350C78.5047 350 4.78945e-05 271.495 4.78945e-05 175C-0.0629914 149.644 5.43345 124.582 16.1023 101.579C30.1276 71.2443 52.5432 45.5578 80.7004 27.5551C108.858 9.55232 141.58 -0.0142117 175 -0.0141602C208.421 -0.0141086 241.143 9.55254 269.3 27.5554C297.457 45.5582 319.873 71.2448 333.898 101.58C344.567 124.582 350.063 149.644 350 175C350 271.495 271.495 350 175 350ZM175 1.99988C141.978 2.06792 109.66 11.5514 81.8372 29.338C54.0145 47.1245 31.8408 72.4764 17.9174 102.42C7.3708 125.159 1.93748 149.934 2.00005 175C2.00005 270.392 79.6075 348 175 348C270.393 348 348 270.392 348 175C348.063 149.934 342.629 125.159 332.083 102.42C318.16 72.4768 295.986 47.1248 268.163 29.3382C240.34 11.5515 208.022 2.06793 175 1.99988Z" fill="#1E1E1E"/>
<path d="M239.283 83.2231H109.843C109.048 83.2242 108.261 83.0685 107.526 82.765C106.792 82.4616 106.124 82.0163 105.562 81.4547C104.999 80.893 104.553 80.226 104.249 79.4918C103.944 78.7576 103.788 77.9706 103.788 77.1758C103.788 76.381 103.944 75.594 104.249 74.8598C104.553 74.1256 104.999 73.4586 105.562 72.8969C106.124 72.3352 106.792 71.89 107.526 71.5865C108.261 71.2831 109.048 71.1274 109.843 71.1284H239.283C240.078 71.1274 240.865 71.2831 241.6 71.5865C242.334 71.89 243.002 72.3352 243.564 72.8969C244.127 73.4586 244.573 74.1256 244.877 74.8598C245.182 75.594 245.338 76.381 245.338 77.1758C245.338 77.9706 245.182 78.7576 244.877 79.4918C244.573 80.226 244.127 80.893 243.564 81.4547C243.002 82.0163 242.334 82.4616 241.6 82.765C240.865 83.0685 240.078 83.2242 239.283 83.2231Z" fill="white"/>
<path d="M197.783 57.2231H151.343C150.548 57.2242 149.761 57.0685 149.026 56.765C148.292 56.4616 147.624 56.0163 147.062 55.4547C146.499 54.893 146.053 54.226 145.749 53.4918C145.444 52.7576 145.288 51.9706 145.288 51.1758C145.288 50.381 145.444 49.594 145.749 48.8598C146.053 48.1256 146.499 47.4586 147.062 46.8969C147.624 46.3352 148.292 45.89 149.026 45.5865C149.761 45.2831 150.548 45.1274 151.343 45.1284H197.783C198.578 45.1274 199.365 45.2831 200.1 45.5865C200.834 45.89 201.502 46.3352 202.064 46.8969C202.627 47.4586 203.073 48.1256 203.377 48.8598C203.682 49.594 203.838 50.381 203.838 51.1758C203.838 51.9706 203.682 52.7576 203.377 53.4918C203.073 54.226 202.627 54.893 202.064 55.4547C201.502 56.0163 200.834 56.4616 200.1 56.765C199.365 57.0685 198.578 57.2242 197.783 57.2231Z" fill="white"/>
<path d="M109.972 162.392L106.066 161.113C92.1249 156.413 82.9662 153.411 79.7039 146.058C79.0705 144.695 78.7117 143.221 78.648 141.719C78.5843 140.218 78.817 138.718 79.3327 137.307C79.8485 135.895 80.6373 134.599 81.654 133.492C82.6707 132.385 83.8955 131.489 85.2583 130.856C85.3587 130.809 85.4597 130.764 85.5614 130.72C87.2166 129.997 89.0094 129.642 90.8155 129.68C92.6217 129.719 94.3977 130.15 96.0204 130.944C96.5207 129.209 97.3928 127.602 98.5762 126.237C99.7596 124.873 101.226 123.782 102.873 123.04C105.633 121.778 108.782 121.663 111.627 122.722C114.471 123.781 116.779 125.926 118.041 128.687C118.087 128.787 118.132 128.888 118.175 128.99C121.437 136.344 117.516 145.148 111.645 158.638L109.972 162.392Z" fill="#FF6584"/>
<path d="M230.235 277.449H117.898C114.417 277.445 111.079 276.061 108.618 273.599C106.156 271.137 104.772 267.8 104.768 264.319V192.832C104.772 189.351 106.156 186.013 108.618 183.552C111.079 181.09 114.417 179.706 117.898 179.702H230.235C233.716 179.706 237.053 181.09 239.515 183.552C241.976 186.013 243.361 189.351 243.365 192.832V264.319C243.361 267.8 241.976 271.137 239.515 273.599C237.053 276.061 233.716 277.445 230.235 277.449ZM117.898 182.619C115.19 182.623 112.594 183.699 110.68 185.614C108.765 187.529 107.688 190.124 107.685 192.832V264.319C107.688 267.026 108.765 269.622 110.68 271.537C112.594 273.451 115.19 274.528 117.898 274.531H230.235C232.942 274.528 235.538 273.451 237.453 271.537C239.367 269.622 240.444 267.026 240.447 264.319V192.832C240.444 190.124 239.367 187.529 237.453 185.614C235.538 183.699 232.942 182.623 230.235 182.619H117.898Z" fill="#1E1E1E"/>
<path d="M173.464 227.929C170.462 227.935 167.531 227.018 165.067 225.303L108.699 185.893L110.371 183.502L166.739 222.912C168.688 224.263 170.999 224.996 173.37 225.014C175.742 225.033 178.064 224.337 180.034 223.016L238.061 183.785L239.696 186.203L181.668 225.434C179.243 227.065 176.386 227.934 173.464 227.929Z" fill="#1E1E1E"/>
<path d="M173.337 245.353C183.005 245.353 190.844 237.515 190.844 227.846C190.844 218.177 183.005 210.339 173.337 210.339C163.668 210.339 155.83 218.177 155.83 227.846C155.83 237.515 163.668 245.353 173.337 245.353Z" fill="#1E1E1E"/>
<path d="M675.226 606.151H232.932C232.775 606.152 232.62 606.121 232.475 606.062C232.33 606.002 232.199 605.915 232.088 605.804C231.977 605.693 231.889 605.562 231.829 605.417C231.769 605.272 231.738 605.117 231.738 604.961C231.738 604.804 231.769 604.649 231.829 604.504C231.889 604.36 231.977 604.228 232.088 604.118C232.199 604.007 232.33 603.919 232.475 603.86C232.62 603.8 232.775 603.77 232.932 603.77H675.226C675.383 603.77 675.538 603.8 675.683 603.86C675.828 603.919 675.959 604.007 676.07 604.118C676.181 604.228 676.269 604.36 676.329 604.504C676.389 604.649 676.42 604.804 676.42 604.961C676.42 605.117 676.389 605.272 676.329 605.417C676.269 605.562 676.181 605.693 676.07 605.804C675.959 605.915 675.828 606.002 675.683 606.062C675.538 606.121 675.383 606.152 675.226 606.151Z" fill="#E6E6E6"/>
</g>
<defs>
<clipPath id="clip0_80_79">
<rect width="676.416" height="606.151" fill="white"/>
</clipPath>
</defs>
</svg>
