<svg xmlns="http://www.w3.org/2000/svg" fill="none" viewBox="0 0 16 16" id="Package-Duotone--Streamline-Phosphor" height="16" width="16"><desc>Package Duotone Streamline Icon: https://streamlinehq.com</desc><g id="package-duotone"><path id="Vector" fill="#ffd858" d="M8 8.068125V14.5c-0.084 -0.000375 -0.1665 -0.021875 -0.24 -0.0625l-5.5 -3.01125c-0.0785375 -0.043 -0.14409375 -0.10625 -0.189825 -0.1831875 -0.0457375 -0.077 -0.06996875 -0.1648125 -0.070175 -0.2543125V5.01124375c0.0002 -0.070025 0.01510625 -0.139225 0.04375 -0.203125L8 8.068125Z" stroke-width="0.0625"></path><path id="Vector_2" fill="#000000" d="m13.98 4.13436875 -5.5 -3.009375c-0.1469375 -0.08119375 -0.312125 -0.1237875 -0.48 -0.1237875s-0.3330625 0.04259375 -0.48 0.1237875l-5.5 3.010625c-0.15706875 0.08594375 -0.2881875 0.212475 -0.37965625 0.36639375 -0.09146875 0.1539125 -0.1399375 0.3295625 -0.14034375 0.50860625V10.988125c0.00040625 0.1790625 0.048875 0.3546875 0.14034375 0.508625 0.09146875 0.153875 0.2225875 0.2804375 0.37965625 0.366375l5.5 3.010625c0.1469375 0.0811875 0.312125 0.1238125 0.48 0.1238125s0.3330625 -0.042625 0.48 -0.1238125l5.5 -3.010625c0.1570625 -0.0859375 0.2881875 -0.2125 0.379625 -0.366375 0.0915 -0.1539375 0.1399375 -0.3295625 0.140375 -0.508625V5.01124375c-0.0000625 -0.1793625 -0.048375 -0.3554 -0.139875 -0.509675s-0.22275 -0.28110625 -0.380125 -0.3672ZM8 1.99999375l5.02125 2.75 -1.860625 1.01875 -5.021875 -2.75 1.86125 -1.01875ZM8 7.5 2.97875 4.74999375l2.11875 -1.16L10.11875 6.34 8 7.5ZM2.5 5.62499375l5 2.73625625v5.361875l-5 -2.734375V5.62499375ZM13.5 10.98625l-5 2.736875v-5.359375l2 -1.094375V9.5c0 0.132625 0.0526875 0.2598125 0.1464375 0.3535625S10.867375 10 11 10s0.2598125 -0.0526875 0.3535625 -0.1464375S11.5 9.632625 11.5 9.5v-2.778125l2 -1.09688125V10.98625Z" stroke-width="0.0625"></path></g></svg>