<svg width="619" height="488" viewBox="0 0 619 488" fill="none" xmlns="http://www.w3.org/2000/svg">
<g clip-path="url(#clip0_113_138)">
<path d="M148.532 264.22C143.594 237.794 151.368 207.73 172.975 191.734C171.75 220.943 180.897 249.644 198.797 272.759C205.732 281.649 214.372 290.814 214.103 302.085C213.936 309.099 210.143 315.633 205.145 320.555C200.146 325.477 193.988 329.026 187.905 332.52L186.958 333.993C169.123 313.877 153.47 290.647 148.532 264.22Z" fill="#F0F0F0"/>
<path d="M173.37 192.138C164.292 212.454 161.846 235.114 166.38 256.899C167.273 261.606 168.902 266.143 171.208 270.343C173.586 274.362 176.997 277.67 181.086 279.925C184.857 282.104 188.966 283.895 192.142 286.953C193.744 288.542 194.992 290.452 195.804 292.557C196.616 294.663 196.974 296.916 196.855 299.169C196.703 304.792 194.539 310.024 192.246 315.068C189.7 320.668 186.966 326.444 187.132 332.74C187.152 333.503 185.967 333.489 185.947 332.728C185.659 321.774 193.579 312.977 195.343 302.466C196.167 297.562 195.517 292.38 192.069 288.578C189.054 285.254 184.818 283.402 180.981 281.229C176.96 279.088 173.523 275.995 170.973 272.22C168.461 268.151 166.66 263.685 165.646 259.011C163.197 248.527 162.411 237.722 163.318 226.994C164.285 214.743 167.341 202.749 172.353 191.529C172.663 190.835 173.678 191.448 173.37 192.138Z" fill="white"/>
<path d="M164.507 249.97C160.749 250.235 157.019 249.155 153.983 246.923C150.948 244.691 148.804 241.453 147.936 237.787C147.763 237.045 148.908 236.741 149.081 237.484C149.884 240.899 151.881 243.916 154.712 245.988C157.543 248.06 161.021 249.053 164.519 248.785C165.28 248.728 165.263 249.913 164.507 249.97Z" fill="white"/>
<path d="M179.029 279.072C184.131 273.302 186.871 265.822 186.702 258.122C186.685 257.359 187.87 257.372 187.887 258.134C188.047 266.147 185.18 273.926 179.858 279.918C179.35 280.489 178.524 279.639 179.029 279.072Z" fill="white"/>
<path d="M165.673 215.479C167.148 215.68 168.651 215.511 170.045 214.987C171.439 214.464 172.681 213.603 173.66 212.48C174.16 211.904 174.986 212.754 174.489 213.327C173.402 214.562 172.029 215.511 170.49 216.093C168.951 216.675 167.293 216.871 165.66 216.664C165.505 216.657 165.358 216.592 165.249 216.481C165.14 216.369 165.078 216.221 165.074 216.065C165.077 215.908 165.141 215.759 165.253 215.649C165.365 215.539 165.516 215.478 165.673 215.479Z" fill="white"/>
<path d="M261.335 213.592C261.032 213.961 260.73 214.331 260.431 214.709C256.395 219.693 252.771 224.997 249.594 230.568C249.341 230.994 249.092 231.431 248.852 231.864C241.341 245.367 236.403 260.147 234.287 275.452C233.451 281.544 233.08 287.69 233.176 293.837C233.309 302.328 234.13 311.522 231.527 319.331C231.265 320.149 230.952 320.949 230.591 321.728L188.829 335.034C188.719 335.017 188.612 335.009 188.501 334.992L186.858 335.599C186.831 335.283 186.809 334.953 186.782 334.637C186.766 334.453 186.759 334.266 186.742 334.083C186.734 333.959 186.726 333.836 186.712 333.725C186.709 333.684 186.707 333.643 186.707 333.611C186.693 333.5 186.691 333.396 186.68 333.294C186.556 331.455 186.441 329.613 186.346 327.765C186.343 327.755 186.343 327.756 186.349 327.743C185.632 313.666 186.084 299.406 188.686 285.668C188.765 285.255 188.839 284.832 188.937 284.412C190.144 278.226 191.855 272.149 194.053 266.242C195.266 263.011 196.642 259.844 198.176 256.752C202.155 248.772 207.364 241.466 213.613 235.105C226.072 222.424 242.447 213.869 259.994 213.6C260.443 213.593 260.883 213.589 261.335 213.592Z" fill="#F0F0F0"/>
<path d="M261.41 214.152C241.93 224.908 226.335 241.529 216.839 261.653C214.717 265.949 213.287 270.552 212.599 275.294C212.078 279.934 212.81 284.629 214.718 288.891C216.416 292.901 218.619 296.806 219.313 301.159C219.636 303.392 219.482 305.669 218.863 307.839C218.244 310.009 217.173 312.023 215.721 313.751C212.215 318.148 207.337 321.024 202.469 323.67C197.065 326.608 191.404 329.575 187.746 334.701C187.302 335.322 186.365 334.598 186.807 333.978C193.173 325.059 204.792 322.803 212.529 315.473C216.139 312.053 218.741 307.524 218.277 302.413C217.871 297.943 215.603 293.914 213.848 289.869C211.926 285.739 211.045 281.2 211.281 276.651C211.725 271.89 212.976 267.239 214.981 262.897C219.337 253.051 225.215 243.951 232.399 235.931C240.546 226.732 250.208 218.995 260.964 213.054C261.63 212.687 262.071 213.787 261.41 214.152Z" fill="white"/>
<path d="M219.514 254.993C216.354 252.941 214.026 249.833 212.946 246.224C211.866 242.614 212.104 238.738 213.618 235.288C213.927 234.591 215.024 235.038 214.715 235.736C213.3 238.946 213.078 242.557 214.091 245.916C215.103 249.275 217.283 252.161 220.237 254.054C220.879 254.467 220.152 255.403 219.514 254.993Z" fill="white"/>
<path d="M213.587 286.972C221.135 285.437 227.826 281.114 232.328 274.864C232.773 274.245 233.711 274.969 233.266 275.588C228.57 282.082 221.597 286.567 213.74 288.147C212.991 288.297 212.842 287.121 213.587 286.972Z" fill="white"/>
<path d="M241.21 228.156C242.267 229.204 243.569 229.974 244.997 230.395C246.425 230.817 247.936 230.877 249.393 230.57C250.14 230.411 250.287 231.587 249.545 231.745C247.933 232.076 246.265 232.008 244.686 231.546C243.107 231.084 241.666 230.242 240.487 229.094C240.367 228.995 240.289 228.854 240.269 228.7C240.249 228.546 240.288 228.39 240.379 228.263C240.476 228.14 240.617 228.059 240.773 228.039C240.928 228.018 241.085 228.061 241.21 228.156Z" fill="white"/>
<path d="M326.932 69.0838C327.072 69.6988 327.163 70.3239 327.205 70.9532L376.169 99.2005L388.071 92.3491L400.758 108.959L380.868 123.136C379.261 124.281 377.326 124.874 375.353 124.826C373.38 124.778 371.477 124.091 369.927 122.869L319.437 83.0368C317.158 83.8803 314.677 84.0101 312.323 83.4088C309.968 82.8076 307.853 81.504 306.258 79.6712C304.663 77.8384 303.663 75.5634 303.393 73.1488C303.122 70.7342 303.593 68.2944 304.743 66.154C305.893 64.0135 307.667 62.2738 309.83 61.1663C311.992 60.0588 314.441 59.636 316.85 59.954C319.258 60.2721 321.513 61.316 323.314 62.9469C325.115 64.5777 326.377 66.7182 326.932 69.0838Z" fill="#FFB6B6"/>
<path d="M376.849 96.0818C377.004 95.3613 377.313 94.6827 377.754 94.0925C378.196 93.5022 378.759 93.0142 379.407 92.6616L402.013 80.3447C405.023 78.0726 408.811 77.0872 412.547 77.6044C416.283 78.1216 419.662 80.0993 421.942 83.1037C424.222 86.1082 425.217 89.8942 424.709 93.6315C424.202 97.3687 422.233 100.752 419.234 103.04L401.116 121.446C400.599 121.971 399.975 122.379 399.286 122.641C398.597 122.903 397.86 123.014 397.125 122.965C396.389 122.917 395.673 122.711 395.024 122.36C394.376 122.01 393.81 121.524 393.366 120.936L377.767 100.254C377.323 99.6652 377.011 98.9879 376.852 98.268C376.694 97.548 376.692 96.8023 376.849 96.0818Z" fill="#1E1E1E"/>
<path d="M417.235 24.4757C420.487 14.11 427.884 4.60293 438.113 1.09876C448.342 -2.4054 463.321 2.93258 471.011 10.5969C485.078 24.6165 488.511 72.779 478.847 87.9989C476.924 87.8972 470.291 87.8219 468.345 87.749L465.593 78.5756V87.6586C450.407 87.1893 434.597 87.4831 418.778 87.787C417.36 77.0112 413.982 34.8414 417.235 24.4757Z" fill="black"/>
<path d="M412.883 459.573H399.032L392.443 406.146L412.886 406.147L412.883 459.573Z" fill="#FFB6B6"/>
<path d="M534.137 450.96L520.734 454.453L500.881 404.416L520.663 399.261L534.137 450.96Z" fill="#FFB6B6"/>
<path d="M457.806 131.433L460.945 139.593L460.317 147.753L398.893 169.028L401.941 133.316L408.845 125.155L457.806 131.433Z" fill="#FFB6B6"/>
<path d="M438.384 57.9997C450.5 57.9997 460.322 48.1776 460.322 36.0614C460.322 23.9452 450.5 14.123 438.384 14.123C426.267 14.123 416.445 23.9452 416.445 36.0614C416.445 48.1776 426.267 57.9997 438.384 57.9997Z" fill="#FFB7B7"/>
<path d="M423.31 7.49322C427.526 4.92341 432.354 3.53329 437.29 3.46822C442.227 3.40314 447.09 4.66548 451.372 7.12328C455.653 9.58107 459.196 13.144 461.629 17.4396C464.063 21.7352 465.297 26.6056 465.204 31.5417C453.245 34.5981 440.502 35.8766 426.997 32.2778L423.91 24.7225L422.09 32.2834C417.958 35.1897 413.971 35.1844 410.127 32.2677C409.964 27.3456 411.096 22.4669 413.409 18.1194C415.723 13.7718 419.137 10.1077 423.31 7.49322Z" fill="black"/>
<path d="M419.079 485.874H409.25L407.496 476.594L403.003 485.874H376.934C375.685 485.874 374.468 485.475 373.462 484.734C372.455 483.994 371.712 482.951 371.34 481.758C370.968 480.565 370.987 479.284 371.395 478.103C371.802 476.922 372.576 475.902 373.605 475.192L394.422 460.815V451.434L416.318 452.74L419.079 485.874Z" fill="black"/>
<path d="M547.981 474.531L538.47 477.01L534.432 468.473L532.425 478.586L507.2 485.161C505.991 485.476 504.712 485.397 503.552 484.934C502.391 484.471 501.408 483.65 500.748 482.589C500.087 481.529 499.782 480.285 499.879 479.039C499.975 477.793 500.467 476.611 501.283 475.664L517.801 456.501L515.435 447.423L536.952 443.165L547.981 474.531Z" fill="black"/>
<path d="M532.438 417.361L491.836 333.913L479.091 232.347C487.879 216.027 471.558 182.818 471.558 182.818V168.875L408.338 180.802C395.407 216.07 389.137 253.433 389.846 290.99L392.393 426H391.594C390.268 426 388.996 426.527 388.058 427.464C387.121 428.402 386.594 429.674 386.594 431C386.594 432.326 387.121 433.598 388.058 434.535C388.996 435.473 390.268 436 391.594 436H416.594C417.92 436 419.192 435.473 420.129 434.535C421.067 433.598 421.594 432.326 421.594 431C421.594 429.674 421.067 428.402 420.129 427.464C419.192 426.527 417.92 426 416.594 426H415.949L433.896 254.243L454.764 339.001L505.194 417.04C503.907 417.14 502.71 417.735 501.853 418.7C500.996 419.664 500.546 420.923 500.598 422.213C500.65 423.502 501.199 424.721 502.131 425.613C503.062 426.506 504.304 427.003 505.594 427H530.594C531.757 427.001 532.883 426.597 533.78 425.856C534.676 425.116 535.286 424.086 535.505 422.943C535.723 421.801 535.536 420.619 534.977 419.6C534.417 418.581 533.519 417.789 532.438 417.361Z" fill="black"/>
<path d="M477.274 191.367C477.066 190.551 476.605 189.822 475.958 189.284C475.31 188.746 474.509 188.427 473.669 188.372C472.835 178.845 467.329 117.743 467.12 115.951L467.112 115.875L465.517 81.8172C465.459 80.5803 464.948 79.4081 464.08 78.5244C463.213 77.6408 462.05 77.1076 460.815 77.0269L452.394 76.4764C452.279 76.4725 452.169 76.4239 452.089 76.3409C452.008 76.2578 451.963 76.1467 451.963 76.0311C451.963 75.1012 451.78 74.1804 451.424 73.3212C451.069 72.462 450.547 71.6814 449.889 71.0238C449.232 70.3663 448.451 69.8446 447.592 69.4888C446.733 69.1329 445.812 68.9497 444.882 68.9497H419.951C418.336 68.9504 416.777 69.5404 415.566 70.609C414.356 71.6776 413.577 73.1513 413.375 74.7535C413.364 74.8639 413.312 74.9659 413.229 75.0394C413.146 75.1128 413.038 75.1522 412.927 75.1497L412.924 75.1496C410.091 75.0912 407.332 76.0504 405.145 77.8529C402.959 79.6554 401.492 82.1819 401.009 84.9739C397.6 104.805 390.77 149.814 394.147 174.836C395.323 183.547 394.788 196.648 394.344 203.936C394.3 204.64 394.395 205.346 394.624 206.014C394.853 206.681 395.212 207.297 395.679 207.826C394.685 208.112 393.841 208.774 393.325 209.671C392.809 210.567 392.661 211.63 392.913 212.633C393.172 213.662 393.83 214.545 394.74 215.089C395.651 215.633 396.741 215.793 397.769 215.534L474.373 196.223C475.402 195.964 476.285 195.307 476.829 194.396C477.373 193.485 477.533 192.396 477.274 191.367Z" fill="#1E1E1E"/>
<path d="M350.669 334.55C350.654 332.313 349.849 330.154 348.394 328.455C346.94 326.756 344.931 325.627 342.723 325.268L206.909 302.966C205.606 302.75 204.273 302.81 202.995 303.14L171.166 311.37L152.904 316.098L119.201 324.81C117.167 325.338 115.365 326.527 114.079 328.189C112.792 329.852 112.094 331.894 112.094 333.996V476.311C112.104 478.48 112.854 480.581 114.219 482.268C115.585 483.954 117.484 485.124 119.604 485.584L257.941 484.018C258.59 484.157 259.253 484.226 259.917 484.223C260.885 484.225 261.848 484.078 262.771 483.788L344.961 485.834C346.9 485.228 348.593 484.014 349.788 482.37C350.983 480.727 351.616 478.742 351.594 476.71L350.669 334.55Z" fill="white"/>
<path d="M350.669 334.55C350.654 332.313 349.849 330.154 348.394 328.455C346.94 326.756 344.931 325.627 342.723 325.268L206.909 302.966C205.606 302.75 204.273 302.81 202.995 303.14L171.166 311.37L152.904 316.098L119.201 324.81C117.167 325.338 115.365 326.527 114.079 328.189C112.792 329.852 112.094 331.894 112.094 333.996V476.311C112.104 478.48 112.854 480.581 114.219 482.268C115.585 483.954 117.484 485.124 119.604 485.584L257.941 484.018C258.59 484.157 259.253 484.226 259.917 484.223C260.885 484.225 261.848 484.078 262.771 483.788L344.961 485.834C346.9 485.228 348.593 484.014 349.788 482.37C350.983 480.727 351.616 478.742 351.594 476.71L350.669 334.55ZM344.249 483.572L262.06 485.527C260.887 485.893 259.641 485.953 258.439 485.701L120.095 483.268C118.505 482.921 117.081 482.043 116.058 480.778C115.034 479.514 114.473 477.938 114.466 476.311V333.996C114.467 332.539 114.914 331.118 115.748 329.923C116.582 328.729 117.763 327.819 119.13 327.316C119.347 327.234 119.569 327.166 119.794 327.11L155.449 317.892L176.534 312.437L203.588 305.44C204.168 305.286 204.766 305.209 205.367 305.211C205.754 305.211 206.14 305.243 206.521 305.306L342.336 327.608C343.429 327.788 344.465 328.219 345.362 328.868C346.26 329.517 346.994 330.366 347.506 331.348C348.019 332.343 348.29 333.446 348.297 334.566L349.222 476.726C349.239 478.25 348.764 479.739 347.869 480.972C346.973 482.206 345.704 483.117 344.249 483.572Z" fill="#CCCCCC"/>
<path d="M347.506 331.348C347.414 331.409 347.312 331.454 347.206 331.482L307.257 342.282L294.822 345.642L259.451 355.2C259.35 355.225 259.246 355.238 259.142 355.239C259.071 355.238 259 355.233 258.929 355.224L116.307 329.221L115.833 329.134C115.524 329.076 115.251 328.898 115.073 328.639C114.894 328.38 114.826 328.061 114.883 327.752C114.939 327.443 115.116 327.168 115.374 326.989C115.632 326.809 115.95 326.739 116.26 326.794L119.13 327.316L259.095 352.836L289.58 344.598L306.633 339.989L345.964 329.356L346.589 329.19C346.859 329.118 347.145 329.144 347.398 329.263C347.651 329.381 347.854 329.585 347.973 329.838C348.003 329.898 348.027 329.962 348.044 330.028C348.109 330.276 348.092 330.539 347.995 330.777C347.898 331.015 347.726 331.216 347.506 331.348Z" fill="#CCCCCC"/>
<path d="M260.329 484.5C259.679 484.5 259.149 483.977 259.143 487.325L257.957 358.064C257.951 353.41 258.477 352.874 259.132 352.868H259.143C259.793 352.868 260.323 353.391 260.329 358.043L261.515 487.303C261.521 483.958 260.994 484.494 260.34 484.5H260.329Z" fill="#CCCCCC"/>
<path d="M307.594 486L294.822 486.135L289.581 344.598L155.837 317.987C155.706 317.964 155.577 317.932 155.45 317.892C154.423 317.6 153.525 316.967 152.904 316.098L171.167 311.37L176.535 312.437L303.44 337.681C304.107 337.813 304.738 338.087 305.289 338.486C305.84 338.884 306.299 339.397 306.633 339.989C307.029 340.677 307.586 485.178 307.594 486Z" fill="#CCCCCC"/>
<path d="M409.896 75.4893C409.886 73.8038 409.278 72.1766 408.182 70.8961C407.086 69.6157 405.572 68.7648 403.908 68.4943L301.551 51.6861C300.57 51.5236 299.565 51.5683 298.602 51.8172L274.614 58.0198L260.85 61.5827L235.45 68.1488C233.917 68.547 232.559 69.4428 231.59 70.6958C230.62 71.9488 230.094 73.4881 230.094 75.0723V158.965C230.101 160.6 230.666 162.183 231.695 163.454C232.725 164.725 234.156 165.606 235.754 165.954L340.012 188.136C340.501 188.242 341.001 188.293 341.501 188.291C342.231 188.293 342.956 188.182 343.652 187.964L405.595 168.403C407.056 167.946 408.332 167.031 409.233 165.793C410.133 164.554 410.61 163.058 410.594 161.527L409.896 75.4893Z" fill="white"/>
<path d="M300.392 57.8467C300.317 57.8466 300.243 57.8562 300.171 57.8752L237.018 74.2069C236.827 74.2565 236.657 74.3683 236.536 74.5247C236.415 74.681 236.35 74.8732 236.35 75.071V158.962C236.35 159.166 236.421 159.364 236.549 159.523C236.678 159.682 236.857 159.792 237.056 159.835L341.314 182.018C341.465 182.05 341.622 182.042 341.769 181.996L403.712 162.435C403.895 162.378 404.054 162.264 404.166 162.109C404.279 161.954 404.338 161.768 404.336 161.576L403.641 75.5394C403.64 75.3289 403.564 75.1257 403.427 74.9659C403.29 74.806 403.101 74.6998 402.893 74.666L300.536 57.8583C300.489 57.8507 300.44 57.8468 300.392 57.8467Z" fill="#FFD858"/>
<path d="M409.896 75.4893C409.886 73.8038 409.278 72.1766 408.182 70.8961C407.086 69.6157 405.572 68.7648 403.908 68.4943L301.551 51.6861C300.57 51.5236 299.565 51.5683 298.602 51.8172L274.614 58.0198L260.85 61.5827L235.45 68.1488C233.917 68.547 232.559 69.4428 231.59 70.6958C230.62 71.9488 230.094 73.4881 230.094 75.0723V158.965C230.101 160.6 230.666 162.183 231.695 163.454C232.725 164.725 234.156 165.606 235.754 165.954L340.012 188.136C340.501 188.242 341.001 188.293 341.501 188.291C342.231 188.293 342.956 188.182 343.652 187.964L405.595 168.403C407.056 167.946 408.332 167.031 409.233 165.793C410.133 164.554 410.61 163.058 410.594 161.527L409.896 75.4893ZM405.058 166.698L343.116 186.259C342.233 186.535 341.293 186.58 340.387 186.391L236.123 164.208C234.925 163.947 233.852 163.285 233.081 162.332C232.31 161.379 231.887 160.191 231.881 158.965V75.0723C231.882 73.9743 232.219 72.903 232.848 72.0027C233.477 71.1025 234.366 70.4166 235.397 70.0375C235.56 69.9761 235.727 69.9244 235.897 69.8826L262.769 62.9353L278.66 58.8241L299.049 53.5511C299.486 53.4344 299.937 53.3762 300.389 53.3782C300.681 53.3781 300.972 53.4021 301.259 53.4497L403.616 70.2581C404.44 70.3932 405.221 70.7182 405.897 71.2074C406.574 71.6965 407.127 72.3364 407.513 73.0763C407.9 73.8265 408.104 74.6574 408.109 75.5013L408.806 161.539C408.819 162.687 408.461 163.81 407.786 164.739C407.111 165.668 406.155 166.355 405.058 166.698Z" fill="#1E1E1E"/>
<path d="M407.512 73.0762C407.443 73.1219 407.366 73.1561 407.286 73.1775L377.179 81.3165L367.807 83.8488L341.149 91.0523C341.073 91.071 340.995 91.081 340.917 91.0821C340.863 91.0811 340.809 91.0771 340.756 91.0701L233.269 71.4734L232.911 71.4079C232.678 71.3643 232.472 71.2302 232.338 71.0349C232.203 70.8396 232.152 70.5991 232.194 70.3659C232.237 70.1327 232.37 69.9258 232.565 69.7906C232.759 69.6553 233 69.6027 233.233 69.6442L235.396 70.0375L340.881 89.2708L363.856 83.0622L376.708 79.5885L406.351 71.5747L406.821 71.4496C407.025 71.3959 407.241 71.4154 407.431 71.5047C407.622 71.594 407.775 71.7474 407.864 71.9381C407.887 71.9837 407.905 72.0316 407.918 72.0811C407.967 72.2685 407.954 72.4667 407.881 72.6461C407.808 72.8255 407.679 72.9765 407.512 73.0762Z" fill="#1E1E1E"/>
<path d="M341.811 188.5C341.575 188.5 341.349 188.407 341.182 188.241C341.014 188.075 340.919 187.85 340.917 187.615L340.023 90.1968C340.021 89.9598 340.113 89.7317 340.28 89.5625C340.446 89.3934 340.672 89.2971 340.909 89.2949H340.917C341.153 89.2949 341.379 89.388 341.546 89.5538C341.714 89.7197 341.809 89.9449 341.811 90.1805L342.705 187.598C342.707 187.835 342.615 188.063 342.449 188.233C342.283 188.402 342.056 188.498 341.819 188.5H341.811Z" fill="#1E1E1E"/>
<path d="M377.179 176.649L367.807 179.181L363.856 83.0626L263.06 63.007C262.961 62.9896 262.864 62.9657 262.768 62.9355C261.994 62.7151 261.317 62.2382 260.85 61.583L274.613 58.02L278.659 58.8244L374.301 77.8492C374.804 77.9485 375.28 78.1554 375.695 78.4557C376.11 78.756 376.456 79.1425 376.708 79.5889C377.006 80.1073 377.173 176.029 377.179 176.649Z" fill="#1E1E1E"/>
<path d="M372.98 121.846C373.459 122.256 373.906 122.703 374.315 123.183L430.461 116.626L435.921 104.025L456.015 109.781L448.516 133.027C447.91 134.905 446.711 136.535 445.1 137.674C443.488 138.813 441.551 139.398 439.578 139.342L375.293 137.515C373.968 139.551 372.055 141.136 369.807 142.059C367.559 142.982 365.084 143.198 362.71 142.679C360.336 142.161 358.177 140.932 356.519 139.156C354.86 137.38 353.782 135.141 353.427 132.738C353.072 130.334 353.458 127.879 354.532 125.7C355.606 123.521 357.319 121.72 359.441 120.538C361.564 119.355 363.996 118.847 366.415 119.081C368.833 119.314 371.123 120.279 372.98 121.846Z" fill="#FFB6B6"/>
<path d="M429.146 113.718C428.841 113.047 428.684 112.318 428.686 111.581C428.688 110.844 428.848 110.116 429.157 109.447L439.945 86.0728C441.005 82.4534 443.457 79.4019 446.763 77.5875C450.069 75.7731 453.96 75.3438 457.582 76.3938C461.204 77.4438 464.262 79.8874 466.086 83.1888C467.909 86.4901 468.349 90.3797 467.308 94.0048L463.756 119.586C463.654 120.316 463.397 121.016 463 121.638C462.604 122.259 462.079 122.788 461.46 123.188C460.841 123.588 460.143 123.85 459.413 123.956C458.684 124.062 457.94 124.01 457.233 123.803L432.373 116.517C431.665 116.31 431.011 115.953 430.454 115.47C429.897 114.987 429.451 114.389 429.146 113.718Z" fill="#1E1E1E"/>
<path d="M617.485 487.041H1.19113C0.87594 487.04 0.573962 486.914 0.35141 486.691C0.128858 486.468 0.00390625 486.166 0.00390625 485.85C0.00390625 485.535 0.128858 485.233 0.35141 485.01C0.573962 484.786 0.87594 484.661 1.19113 484.66H617.485C617.801 484.66 618.104 484.785 618.327 485.008C618.55 485.232 618.676 485.535 618.676 485.85C618.676 486.166 618.55 486.469 618.327 486.692C618.104 486.916 617.801 487.041 617.485 487.041Z" fill="#CACACA"/>
<path d="M120.112 360.524C139.89 360.524 155.923 344.491 155.923 324.713C155.923 304.935 139.89 288.902 120.112 288.902C100.334 288.902 84.3008 304.935 84.3008 324.713C84.3008 344.491 100.334 360.524 120.112 360.524Z" fill="#FFD858"/>
<path d="M115.227 343.35C114.609 343.35 113.999 343.206 113.446 342.93C112.893 342.653 112.412 342.251 112.041 341.757L102.271 328.73C101.637 327.885 101.365 326.823 101.515 325.777C101.664 324.731 102.223 323.787 103.068 323.153C103.913 322.52 104.976 322.247 106.021 322.397C107.067 322.546 108.011 323.105 108.645 323.95L115.037 332.472L131.453 307.848C131.742 307.411 132.115 307.035 132.55 306.742C132.985 306.45 133.473 306.246 133.987 306.142C134.501 306.038 135.03 306.037 135.544 306.139C136.059 306.24 136.548 306.442 136.984 306.732C137.42 307.023 137.795 307.397 138.086 307.833C138.377 308.269 138.58 308.758 138.682 309.272C138.784 309.786 138.783 310.315 138.68 310.829C138.577 311.343 138.374 311.832 138.082 312.267L118.542 341.576C118.189 342.107 117.713 342.544 117.156 342.853C116.598 343.161 115.975 343.331 115.338 343.349C115.301 343.35 115.264 343.35 115.227 343.35Z" fill="white"/>
<path d="M272.595 134.501C272.483 134.501 272.372 134.488 272.264 134.464L241.264 127.464C240.876 127.376 240.539 127.137 240.327 126.801C240.115 126.465 240.045 126.058 240.132 125.671C240.22 125.283 240.458 124.946 240.794 124.733C241.13 124.52 241.536 124.45 241.924 124.537L272.924 131.537C273.284 131.618 273.601 131.829 273.815 132.13C274.029 132.43 274.125 132.799 274.084 133.166C274.044 133.533 273.869 133.871 273.595 134.118C273.32 134.364 272.964 134.5 272.595 134.501Z" fill="white"/>
<path d="M153.289 416.236C153.18 416.259 153.069 416.269 152.957 416.268L121.181 415.732C120.784 415.725 120.406 415.56 120.13 415.274C119.854 414.989 119.703 414.605 119.709 414.208C119.716 413.81 119.88 413.432 120.165 413.155C120.45 412.879 120.834 412.727 121.231 412.733L153.007 413.268C153.376 413.274 153.73 413.416 154 413.667C154.271 413.917 154.44 414.259 154.475 414.626C154.51 414.993 154.408 415.361 154.189 415.658C153.971 415.955 153.65 416.161 153.289 416.236Z" fill="#E6E6E6"/>
<path d="M164.289 433.236C164.18 433.259 164.069 433.269 163.957 433.268L132.181 432.732C131.784 432.725 131.406 432.56 131.13 432.274C130.854 431.989 130.703 431.605 130.709 431.208C130.716 430.81 130.88 430.432 131.165 430.155C131.45 429.879 131.834 429.727 132.231 429.733L164.007 430.268C164.376 430.274 164.73 430.416 165 430.667C165.271 430.917 165.44 431.259 165.475 431.626C165.51 431.993 165.408 432.361 165.189 432.658C164.971 432.955 164.65 433.161 164.289 433.236Z" fill="#E6E6E6"/>
</g>
<defs>
<clipPath id="clip0_113_138">
<rect width="618.675" height="487.325" fill="white"/>
</clipPath>
</defs>
</svg>
