<svg xmlns="http://www.w3.org/2000/svg" fill="none" viewBox="0 0 16 16" id="Credit-Card-Duotone--Streamline-Phosphor" height="16" width="16"><desc>Credit Card Duotone Streamline Icon: https://streamlinehq.com</desc><g id="credit-card-duotone"><path id="Vector" fill="#ffd858" d="M15.28 5.76v6.72c0 0.1485375 -0.0590125 0.2909875 -0.1640125 0.3959875s-0.24745 0.1640125 -0.3959875 0.1640125H1.28c-0.14851875 0 -0.2909625 -0.0590125 -0.39598125 -0.1640125 -0.1050125 -0.105 -0.16401875 -0.24745 -0.16401875 -0.3959875V5.76h14.56Z" stroke-width="0.0625"></path><path id="Vector_2" fill="#000000" d="M14.72 2.4H1.28c-0.29704375 0 -0.58191875 0.118 -0.79195625 0.32804375C0.278 2.93808125 0.16 3.22295625 0.16 3.52v8.96c0 0.2970125 0.118 0.5819125 0.32804375 0.79198125 0.2100375 0.21 0.4949125 0.32801875 0.79195625 0.32801875h13.44c0.2970125 0 0.5819125 -0.11801875 0.79198125 -0.32801875 0.21 -0.21006875 0.32801875 -0.49496875 0.32801875 -0.79198125V3.52c0 -0.29704375 -0.11801875 -0.58191875 -0.32801875 -0.79195625C15.3019125 2.518 15.0170125 2.4 14.72 2.4Zm0 1.12V5.2H1.28V3.52h13.44Zm0 8.96H1.28v-6.16h13.44v6.16ZM13.6 10.8c0 0.1485375 -0.0590125 0.2909875 -0.1640125 0.3959875s-0.24745 0.1640125 -0.3959875 0.1640125H10.8c-0.1485375 0 -0.2909875 -0.0590125 -0.3959875 -0.1640125s-0.1640125 -0.24745 -0.1640125 -0.3959875 0.0590125 -0.2909875 0.1640125 -0.3959875 0.24745 -0.1640125 0.3959875 -0.1640125h2.24c0.1485375 0 0.2909875 0.0590125 0.3959875 0.1640125S13.6 10.6514625 13.6 10.8Zm-4.48 0c0 0.1485375 -0.0590125 0.2909875 -0.1640125 0.3959875s-0.24745 0.1640125 -0.3959875 0.1640125h-1.12c-0.1485375 0 -0.2909875 -0.0590125 -0.3959875 -0.1640125s-0.1640125 -0.24745 -0.1640125 -0.3959875 0.0590125 -0.2909875 0.1640125 -0.3959875 0.24745 -0.1640125 0.3959875 -0.1640125h1.12c0.1485375 0 0.2909875 0.0590125 0.3959875 0.1640125s0.1640125 0.24745 0.1640125 0.3959875Z" stroke-width="0.0625"></path></g></svg>