<svg width="800" height="690" viewBox="0 0 800 690" fill="none" xmlns="http://www.w3.org/2000/svg">
<g clip-path="url(#clip0_105_66)">
<path d="M601.324 519.629C599 519.629 596.72 519.005 594.72 517.822C592.721 516.64 591.075 514.942 589.956 512.906L575.342 486.448C574.224 484.42 573.668 482.13 573.731 479.814C573.795 477.499 574.476 475.243 575.704 473.279C576.932 471.316 578.663 469.716 580.716 468.645C582.77 467.574 585.073 467.072 587.386 467.189L613.916 468.545C616.351 468.681 618.701 469.495 620.699 470.894C622.697 472.293 624.265 474.223 625.226 476.465L632.973 494.787C633.666 496.428 634.015 498.194 633.998 499.975C633.981 501.757 633.598 503.516 632.873 505.143C632.148 506.77 631.096 508.231 629.783 509.435C628.47 510.639 626.924 511.56 625.24 512.142L605.591 518.922C604.223 519.4 602.784 519.644 601.335 519.643L601.324 519.629Z" fill="#1E1E1E"/>
<path d="M643.236 678.862L660.48 675.14L654.304 606.9L628.879 612.392L643.236 678.862Z" fill="#9F616A"/>
<path d="M702.202 665.723C702.94 666.509 703.854 669.364 704.079 670.423C704.246 671.191 704.26 671.984 704.12 672.758C703.98 673.531 703.688 674.269 703.262 674.93C702.836 675.59 702.283 676.16 701.636 676.606C700.989 677.052 700.26 677.365 699.491 677.529L646.122 689.063C645.063 689.289 643.957 689.087 643.046 688.501C642.136 687.915 641.494 686.993 641.261 685.935L640.78 683.705C640.78 683.705 636.689 677.593 640.347 668.193C640.347 668.193 648.496 673.182 656.404 660.893L658.217 654.862L683.177 665.962L695.432 664.855C698.111 664.614 700.357 663.732 702.185 665.721H702.201L702.202 665.723Z" fill="#1E1E1E"/>
<path d="M674.066 673.648L688.439 663.448L655.923 603.133L634.701 618.177L674.066 673.648Z" fill="#9F616A"/>
<path d="M723.106 638.357C724.489 639.336 725.694 640.546 726.667 641.934C727.585 643.227 727.952 644.832 727.688 646.397C727.423 647.961 726.548 649.356 725.255 650.275L680.725 681.875C679.841 682.498 678.746 682.747 677.679 682.567C676.613 682.387 675.66 681.792 675.03 680.913L673.715 679.052C673.715 679.052 667.555 675.042 667.215 664.952C667.215 664.952 676.663 666.332 679.115 651.926L678.409 645.67L705.727 646.055L716.571 640.216C718.945 638.933 720.661 637.248 723.116 638.355L723.106 638.357Z" fill="#1E1E1E"/>
<path d="M485.97 364.529C485.97 364.529 461.863 397.306 510.077 434.166L608.538 402.702L573.366 329.359L542.221 312.278L485.958 364.516L485.97 364.529Z" fill="#1E1E1E"/>
<path d="M608.552 402.718L646.724 477.058L670.845 631.796L640.708 633.801L610.559 487.112L557.309 407.738L594.486 390.657" fill="#1E1E1E"/>
<path d="M510.092 410.825V434.181L578.416 509.213C578.416 509.213 578.416 565.476 604.542 591.603L634.679 637.825L660.805 623.763L622.633 489.132L554.309 400.712L510.109 410.825H510.095H510.092Z" fill="#1E1E1E"/>
<path d="M558.636 179.295L545.763 228.359L496.699 218.708C496.699 218.708 530.933 183.408 526.115 167.321L558.647 179.295H558.633H558.636Z" fill="#9F616A"/>
<path d="M521.141 186.697L551.278 200.763C551.278 200.763 566.786 210.241 567.078 216.563C567.37 222.885 565.347 253.019 565.347 253.019C565.347 253.019 577.407 265.08 569.372 289.186L573.397 329.378L482.969 377.597L491.005 293.202L486.98 214.837L521.142 186.705L521.141 186.697Z" fill="#FFD858"/>
<path d="M494.092 415.384C497.626 423.477 504.667 428.224 509.817 425.973C514.967 423.722 516.28 415.341 512.76 407.247C511.396 403.991 509.27 401.111 506.56 398.847L491.167 364.728L475.312 372.287L492.159 405.124C491.973 408.649 492.636 412.166 494.092 415.381V415.384Z" fill="#9F616A"/>
<path d="M510.091 219.862C510.091 219.862 487.991 205.796 479.954 221.867C471.917 237.938 453.828 320.325 453.828 320.325L479.954 398.69L504.061 388.649L482.955 304.315L510.077 219.862H510.091Z" fill="#FFD858"/>
<path d="M623.383 402.733C629.644 408.965 637.939 410.783 641.907 406.787C645.875 402.791 643.999 394.525 637.738 388.292C635.268 385.77 632.231 383.876 628.88 382.767L602.003 356.712L590.043 369.58L617.803 393.889C618.93 397.237 620.845 400.264 623.386 402.718L623.383 402.733Z" fill="#9F616A"/>
<path d="M566.224 215.058C566.224 215.058 527.691 213.488 526.133 231.388C524.575 249.288 550.933 329.188 550.933 329.188L604.095 392.419L622.806 374.198L572.126 303.566L566.239 215.058H566.224Z" fill="#FFD858"/>
<path d="M579.583 153.068C579.583 159.69 577.619 166.164 573.94 171.671C570.261 177.177 565.031 181.469 558.913 184.003C552.795 186.537 546.062 187.201 539.567 185.909C533.072 184.617 527.105 181.428 522.422 176.745C517.74 172.062 514.551 166.096 513.259 159.6C511.967 153.105 512.63 146.373 515.164 140.254C517.698 134.136 521.99 128.906 527.497 125.227C533.003 121.548 539.477 119.584 546.099 119.584C550.497 119.584 554.851 120.449 558.913 122.132C562.976 123.815 566.668 126.281 569.777 129.39C572.886 132.5 575.353 136.191 577.035 140.254C578.718 144.316 579.584 148.671 579.583 153.068Z" fill="#9F616A"/>
<path d="M543.431 108.057C544.398 108.62 545.696 107.768 546.013 106.686C546.211 105.574 546.071 104.429 545.613 103.397C545.007 101.608 544.413 99.834 543.813 98.045C542.529 94.251 541.173 90.327 538.403 87.445C534.213 83.085 527.548 81.974 521.561 82.782C513.872 83.821 506.283 87.976 502.706 94.871C499.129 101.766 500.657 111.371 507.121 115.671C497.902 126.231 494.7 138.003 495.205 151.997C495.71 165.991 510.973 178.888 520.927 188.756C523.149 187.414 525.168 181.096 523.942 178.802C522.716 176.508 524.476 173.854 522.961 171.733C521.446 169.612 520.177 172.988 521.706 170.882C522.673 169.555 518.906 166.511 520.335 165.717C527.274 161.88 529.582 153.224 533.935 146.602C536.601 142.612 540.117 139.262 544.229 136.789C548.342 134.317 552.95 132.785 557.724 132.302C562.975 131.811 568.515 132.702 572.814 135.75C577.113 138.798 579.897 144.233 578.902 149.412C580.201 148.095 581.182 146.499 581.769 144.746C582.357 142.992 582.535 141.127 582.292 139.294C582.048 137.46 581.388 135.707 580.363 134.168C579.338 132.628 577.975 131.344 576.377 130.412C577.311 127.197 577.415 123.799 576.679 120.533C575.943 117.267 574.392 114.241 572.169 111.738C567.682 106.79 549.491 107.638 542.941 108.938L543.441 108.072L543.427 108.058L543.431 108.057Z" fill="#1E1E1E"/>
<path d="M542.421 132.496C533.751 133.434 527.49 140.95 522.195 147.889C519.151 151.889 515.948 156.3 516.035 161.334C516.107 166.412 519.512 170.783 521.142 175.587C522.409 179.559 522.493 183.814 521.383 187.833C520.274 191.853 518.02 195.462 514.895 198.222C518.043 198.698 521.254 197.952 523.87 196.136C526.485 194.32 528.307 191.572 528.961 188.455C530.216 181.17 524.691 174.13 525.34 166.755C525.917 160.263 531.04 155.272 535.381 150.41C539.722 145.548 543.82 139.11 541.815 132.91L542.421 132.492V132.496Z" fill="#1E1E1E"/>
<path d="M756.913 687.44C756.914 687.666 756.87 687.889 756.784 688.098C756.698 688.307 756.572 688.496 756.412 688.656C756.252 688.815 756.063 688.942 755.854 689.028C755.646 689.114 755.422 689.158 755.196 689.157H1.71742C1.48852 689.163 1.26082 689.122 1.04774 689.039C0.834647 688.955 0.640466 688.829 0.47662 688.669C0.312775 688.509 0.182573 688.318 0.0936764 688.107C0.00477994 687.896 -0.0410156 687.67 -0.0410156 687.441C-0.0410156 687.212 0.00477994 686.985 0.0936764 686.774C0.182573 686.563 0.312775 686.372 0.47662 686.212C0.640466 686.052 0.834647 685.927 1.04774 685.843C1.26082 685.759 1.48852 685.719 1.71742 685.724H755.2C755.426 685.724 755.649 685.768 755.857 685.855C756.065 685.941 756.254 686.067 756.413 686.227C756.572 686.386 756.698 686.575 756.784 686.784C756.87 686.992 756.914 687.215 756.913 687.44Z" fill="#F2F2F2"/>
<path d="M443.551 378.28H221.892C209.821 378.28 198.245 383.075 189.709 391.611C181.174 400.146 176.379 411.722 176.379 423.793V638.732C176.379 644.709 177.556 650.627 179.843 656.149C182.131 661.671 185.483 666.689 189.709 670.915C193.936 675.141 198.953 678.494 204.475 680.781C209.997 683.068 215.915 684.245 221.892 684.245H443.551C455.622 684.245 467.198 679.45 475.733 670.915C484.269 662.38 489.064 650.803 489.064 638.732V423.793C489.064 411.722 484.269 400.146 475.733 391.611C467.198 383.075 455.622 378.28 443.551 378.28Z" fill="white"/>
<path d="M443.879 685.721H222.22C209.868 685.707 198.025 680.794 189.291 672.059C180.556 663.325 175.643 651.482 175.629 639.13V424.192C175.643 411.84 180.556 399.997 189.291 391.263C198.025 382.528 209.868 377.615 222.22 377.601H443.88C456.232 377.615 468.075 382.528 476.809 391.263C485.544 399.997 490.457 411.84 490.471 424.192V639.13C490.457 651.483 485.544 663.325 476.809 672.06C468.074 680.794 456.231 685.707 443.879 685.721ZM222.22 379.757C210.439 379.77 199.144 384.456 190.814 392.787C182.483 401.117 177.797 412.412 177.784 424.193V639.13C177.797 650.911 182.483 662.206 190.814 670.536C199.144 678.866 210.439 683.552 222.22 683.565H443.88C455.661 683.552 466.956 678.866 475.286 670.536C483.617 662.206 488.303 650.911 488.316 639.13V424.192C488.303 412.411 483.617 401.116 475.286 392.786C466.956 384.455 455.661 379.769 443.88 379.756L222.22 379.757Z" fill="#1E1E1E"/>
<path d="M222.699 399.823C225.537 399.823 227.839 397.522 227.839 394.683C227.839 391.844 225.537 389.543 222.699 389.543C219.86 389.543 217.559 391.844 217.559 394.683C217.559 397.522 219.86 399.823 222.699 399.823Z" fill="#3F3D56"/>
<path d="M236.835 399.823C239.674 399.823 241.975 397.522 241.975 394.683C241.975 391.844 239.674 389.543 236.835 389.543C233.997 389.543 231.695 391.844 231.695 394.683C231.695 397.522 233.997 399.823 236.835 399.823Z" fill="#3F3D56"/>
<path d="M250.968 399.823C253.807 399.823 256.108 397.522 256.108 394.683C256.108 391.844 253.807 389.543 250.968 389.543C248.129 389.543 245.828 391.844 245.828 394.683C245.828 397.522 248.129 399.823 250.968 399.823Z" fill="#3F3D56"/>
<path d="M441.73 639.428H238.41C236.497 639.428 234.663 638.668 233.31 637.315C231.957 635.963 231.197 634.128 231.197 632.215C231.197 630.302 231.957 628.467 233.31 627.115C234.663 625.762 236.497 625.002 238.41 625.002H441.73C443.643 625.002 445.478 625.762 446.831 627.115C448.183 628.467 448.943 630.302 448.943 632.215C448.943 634.128 448.183 635.963 446.831 637.315C445.478 638.668 443.643 639.428 441.73 639.428Z" fill="#E6E6E6"/>
<path d="M370.609 639.4H223.417C220.18 639.4 217.555 636.171 217.555 632.187C217.555 628.203 220.179 624.974 223.417 624.974H370.609C373.846 624.974 376.471 628.203 376.471 632.187C376.471 636.171 373.847 639.4 370.609 639.4Z" fill="#FFD858"/>
<path d="M333.065 580.896C324.538 580.894 316.275 577.944 309.676 572.546C303.076 567.148 298.546 559.634 296.853 551.277C295.16 542.921 296.409 534.236 300.387 526.695C304.366 519.154 310.829 513.221 318.683 509.901C323.233 507.977 328.124 506.99 333.065 507.001C333.543 506.993 334.019 507.08 334.463 507.258C334.908 507.436 335.312 507.7 335.654 508.036C335.995 508.371 336.266 508.772 336.451 509.213C336.636 509.655 336.732 510.129 336.732 510.607C336.732 511.086 336.636 511.56 336.451 512.002C336.266 512.443 335.995 512.843 335.654 513.179C335.312 513.515 334.908 513.779 334.463 513.957C334.019 514.135 333.543 514.222 333.065 514.214C326.205 514.219 319.558 516.595 314.25 520.94C308.941 525.284 305.298 531.33 303.936 538.053C302.574 544.776 303.578 551.763 306.778 557.83C309.977 563.898 315.176 568.673 321.493 571.347C326.014 573.26 330.939 574.024 335.827 573.569C340.715 573.115 345.415 571.456 349.506 568.743C353.597 566.029 356.953 562.344 359.272 558.017C361.592 553.69 362.804 548.856 362.8 543.947C362.792 543.468 362.879 542.993 363.057 542.548C363.234 542.104 363.499 541.699 363.834 541.358C364.17 541.016 364.57 540.745 365.012 540.56C365.453 540.375 365.927 540.28 366.406 540.28C366.885 540.28 367.359 540.375 367.8 540.56C368.242 540.745 368.642 541.016 368.978 541.358C369.313 541.699 369.578 542.104 369.755 542.548C369.933 542.993 370.021 543.468 370.013 543.947C370.016 548.8 369.063 553.607 367.208 558.091C365.352 562.576 362.631 566.65 359.199 570.082C355.768 573.514 351.693 576.235 347.209 578.091C342.724 579.946 337.918 580.9 333.065 580.896Z" fill="#1E1E1E"/>
<path d="M333.065 523.515C334.365 523.5 335.631 523.93 336.653 524.734C337.675 525.537 338.391 526.666 338.684 527.933C338.737 528.156 338.843 528.363 338.992 528.537C339.141 528.711 339.329 528.847 339.541 528.935C339.753 529.023 339.982 529.059 340.21 529.042C340.439 529.024 340.66 528.952 340.856 528.833C341.52 528.419 342.263 528.145 343.038 528.028C343.812 527.912 344.603 527.956 345.36 528.156C346.117 528.357 346.825 528.711 347.44 529.196C348.055 529.681 348.565 530.287 348.937 530.976C349.438 531.865 349.69 532.873 349.667 533.894C349.644 534.915 349.347 535.91 348.806 536.776C348.686 536.972 348.615 537.193 348.598 537.421C348.58 537.649 348.616 537.879 348.704 538.09C348.792 538.302 348.928 538.49 349.102 538.638C349.276 538.787 349.483 538.893 349.706 538.947C350.965 539.253 352.086 539.973 352.887 540.992C353.689 542.011 354.124 543.27 354.124 544.566C354.124 545.862 353.689 547.121 352.887 548.14C352.086 549.159 350.965 549.879 349.706 550.185C349.483 550.239 349.276 550.345 349.102 550.494C348.928 550.643 348.791 550.831 348.704 551.042C348.616 551.254 348.579 551.483 348.597 551.712C348.615 551.94 348.686 552.161 348.806 552.357C349.347 553.223 349.645 554.218 349.668 555.239C349.691 556.26 349.439 557.268 348.938 558.157C348.566 558.846 348.057 559.452 347.442 559.937C346.827 560.422 346.119 560.776 345.362 560.977C344.605 561.178 343.814 561.222 343.04 561.106C342.265 560.99 341.522 560.716 340.858 560.302C340.662 560.183 340.441 560.112 340.213 560.094C339.984 560.076 339.755 560.113 339.543 560.201C339.332 560.288 339.144 560.425 338.995 560.599C338.846 560.773 338.741 560.979 338.687 561.202C338.381 562.462 337.661 563.582 336.642 564.384C335.623 565.185 334.364 565.621 333.068 565.621C331.771 565.621 330.512 565.185 329.493 564.384C328.474 563.582 327.754 562.462 327.449 561.202C327.395 560.979 327.289 560.772 327.14 560.598C326.991 560.424 326.803 560.288 326.591 560.2C326.38 560.112 326.15 560.076 325.922 560.093C325.693 560.111 325.472 560.183 325.277 560.302C324.612 560.716 323.869 560.99 323.095 561.107C322.32 561.223 321.53 561.18 320.772 560.979C320.015 560.778 319.307 560.424 318.692 559.939C318.077 559.454 317.568 558.848 317.196 558.159C316.694 557.27 316.442 556.262 316.465 555.241C316.488 554.22 316.786 553.225 317.327 552.359C317.446 552.163 317.517 551.942 317.535 551.714C317.552 551.486 317.516 551.256 317.428 551.045C317.34 550.833 317.204 550.645 317.03 550.497C316.856 550.348 316.649 550.242 316.427 550.188C315.167 549.882 314.046 549.162 313.245 548.143C312.443 547.124 312.008 545.865 312.008 544.569C312.008 543.273 312.443 542.014 313.245 540.995C314.046 539.976 315.167 539.256 316.427 538.95C316.649 538.896 316.856 538.79 317.03 538.641C317.204 538.492 317.341 538.304 317.429 538.093C317.516 537.881 317.553 537.652 317.535 537.423C317.517 537.195 317.446 536.974 317.327 536.778C316.785 535.912 316.487 534.917 316.464 533.896C316.441 532.875 316.693 531.867 317.195 530.978C317.566 530.289 318.075 529.683 318.69 529.197C319.305 528.712 320.013 528.358 320.77 528.157C321.527 527.956 322.318 527.912 323.092 528.028C323.867 528.144 324.61 528.418 325.275 528.832C325.501 528.973 325.763 529.048 326.03 529.048C326.356 529.048 326.674 528.938 326.931 528.736C327.188 528.533 327.369 528.251 327.446 527.933C327.738 526.666 328.455 525.537 329.477 524.734C330.499 523.93 331.765 523.5 333.065 523.515ZM340.098 533.374C338.801 533.374 337.542 532.938 336.522 532.136C335.503 531.334 334.783 530.213 334.478 528.953C334.401 528.636 334.22 528.354 333.963 528.153C333.707 527.951 333.391 527.842 333.065 527.842C332.739 527.842 332.422 527.951 332.166 528.153C331.91 528.354 331.728 528.636 331.652 528.953C331.438 529.838 331.018 530.659 330.427 531.351C329.835 532.043 329.088 532.585 328.247 532.933C327.407 533.282 326.495 533.427 325.588 533.356C324.68 533.285 323.802 533.001 323.026 532.527C322.796 532.378 322.529 532.296 322.256 532.29C321.99 532.302 321.733 532.382 321.507 532.522C321.281 532.662 321.096 532.857 320.968 533.09C320.84 533.309 320.777 533.56 320.787 533.814C320.797 534.068 320.878 534.313 321.023 534.522C321.496 535.299 321.78 536.178 321.85 537.085C321.921 537.993 321.776 538.904 321.427 539.745C321.078 540.587 320.536 541.333 319.845 541.925C319.153 542.517 318.331 542.938 317.447 543.152C317.13 543.229 316.848 543.41 316.647 543.666C316.445 543.922 316.335 544.239 316.335 544.565C316.335 544.891 316.445 545.208 316.647 545.464C316.848 545.72 317.13 545.901 317.447 545.978C318.332 546.192 319.155 546.613 319.847 547.205C320.539 547.798 321.082 548.546 321.43 549.388C321.778 550.23 321.923 551.142 321.852 552.05C321.781 552.959 321.496 553.838 321.021 554.615C320.876 554.824 320.795 555.07 320.785 555.324C320.776 555.577 320.839 555.829 320.967 556.048C321.095 556.28 321.28 556.476 321.506 556.616C321.731 556.756 321.989 556.836 322.254 556.848C322.527 556.842 322.792 556.76 323.022 556.612C323.799 556.138 324.677 555.855 325.585 555.784C326.493 555.714 327.404 555.859 328.245 556.208C329.086 556.556 329.833 557.098 330.425 557.79C331.017 558.482 331.437 559.303 331.652 560.188C331.728 560.505 331.91 560.787 332.166 560.988C332.422 561.19 332.739 561.299 333.065 561.299C333.391 561.299 333.707 561.19 333.963 560.988C334.22 560.787 334.401 560.505 334.478 560.188C334.692 559.303 335.113 558.482 335.705 557.79C336.297 557.099 337.044 556.557 337.885 556.209C338.727 555.861 339.638 555.716 340.546 555.787C341.453 555.857 342.331 556.141 343.109 556.615C343.338 556.763 343.604 556.845 343.877 556.851C344.142 556.839 344.399 556.759 344.625 556.619C344.85 556.479 345.036 556.283 345.164 556.051C345.292 555.831 345.355 555.579 345.346 555.325C345.336 555.071 345.254 554.824 345.109 554.615C344.635 553.838 344.351 552.959 344.281 552.052C344.211 551.144 344.356 550.233 344.704 549.392C345.053 548.551 345.595 547.804 346.286 547.212C346.978 546.62 347.8 546.199 348.685 545.985C349.001 545.908 349.283 545.727 349.485 545.471C349.686 545.215 349.796 544.898 349.796 544.572C349.796 544.246 349.686 543.929 349.485 543.673C349.283 543.417 349.001 543.236 348.685 543.159C347.8 542.944 346.979 542.524 346.287 541.932C345.596 541.341 345.054 540.594 344.705 539.753C344.357 538.912 344.212 538.001 344.282 537.094C344.352 536.186 344.635 535.308 345.109 534.531C345.253 534.322 345.334 534.076 345.344 533.822C345.354 533.569 345.291 533.317 345.163 533.098C345.035 532.866 344.849 532.67 344.624 532.53C344.398 532.39 344.141 532.31 343.876 532.298C343.603 532.304 343.337 532.386 343.108 532.534C342.201 533.085 341.159 533.375 340.098 533.374Z" fill="#1E1E1E"/>
<path d="M333.065 553.033C331.391 553.033 329.755 552.537 328.364 551.607C326.972 550.677 325.888 549.356 325.248 547.81C324.607 546.264 324.44 544.562 324.766 542.921C325.093 541.28 325.898 539.772 327.082 538.589C328.265 537.406 329.773 536.6 331.414 536.273C333.055 535.947 334.756 536.115 336.302 536.755C337.848 537.395 339.17 538.48 340.1 539.871C341.029 541.263 341.526 542.898 341.526 544.572C341.523 546.815 340.631 548.966 339.044 550.552C337.458 552.138 335.308 553.03 333.065 553.033ZM328.931 544.572C328.931 545.389 329.173 546.189 329.627 546.869C330.081 547.548 330.727 548.078 331.483 548.391C332.238 548.704 333.069 548.786 333.871 548.626C334.673 548.467 335.41 548.073 335.988 547.495C336.566 546.917 336.96 546.18 337.119 545.378C337.279 544.576 337.197 543.745 336.884 542.99C336.571 542.234 336.041 541.589 335.361 541.135C334.681 540.68 333.882 540.438 333.065 540.438C331.969 540.439 330.918 540.875 330.144 541.65C329.369 542.425 328.933 543.475 328.932 544.571L328.931 544.572Z" fill="#1E1E1E"/>
<path d="M736.763 132.494C764.205 132.494 786.45 110.249 786.45 82.8081C786.45 55.3673 764.205 33.1221 736.763 33.1221C709.322 33.1221 687.076 55.3673 687.076 82.8081C687.076 110.249 709.322 132.494 736.763 132.494Z" fill="#F2F2F2"/>
<path d="M754.078 23.766C749.579 23.1939 745.025 23.1939 740.527 23.766C730.503 25.0813 721.068 29.2445 713.339 35.7617C705.611 42.2789 699.915 50.8765 696.927 60.534C695.567 64.935 694.798 69.4967 694.638 74.1C694.615 74.74 694.6 75.387 694.6 76.035C694.613 90.0078 700.17 103.404 710.05 113.285C719.93 123.165 733.327 128.722 747.3 128.735C748.422 128.735 749.543 128.697 750.65 128.63C753.247 128.467 755.829 128.11 758.374 127.561C770.528 124.953 781.369 118.132 788.981 108.304C796.593 98.4757 800.486 86.2731 799.971 73.8526C799.457 61.4321 794.568 49.5933 786.169 40.4285C777.77 31.2637 766.402 25.3629 754.074 23.769L754.078 23.766ZM763.797 124.501H763.789C759.546 125.949 755.13 126.827 750.657 127.113C749.55 127.188 748.429 127.226 747.307 127.226C733.735 127.209 720.724 121.811 711.127 112.214C701.53 102.617 696.131 89.6059 696.115 76.034C696.115 75.387 696.13 74.739 696.153 74.099C696.506 64.7772 699.399 55.7291 704.521 47.9322C709.642 40.1353 716.797 33.886 725.211 29.8594C733.626 25.8328 742.981 24.1821 752.266 25.0855C761.55 25.9889 770.412 29.4122 777.892 34.9854C785.373 40.5586 791.188 48.07 794.711 56.7079C798.233 65.3459 799.328 74.7821 797.877 83.9971C796.427 93.2121 792.486 101.856 786.48 108.994C780.475 116.132 772.633 121.493 763.802 124.499L763.797 124.501Z" fill="#1E1E1E"/>
<path d="M748.057 27.853H746.551V38.393H748.057V27.853Z" fill="#1E1E1E"/>
<path d="M258.026 429.831H225.247C224.136 429.833 223.071 430.276 222.285 431.061C221.499 431.847 221.057 432.912 221.055 434.023V472.512C221.057 473.623 221.499 474.688 222.285 475.474C223.071 476.26 224.136 476.702 225.247 476.704H258.026C259.137 476.702 260.202 476.26 260.988 475.474C261.773 474.688 262.216 473.623 262.218 472.512V434.023C262.216 432.912 261.773 431.847 260.988 431.061C260.202 430.276 259.137 429.833 258.026 429.831Z" fill="#D6D6E3"/>
<path d="M255.14 431.038H222.36C221.569 431.039 220.81 431.354 220.25 431.914C219.691 432.473 219.376 433.232 219.375 434.023V472.512C219.376 473.303 219.691 474.062 220.25 474.622C220.81 475.181 221.569 475.496 222.36 475.497H255.139C255.93 475.496 256.689 475.182 257.249 474.622C257.808 474.062 258.123 473.304 258.124 472.512V434.023C258.123 433.232 257.809 432.473 257.249 431.914C256.69 431.354 255.931 431.039 255.14 431.038Z" fill="#D6D6E3"/>
<path d="M713.764 41.4341L712.699 42.499L720.152 49.9519L721.217 48.887L713.764 41.4341Z" fill="#1E1E1E"/>
<path d="M699.121 75.2811V76.7871H709.661V75.2811H699.121Z" fill="#1E1E1E"/>
<path d="M712.699 109.571L713.764 110.636L721.217 103.183L720.152 102.118L712.699 109.571Z" fill="#1E1E1E"/>
<path d="M773.386 48.8843L774.451 49.9492L781.904 42.4963L780.839 41.4314L773.386 48.8843Z" fill="#1E1E1E"/>
<path d="M784.945 75.2811V76.7871H795.485V75.2811H784.945Z" fill="#1E1E1E"/>
<path d="M774.454 102.115L773.389 103.18L780.842 110.633L781.906 109.568L774.454 102.115Z" fill="#1E1E1E"/>
<path d="M748.057 113.676H746.551V124.216H748.057V113.676Z" fill="#1E1E1E"/>
<path d="M749.558 73.0229C748.907 72.5342 748.114 72.27 747.3 72.27C746.485 72.27 745.693 72.5342 745.041 73.0229C744.595 73.3617 744.228 73.7933 743.964 74.2879C743.631 74.9245 743.487 75.6433 743.549 76.3591C743.611 77.075 743.877 77.7581 744.315 78.3278C744.753 78.8974 745.345 79.3298 746.021 79.5738C746.697 79.8178 747.429 79.8633 748.129 79.7048C748.83 79.5463 749.471 79.1905 749.976 78.6794C750.481 78.1683 750.83 77.5233 750.98 76.8207C751.13 76.118 751.076 75.387 750.824 74.714C750.572 74.041 750.133 73.4542 749.558 73.0229ZM747.3 78.2929C746.702 78.2913 746.128 78.0529 745.705 77.6299C745.282 77.2068 745.043 76.6334 745.041 76.0349C745.045 75.578 745.184 75.1324 745.441 74.7549C745.662 74.4355 745.961 74.1784 746.31 74.0085C746.659 73.8386 747.046 73.7616 747.434 73.785C747.821 73.8084 748.196 73.9314 748.522 74.142C748.848 74.3527 749.114 74.6439 749.295 74.9875C749.475 75.3312 749.564 75.7156 749.553 76.1036C749.541 76.4916 749.43 76.8701 749.229 77.2024C749.029 77.5348 748.746 77.8098 748.408 78.0008C748.07 78.1918 747.689 78.2924 747.3 78.2929Z" fill="#1E1E1E"/>
<path d="M754.078 10.5381H740.527V24.0891H754.078V10.5381Z" fill="#1E1E1E"/>
<path d="M747.302 12.798C757.281 12.798 765.37 9.93307 765.37 6.399C765.37 2.86493 757.281 0 747.302 0C737.324 0 729.234 2.86493 729.234 6.399C729.234 9.93307 737.324 12.798 747.302 12.798Z" fill="#1E1E1E"/>
<path d="M767.374 55.114L763.814 52.333L748.056 72.5029L751.615 75.2839L767.374 55.114Z" fill="#1E1E1E"/>
<path d="M254.528 426.67H221.749C220.638 426.672 219.572 427.114 218.787 427.9C218.001 428.686 217.559 429.751 217.557 430.862V469.351C217.559 470.462 218.001 471.527 218.787 472.313C219.572 473.098 220.638 473.541 221.749 473.543H254.528C255.639 473.541 256.704 473.098 257.49 472.313C258.275 471.527 258.718 470.462 258.72 469.351V430.862C258.718 429.751 258.275 428.686 257.49 427.9C256.704 427.114 255.639 426.672 254.528 426.67Z" fill="#FFD858"/>
<path d="M254.527 427.877H221.747C220.955 427.878 220.197 428.193 219.637 428.752C219.078 429.312 218.763 430.071 218.762 430.862V469.351C218.763 470.142 219.078 470.901 219.637 471.46C220.197 472.02 220.955 472.335 221.747 472.336H254.526C255.317 472.335 256.076 472.02 256.636 471.461C257.195 470.901 257.51 470.142 257.511 469.351V430.862C257.51 430.071 257.195 429.312 256.636 428.752C256.077 428.193 255.318 427.878 254.527 427.877Z" fill="#FFD858"/>
<path d="M389.301 449.97C389.301 450.922 389.187 451.687 389.046 451.687H277.056C276.914 451.687 276.801 450.922 276.801 449.97C276.801 449.018 276.915 448.253 277.056 448.253H389.044C389.186 448.254 389.301 449.018 389.301 449.97Z" fill="#D6D6E3"/>
<path d="M445.119 430.158H412.34C411.229 430.16 410.164 430.603 409.379 431.388C408.593 432.174 408.151 433.239 408.148 434.35V472.839C408.151 473.95 408.593 475.015 409.379 475.801C410.164 476.587 411.229 477.029 412.34 477.031H445.119C446.231 477.029 447.296 476.587 448.081 475.801C448.867 475.015 449.309 473.95 449.311 472.839V434.35C449.309 433.239 448.867 432.174 448.081 431.388C447.296 430.603 446.231 430.16 445.119 430.158Z" fill="#D6D6E3"/>
<path d="M445.119 431.365H412.339C411.547 431.366 410.789 431.681 410.229 432.241C409.669 432.8 409.355 433.559 409.354 434.35V472.839C409.355 473.631 409.669 474.389 410.229 474.949C410.789 475.508 411.547 475.823 412.339 475.824H445.118C445.909 475.823 446.668 475.509 447.227 474.949C447.787 474.389 448.102 473.631 448.103 472.839V434.35C448.102 433.559 447.787 432.8 447.228 432.241C446.668 431.681 445.91 431.366 445.119 431.365Z" fill="#D6D6E3"/>
<path d="M441.287 426.999H408.508C407.397 427.001 406.332 427.443 405.547 428.229C404.761 429.015 404.319 430.08 404.316 431.191V469.68C404.319 470.791 404.761 471.856 405.547 472.642C406.332 473.428 407.397 473.87 408.508 473.872H441.287C442.399 473.87 443.464 473.428 444.249 472.642C445.035 471.856 445.477 470.791 445.479 469.68V431.191C445.477 430.08 445.035 429.015 444.249 428.229C443.464 427.443 442.399 427.001 441.287 426.999Z" fill="#FFD858"/>
<path d="M441.286 428.206H408.507C407.715 428.207 406.957 428.522 406.397 429.081C405.837 429.641 405.523 430.4 405.521 431.191V469.68C405.523 470.471 405.837 471.23 406.397 471.79C406.957 472.349 407.715 472.664 408.507 472.665H441.285C442.077 472.664 442.836 472.35 443.395 471.79C443.955 471.23 444.27 470.471 444.27 469.68V431.191C444.27 430.4 443.955 429.641 443.396 429.082C442.836 428.522 442.078 428.207 441.286 428.206Z" fill="#FFD858"/>
</g>
<defs>
<clipPath id="clip0_105_66">
<rect width="800" height="689.157" fill="white"/>
</clipPath>
</defs>
</svg>
