<svg xmlns="http://www.w3.org/2000/svg" fill="none" viewBox="0 0 16 16" id="Truck-Duotone--Streamline-Phosphor" height="16" width="16"><desc>Truck Duotone Streamline Icon: https://streamlinehq.com</desc><g id="truck-duotone"><path id="Vector" fill="#ffd858" d="M15.5 7.5v4c0 0.132625 -0.0526875 0.2598125 -0.1464375 0.3535625S15.132625 12 15 12h-1.5c0 -0.3978125 -0.1580625 -0.779375 -0.4393125 -1.0606875C12.779375 10.6580625 12.3978125 10.5 12 10.5s-0.779375 0.1580625 -1.0606875 0.4393125C10.6580625 11.220625 10.5 11.6021875 10.5 12h-4c0 -0.3978125 -0.1580625 -0.779375 -0.4393375 -1.0606875C5.77935625 10.6580625 5.397825 10.5 5 10.5c-0.397825 0 -0.77935625 0.1580625 -1.0606625 0.4393125C3.6580375 11.220625 3.5 11.6021875 3.5 12H2c-0.13260625 0 -0.2597875 -0.0526875 -0.35355625 -0.1464375C1.55268125 11.7598125 1.5 11.632625 1.5 11.5v-2.5h10v-1.5h4Z" stroke-width="0.0625"></path><path id="Vector_2" fill="#000000" d="m15.96375 7.3125 -0.875 -2.1875c-0.07425 -0.18508125 -0.2023125 -0.34360625 -0.3676875 -0.45504375 -0.165375 -0.11143125 -0.360375 -0.17064375 -0.5598125 -0.16995625H12v-0.5c0 -0.13260625 -0.0526875 -0.2597875 -0.1464375 -0.35355625C11.7598125 3.55268125 11.632625 3.5 11.5 3.5H2c-0.26521875 0 -0.51956875 0.10535625 -0.70710625 0.29289375C1.10535625 3.98043125 1 4.23478125 1 4.5v7c0 0.2651875 0.10535625 0.5195625 0.29289375 0.707125C1.48043125 12.394625 1.73478125 12.5 2 12.5h1.0625c0.11015 0.4301875 0.36035 0.8115 0.71115625 1.0838125 0.35080625 0.2723125 0.78225625 0.420125 1.22634375 0.420125 0.4440875 0 0.8755375 -0.1478125 1.22634375 -0.420125C6.577125 13.3115 6.827375 12.9301875 6.9375 12.5h3.125c0.110125 0.4301875 0.360375 0.8115 0.711125 1.0838125 0.3508125 0.2723125 0.7823125 0.420125 1.226375 0.420125s0.8755625 -0.1478125 1.226375 -0.420125c0.35075 -0.2723125 0.601 -0.653625 0.711125 -1.0838125h1.0625c0.2651875 0 0.5195625 -0.105375 0.707125 -0.292875 0.1875 -0.1875625 0.292875 -0.4419375 0.292875 -0.707125v-4c0.0001875 -0.06425 -0.012125 -0.1279375 -0.03625 -0.1875ZM12 5.5h2.16125l0.6 1.5H12V5.5ZM2 4.5h9v4H2V4.5Zm3 8.5c-0.19778125 0 -0.39111875 -0.058625 -0.55556875 -0.1685 -0.16445 -0.1099375 -0.292625 -0.2660625 -0.3683125 -0.4488125 -0.0756875 -0.18275 -0.0954875 -0.3838125 -0.05690625 -0.57775 0.0385875 -0.194 0.13383125 -0.3721875 0.27368125 -0.5120625 0.13985 -0.1398125 0.3180375 -0.2350625 0.51201875 -0.2736875 0.19398125 -0.0385625 0.39504375 -0.01875 0.57776875 0.0569375 0.18273125 0.0756875 0.33890625 0.203875 0.4487875 0.3683125C5.94135 11.608875 6 11.8021875 6 12c0 0.2651875 -0.10535625 0.5195625 -0.29289375 0.707125C5.51956875 12.894625 5.26521875 13 5 13Zm5.0625 -1.5h-3.125c-0.110125 -0.4301875 -0.360375 -0.8115 -0.71115625 -1.0838125 -0.35080625 -0.2723125 -0.78225625 -0.420125 -1.22634375 -0.420125 -0.4440875 0 -0.8755375 0.1478125 -1.22634375 0.420125C3.42285 10.6885 3.17265 11.0698125 3.0625 11.5H2v-2h9v0.769375c-0.2299375 0.132875 -0.4311875 0.310125 -0.592125 0.521375 -0.160875 0.2111875 -0.2783125 0.4523125 -0.345375 0.70925Zm1.9375 1.5c-0.1978125 0 -0.391125 -0.058625 -0.5555625 -0.1685 -0.1644375 -0.1099375 -0.292625 -0.2660625 -0.3683125 -0.4488125 -0.0756875 -0.18275 -0.0955 -0.3838125 -0.0569375 -0.57775 0.038625 -0.194 0.133875 -0.3721875 0.2736875 -0.5120625 0.139875 -0.1398125 0.3180625 -0.2350625 0.5120625 -0.2736875 0.1939375 -0.0385625 0.395 -0.01875 0.57775 0.0569375 0.18275 0.0756875 0.338875 0.203875 0.4488125 0.3683125 0.109875 0.1644375 0.1685 0.35775 0.1685 0.5555625 0 0.2651875 -0.105375 0.5195625 -0.292875 0.707125 -0.1875625 0.1875 -0.4419375 0.292875 -0.707125 0.292875Zm3 -1.5h-1.0625c-0.1115 -0.4291875 -0.362125 -0.80925 -0.71275 -1.0806875S12.443375 10.0004375 12 10v-2h3v3.5Z" stroke-width="0.0625"></path></g></svg>