<svg width="749" height="699" viewBox="0 0 749 699" fill="none" xmlns="http://www.w3.org/2000/svg">
<g clip-path="url(#clip0_110_50)">
<path d="M51.0162 655.158C47.4165 655.158 43.8094 655.329 40.2868 655.674L39.7741 655.724C16.4087 658.102 -0.681976 671.896 0.020914 687.813L0.156794 690.691C0.246414 692.511 0.341885 694.467 0.420465 696.637C0.463025 697.707 1.73152 698.528 3.30992 698.528H578.042C618.564 698.245 658.938 697.889 698.038 697.469C705.376 697.486 712.708 697.049 719.992 696.159C730.858 694.679 738.399 691.744 743.05 687.188H743.052C748.835 681.537 749.017 674.422 748.667 666.383C747.955 650.15 747.248 633.098 746.543 616.097C745.921 601.113 745.301 586.17 744.681 571.863C744.297 563.373 743.445 555.879 736.878 550.151C729.759 543.957 716.776 540.817 698.289 540.817C698.066 540.817 697.844 540.817 697.618 540.818C639.682 541.056 582.276 563.989 554.773 597.886C551.605 601.789 548.654 605.968 545.8 610.01C541.628 616.215 537.023 622.117 532.02 627.674C529.241 630.669 526.194 633.403 522.916 635.843C522.693 636.02 522.438 636.211 522.167 636.392C521.549 636.855 520.902 637.303 520.272 637.701C516.628 640.131 512.736 642.167 508.663 643.777L508.256 643.935C507.95 644.061 507.618 644.187 507.286 644.302C504.938 645.168 502.544 645.904 500.116 646.508C489.632 649.168 477.71 649.806 464.684 648.401C452.653 647.061 440.826 644.287 429.455 640.137C417.392 635.748 406.102 630.276 395.183 624.985C390.387 622.66 385.426 620.257 380.472 617.979C379.541 617.551 378.625 617.132 377.695 616.713C371.644 613.998 366.158 611.756 360.924 609.858C348.067 605.162 334.614 602.293 320.96 601.337C306.55 600.429 293.853 602.142 283.228 606.416C280.276 607.601 277.422 609.017 274.693 610.649C262.108 618.173 254.35 629.276 246.848 640.015C237.516 653.371 227.865 667.184 208.81 674.344C186.822 682.613 154.726 679.178 132.019 673.203C124.88 671.324 117.749 669.163 110.853 667.072C108.068 666.228 105.281 665.389 102.492 664.556C97.011 662.927 92.5256 661.679 88.3758 660.625L87.0632 660.289C86.3332 660.106 85.6023 659.924 84.8583 659.75C79.9292 658.559 75.3394 657.621 70.8194 656.884L69.75 656.704C67.606 656.379 65.6016 656.108 63.6347 655.881L62.8496 655.791C58.9194 655.366 54.9692 655.155 51.0162 655.158Z" fill="#F2F2F2"/>
<path d="M364.003 344.241C362.272 344.491 360.508 344.358 358.834 343.853C357.161 343.347 355.618 342.481 354.315 341.315C353.012 340.149 351.981 338.711 351.293 337.104C350.606 335.496 350.279 333.757 350.336 332.01L310.658 316.762L328.623 303.911L363.547 320.361C366.478 320.651 369.199 322.007 371.197 324.171C373.194 326.334 374.328 329.155 374.384 332.099C374.44 335.043 373.414 337.906 371.5 340.144C369.587 342.382 366.919 343.84 364.002 344.242L364.003 344.241Z" fill="#FFB7B7"/>
<path d="M341.331 333.303L347.526 311.45L347.221 311.242L289.191 271.822L239.028 221.489L209.807 233.164L211.725 242.413L211.851 242.526L278.546 302.264L278.607 302.294L341.331 333.303Z" fill="#1E1E1E"/>
<path d="M281.883 383.218L192.074 370.629L199.978 315.521H266.096L281.883 383.218Z" fill="#FFB6B6"/>
<path d="M129.283 653.061L147.706 657.342L172.986 588.321L145.796 582.003L129.283 653.061Z" fill="#FFB6B6"/>
<path d="M112.143 682.721L125.354 685.791L130.611 673.866L133.752 687.743L168.792 695.886C170.472 696.276 172.232 696.119 173.816 695.438C175.4 694.757 176.726 693.588 177.598 692.101C178.47 690.613 178.845 688.886 178.666 687.171C178.487 685.456 177.765 683.843 176.604 682.567L153.113 656.739L156.044 644.129L126.203 639.046L112.143 682.721Z" fill="black"/>
<path d="M242.955 663.327H261.869L270.869 590.376H242.955V663.327Z" fill="#FFB6B6"/>
<path d="M232.973 696.098H246.536L248.957 683.292L255.158 696.098H291.132C292.856 696.098 294.535 695.547 295.924 694.525C297.313 693.503 298.339 692.064 298.852 690.418C299.365 688.771 299.339 687.004 298.777 685.374C298.214 683.744 297.146 682.336 295.727 681.357L266.999 661.516V648.57L236.783 650.374L232.973 696.098Z" fill="black"/>
<path d="M190.939 361.277L278.768 354.291C304.686 414.833 288.206 511.482 268.288 620.281L240.039 623.934L237.848 449.106L167.031 611.748L137.588 610.243L190.939 361.277Z" fill="black"/>
<path d="M242.063 201.853V172.139C242.063 161.579 237.868 151.452 230.401 143.985C222.934 136.518 212.807 132.323 202.247 132.323C191.687 132.323 181.56 136.518 174.093 143.985C166.626 151.452 162.431 161.579 162.431 172.139C155.413 186.763 159.803 193.715 162.431 201.853C162.433 203.27 162.997 204.628 163.999 205.631C165.001 206.633 166.36 207.197 167.777 207.199H236.714C238.132 207.197 239.491 206.634 240.493 205.631C241.496 204.629 242.06 203.271 242.063 201.853Z" fill="black"/>
<path d="M212.073 206.75C228.195 206.75 241.265 193.68 241.265 177.558C241.265 161.436 228.195 148.366 212.073 148.366C195.951 148.366 182.881 161.436 182.881 177.558C182.881 193.68 195.951 206.75 212.073 206.75Z" fill="#FFB7B7"/>
<path d="M251.482 174.515C251.472 166.165 248.151 158.159 242.246 152.255C236.342 146.35 228.336 143.029 219.986 143.02H214.043C205.692 143.029 197.687 146.35 191.782 152.255C185.878 158.159 182.556 166.165 182.547 174.515V175.11C186.998 178.153 191.223 178.598 195.106 175.11L199.389 163.116L200.246 175.11H206.738L208.902 169.059L209.334 175.11C218.102 182.577 234.682 178.999 251.482 175.11V174.515Z" fill="black"/>
<path d="M195.049 331.628L269.375 328.799L273.529 280.176C276.733 271.276 276.785 263.629 273.683 257.463C271.015 252.395 266.532 248.52 261.131 246.614L244.868 226.971C242.776 224.447 240.149 222.418 237.177 221.033C234.205 219.647 230.963 218.939 227.684 218.96L185.425 219.249C184.407 218.637 178.228 215.496 166.043 220.776C152.827 226.504 155.896 246.404 155.929 246.604L155.959 246.791L156.105 246.918L184.212 270.594L195.049 331.628Z" fill="#1E1E1E"/>
<path d="M533.755 246.137C485.794 300.188 341.49 310.497 247.561 409.713C216.07 313.812 260.681 148.268 305.14 85.1377C326.49 54.8214 359.008 34.228 395.542 27.8877C432.075 21.5475 469.631 29.9798 499.947 51.3296C563.078 95.7883 585.004 188.382 533.755 246.137Z" fill="#FFD858"/>
<path d="M417.545 194.284C442.728 194.284 463.142 173.87 463.142 148.688C463.142 123.506 442.728 103.092 417.545 103.092C392.363 103.092 371.949 123.506 371.949 148.688C371.949 173.87 392.363 194.284 417.545 194.284Z" fill="white"/>
<path d="M209.017 459.369C225.511 459.369 238.881 445.998 238.881 429.504C238.881 413.01 225.511 399.64 209.017 399.64C192.523 399.64 179.152 413.01 179.152 429.504C179.152 445.998 192.523 459.369 209.017 459.369Z" fill="#FFD858"/>
<path d="M174.851 427.344C173.551 426.176 172.522 424.737 171.837 423.128C171.153 421.519 170.829 419.78 170.889 418.033C170.949 416.286 171.392 414.573 172.185 413.015C172.978 411.457 174.103 410.091 175.481 409.015L161.756 368.786L183.14 374.341L192.885 411.689C194.541 414.125 195.246 417.083 194.865 420.003C194.485 422.924 193.047 425.603 190.823 427.533C188.599 429.464 185.743 430.511 182.799 430.476C179.854 430.442 177.024 429.328 174.846 427.346L174.851 427.344Z" fill="#FFB7B7"/>
<path d="M168.72 402.932L189.467 393.686L182.497 323.509L188.989 252.745L161.287 237.795L155.418 245.195V245.363L152.309 334.846L152.325 334.913L168.72 402.932Z" fill="#1E1E1E"/>
<path d="M663.42 536.039C661.97 541.479 658.16 546.009 653.56 549.309C652.81 549.849 652.04 550.349 651.26 550.819C651.02 550.959 650.78 551.109 650.53 551.239C650.26 551.399 649.99 551.549 649.72 551.689H628.09C627.7 550.899 627.32 550.099 626.94 549.309C617.67 529.829 611.16 508.809 612.27 487.399C612.71 479.095 614.455 470.911 617.44 463.149C623.38 447.679 634.22 434.289 649.13 427.549C649.5 427.379 649.89 427.209 650.27 427.049C650.15 427.479 650.03 427.899 649.91 428.329C648.31 434.092 647.18 439.974 646.53 445.919C646.47 446.379 646.42 446.839 646.38 447.309C644.959 461.647 646.221 476.124 650.1 489.999C650.11 490.029 650.12 490.069 650.13 490.099C650.98 493.169 651.966 496.193 653.09 499.169C653.97 501.519 654.92 503.839 655.96 506.119C660.3 515.689 666.12 525.889 663.42 536.039Z" fill="#E6E6E6"/>
<path d="M650.541 427.499C650.331 427.779 650.121 428.049 649.911 428.329C645.518 434.15 641.789 440.442 638.791 447.089C638.631 447.419 638.481 447.749 638.351 448.089C634.243 457.371 631.604 467.236 630.531 477.329C630.519 477.399 630.512 477.469 630.511 477.539C630.261 479.899 630.111 482.279 630.051 484.659C629.828 489.12 630.311 493.588 631.481 497.899C632.547 501.419 634.416 504.644 636.941 507.319C637.191 507.589 637.441 507.859 637.711 508.119C637.911 508.329 638.131 508.539 638.341 508.739C640.361 510.669 642.571 512.459 644.471 514.529C645.342 515.457 646.128 516.461 646.821 517.529C647.926 519.319 648.64 521.322 648.916 523.408C649.192 525.493 649.023 527.613 648.421 529.629C647.061 534.689 643.951 538.959 640.771 543.029C639.181 545.069 637.541 547.129 636.121 549.309C635.601 550.089 635.121 550.879 634.681 551.689H633.421C633.841 550.879 634.301 550.089 634.801 549.309C638.451 543.559 643.641 538.619 646.331 532.289C648.151 528.019 648.701 523.179 646.401 518.989C645.727 517.771 644.911 516.636 643.971 515.609C642.141 513.539 639.951 511.769 637.961 509.899C637.461 509.429 636.971 508.949 636.501 508.449C634.009 505.917 632.086 502.883 630.861 499.549C629.473 495.314 628.817 490.874 628.921 486.419C628.921 483.579 629.071 480.719 629.351 477.879C629.381 477.519 629.421 477.149 629.461 476.779C631.506 458.908 638.298 441.909 649.131 427.549C649.331 427.269 649.541 426.999 649.751 426.729C650.181 426.169 650.971 426.949 650.541 427.499Z" fill="white"/>
<path d="M629.864 477.974C626.4 477.392 623.256 475.598 620.993 472.912C618.73 470.226 617.496 466.823 617.51 463.311C617.512 463.168 617.569 463.031 617.67 462.929C617.771 462.827 617.907 462.769 618.05 462.766C618.194 462.763 618.333 462.815 618.438 462.912C618.543 463.01 618.606 463.144 618.614 463.287C618.595 466.558 619.745 469.727 621.858 472.224C623.97 474.721 626.906 476.38 630.134 476.903C630.836 477.017 630.562 478.088 629.864 477.974Z" fill="white"/>
<path d="M636.663 507.52C642.547 503.407 646.665 497.227 648.196 490.212C648.347 489.517 649.418 489.788 649.267 490.483C647.661 497.779 643.362 504.202 637.229 508.469C636.644 508.875 636.081 507.924 636.663 507.52Z" fill="white"/>
<path d="M638.459 446.973C639.752 447.477 641.151 447.652 642.528 447.483C643.906 447.313 645.22 446.804 646.353 446.001C646.932 445.587 647.494 446.538 646.919 446.949C645.664 447.831 644.212 448.391 642.69 448.582C641.168 448.773 639.623 448.588 638.189 448.044C638.049 448.004 637.93 447.912 637.856 447.787C637.782 447.663 637.758 447.515 637.789 447.373C637.825 447.231 637.916 447.11 638.042 447.035C638.167 446.96 638.317 446.938 638.459 446.973Z" fill="white"/>
<path d="M725.559 466.169C725.209 466.439 724.849 466.709 724.499 466.989C719.751 470.623 715.307 474.636 711.209 478.989C710.889 479.319 710.569 479.659 710.259 479.999L710.249 480.009C700.533 490.557 692.851 502.809 687.589 516.149L687.559 516.239C687.549 516.269 687.539 516.289 687.529 516.319C685.443 521.659 683.762 527.148 682.499 532.739C681.279 538.199 680.279 544.049 678.369 549.309C678.079 550.119 677.759 550.919 677.419 551.689H632.959C633.109 550.899 633.269 550.099 633.429 549.309C635.691 537.722 639.225 526.42 643.969 515.609C644.129 515.249 644.289 514.889 644.469 514.529C646.918 509.187 649.797 504.054 653.079 499.179L653.08 499.175L653.082 499.172L653.085 499.17L653.089 499.169C654.891 496.509 656.827 493.943 658.889 491.479C664.237 485.116 670.555 479.636 677.609 475.239C677.649 475.209 677.699 475.189 677.739 475.159C691.779 466.449 708.419 462.299 724.329 465.889H724.339C724.749 465.979 725.149 466.069 725.559 466.169Z" fill="#E6E6E6"/>
<path d="M725.509 466.699C725.169 466.789 724.829 466.889 724.499 466.989C717.491 468.992 710.726 471.765 704.329 475.259C704.009 475.429 703.689 475.609 703.369 475.789C694.529 480.723 686.504 486.994 679.579 494.379C679.574 494.385 679.57 494.392 679.569 494.399C679.489 494.479 679.399 494.569 679.329 494.649C677.729 496.369 676.189 498.159 674.729 499.999C671.873 503.43 669.572 507.287 667.909 511.429C666.639 514.882 666.19 518.583 666.599 522.239C666.629 522.609 666.679 522.969 666.729 523.339C666.769 523.629 666.809 523.919 666.859 524.219C667.519 528.229 668.659 532.249 668.339 536.339C668.145 538.435 667.508 540.465 666.472 542.298C665.437 544.13 664.025 545.722 662.329 546.969C661.177 547.86 659.945 548.643 658.649 549.309C656.797 550.264 654.866 551.06 652.879 551.689H648.949C649.479 551.539 649.999 551.389 650.529 551.239C652.41 550.708 654.257 550.064 656.059 549.309C657.089 548.878 658.091 548.384 659.059 547.829C663.079 545.519 666.429 541.979 667.129 537.249C667.739 533.109 666.559 528.969 665.859 524.919C665.739 524.219 665.629 523.529 665.569 522.839C665.092 519.332 665.382 515.763 666.419 512.379C667.858 508.158 670.009 504.214 672.779 500.719C674.493 498.444 676.322 496.257 678.259 494.169C678.499 493.899 678.749 493.629 679.009 493.359C686.08 485.921 694.244 479.605 703.219 474.629H703.229C709.903 470.914 716.983 467.981 724.329 465.889H724.339C724.669 465.789 725.009 465.689 725.339 465.599C726.029 465.419 726.189 466.509 725.509 466.699Z" fill="white"/>
<path d="M678.614 494.549C676.198 491.999 674.768 488.674 674.578 485.167C674.388 481.659 675.451 478.199 677.577 475.404C678.01 474.839 678.907 475.484 678.474 476.049C676.489 478.649 675.5 481.872 675.683 485.138C675.866 488.403 677.211 491.495 679.474 493.857C679.965 494.37 679.102 495.06 678.614 494.549Z" fill="white"/>
<path d="M666.254 522.234C673.429 522.492 680.438 520.037 685.883 515.358C686.422 514.894 687.114 515.755 686.575 516.218C680.9 521.077 673.601 523.617 666.135 523.332C665.423 523.304 665.546 522.206 666.254 522.234Z" fill="white"/>
<path d="M704.143 474.971C704.872 476.152 705.883 477.134 707.085 477.828C708.288 478.522 709.643 478.906 711.031 478.947C711.742 478.966 711.619 480.064 710.912 480.045C709.379 479.993 707.882 479.567 706.553 478.803C705.223 478.039 704.1 476.961 703.283 475.663C703.196 475.547 703.156 475.402 703.171 475.258C703.187 475.114 703.257 474.981 703.367 474.887C703.481 474.795 703.627 474.753 703.772 474.769C703.918 474.785 704.051 474.857 704.143 474.971Z" fill="white"/>
<path d="M393.98 679.783C392.53 685.223 388.72 689.753 384.12 693.053C383.37 693.593 382.6 694.093 381.82 694.563C381.58 694.703 381.34 694.853 381.09 694.983C380.82 695.143 380.55 695.293 380.28 695.433H358.65C358.26 694.643 357.88 693.843 357.5 693.053C348.23 673.573 341.72 652.553 342.83 631.143C343.271 622.838 345.015 614.655 348 606.893C353.94 591.423 364.78 578.033 379.69 571.293C380.06 571.123 380.45 570.953 380.83 570.793C380.71 571.223 380.59 571.643 380.47 572.073C378.871 577.835 377.74 583.718 377.09 589.663C377.03 590.123 376.98 590.583 376.94 591.053C375.52 605.391 376.781 619.867 380.66 633.743C380.67 633.773 380.68 633.813 380.69 633.843C381.54 636.913 382.527 639.936 383.65 642.913C384.53 645.263 385.48 647.583 386.52 649.863C390.86 659.433 396.68 669.633 393.98 679.783Z" fill="#E6E6E6"/>
<path d="M381.099 571.243C380.889 571.523 380.679 571.793 380.469 572.073C376.077 577.893 372.347 584.186 369.349 590.833C369.189 591.163 369.039 591.493 368.909 591.833C364.801 601.115 362.163 610.979 361.089 621.073C361.078 621.142 361.071 621.212 361.069 621.283C360.819 623.643 360.669 626.023 360.609 628.403C360.387 632.864 360.869 637.332 362.039 641.643C363.106 645.163 364.975 648.387 367.499 651.063C367.749 651.333 367.999 651.603 368.269 651.863C368.469 652.073 368.689 652.283 368.899 652.483C370.919 654.413 373.129 656.203 375.029 658.273C375.9 659.201 376.687 660.205 377.379 661.273C378.485 663.062 379.199 665.066 379.475 667.151C379.75 669.237 379.582 671.357 378.979 673.373C377.619 678.433 374.509 682.703 371.329 686.773C369.739 688.813 368.099 690.873 366.679 693.053C366.159 693.833 365.679 694.623 365.239 695.433H363.979C364.399 694.623 364.859 693.833 365.359 693.053C369.009 687.303 374.199 682.363 376.889 676.033C378.709 671.763 379.259 666.923 376.959 662.733C376.285 661.514 375.47 660.38 374.529 659.353C372.699 657.283 370.509 655.513 368.519 653.643C368.019 653.173 367.529 652.693 367.059 652.193C364.568 649.661 362.645 646.627 361.419 643.293C360.032 639.058 359.376 634.618 359.479 630.163C359.479 627.323 359.629 624.463 359.909 621.623C359.939 621.263 359.979 620.893 360.019 620.523C362.064 602.651 368.856 585.653 379.689 571.293C379.889 571.013 380.099 570.743 380.309 570.473C380.739 569.913 381.529 570.693 381.099 571.243Z" fill="white"/>
<path d="M360.423 621.717C356.959 621.136 353.815 619.342 351.552 616.656C349.289 613.97 348.054 610.567 348.068 607.055C348.07 606.911 348.128 606.775 348.229 606.673C348.33 606.571 348.466 606.513 348.609 606.509C348.752 606.506 348.891 606.559 348.996 606.656C349.102 606.753 349.165 606.888 349.173 607.031C349.154 610.301 350.304 613.471 352.417 615.968C354.529 618.464 357.464 620.124 360.693 620.646C361.394 620.761 361.12 621.831 360.423 621.717Z" fill="white"/>
<path d="M367.221 651.264C373.106 647.151 377.224 640.971 378.754 633.956C378.906 633.261 379.976 633.532 379.825 634.226C378.219 641.523 373.921 647.946 367.788 652.212C367.203 652.619 366.64 651.668 367.221 651.264Z" fill="white"/>
<path d="M369.02 590.716C370.313 591.221 371.711 591.396 373.089 591.226C374.467 591.057 375.781 590.547 376.913 589.745C377.493 589.331 378.055 590.282 377.479 590.693C376.224 591.574 374.772 592.135 373.25 592.325C371.729 592.516 370.183 592.331 368.749 591.787C368.61 591.747 368.491 591.656 368.417 591.531C368.342 591.407 368.318 591.258 368.349 591.117C368.386 590.975 368.477 590.854 368.602 590.779C368.728 590.704 368.878 590.681 369.02 590.716Z" fill="white"/>
<path d="M456.119 609.913C455.769 610.183 455.409 610.453 455.059 610.733C450.312 614.366 445.867 618.38 441.769 622.733C441.449 623.063 441.129 623.403 440.819 623.743L440.809 623.753C431.093 634.3 423.411 646.553 418.149 659.893L418.119 659.983C418.109 660.013 418.099 660.033 418.089 660.063C416.004 665.403 414.323 670.891 413.059 676.483C411.839 681.943 410.839 687.793 408.929 693.053C408.639 693.863 408.319 694.663 407.979 695.433H363.52C363.67 694.643 363.83 693.843 363.99 693.053C366.251 681.466 369.786 670.164 374.529 659.353C374.689 658.993 374.849 658.633 375.029 658.273C377.478 652.931 380.358 647.798 383.64 642.923L383.64 642.919L383.642 642.916L383.646 642.914L383.65 642.913C385.452 640.253 387.387 637.686 389.45 635.223C394.798 628.86 401.115 623.379 408.169 618.983C408.209 618.953 408.259 618.933 408.299 618.903C422.339 610.193 438.98 606.043 454.89 609.633H454.9C455.309 609.723 455.709 609.813 456.119 609.913Z" fill="#E6E6E6"/>
<path d="M456.07 610.443C455.73 610.533 455.39 610.633 455.06 610.733C448.051 612.735 441.287 615.509 434.89 619.003C434.57 619.173 434.25 619.353 433.93 619.533C425.089 624.467 417.065 630.737 410.14 638.123C410.134 638.128 410.131 638.135 410.13 638.143C410.05 638.223 409.96 638.313 409.89 638.393C408.29 640.113 406.75 641.903 405.29 643.743C402.434 647.174 400.133 651.03 398.47 655.173C397.199 658.625 396.751 662.327 397.16 665.983C397.19 666.353 397.24 666.713 397.29 667.083C397.33 667.373 397.37 667.663 397.42 667.963C398.08 671.973 399.22 675.993 398.9 680.083C398.705 682.178 398.069 684.209 397.033 686.041C395.997 687.873 394.585 689.465 392.89 690.713C391.737 691.604 390.505 692.387 389.21 693.053C387.357 694.008 385.427 694.804 383.44 695.433H379.51C380.04 695.283 380.56 695.133 381.09 694.983C382.971 694.452 384.817 693.808 386.62 693.053C387.649 692.622 388.651 692.128 389.62 691.573C393.64 689.263 396.99 685.723 397.69 680.993C398.3 676.853 397.12 672.713 396.42 668.663C396.3 667.963 396.19 667.273 396.13 666.583C395.652 663.076 395.942 659.507 396.98 656.123C398.419 651.902 400.57 647.958 403.34 644.463C405.053 642.187 406.882 640.001 408.82 637.913C409.06 637.643 409.31 637.373 409.57 637.103C416.64 629.665 424.804 623.349 433.78 618.373H433.79C440.464 614.658 447.544 611.725 454.89 609.633H454.9C455.23 609.533 455.57 609.433 455.9 609.343C456.59 609.163 456.75 610.253 456.07 610.443Z" fill="white"/>
<path d="M409.174 638.292C406.759 635.742 405.329 632.417 405.139 628.91C404.949 625.403 406.012 621.942 408.138 619.147C408.57 618.582 409.467 619.227 409.035 619.792C407.05 622.392 406.06 625.615 406.244 628.881C406.427 632.146 407.772 635.239 410.035 637.6C410.526 638.113 409.663 638.803 409.174 638.292Z" fill="white"/>
<path d="M396.814 665.977C403.989 666.235 410.998 663.78 416.443 659.101C416.983 658.637 417.674 659.498 417.136 659.962C411.46 664.82 404.161 667.36 396.695 667.075C395.984 667.047 396.107 665.949 396.814 665.977Z" fill="white"/>
<path d="M434.702 618.714C435.431 619.896 436.442 620.877 437.644 621.571C438.846 622.265 440.202 622.65 441.589 622.691C442.301 622.709 442.178 623.807 441.471 623.789C439.938 623.737 438.441 623.31 437.111 622.546C435.781 621.782 434.659 620.704 433.841 619.407C433.754 619.291 433.714 619.146 433.73 619.002C433.745 618.858 433.815 618.725 433.925 618.63C434.04 618.539 434.186 618.497 434.331 618.513C434.476 618.528 434.61 618.601 434.702 618.714Z" fill="white"/>
<path d="M442.066 407.5C448.694 407.5 454.066 402.127 454.066 395.5C454.066 388.873 448.694 383.5 442.066 383.5C435.439 383.5 430.066 388.873 430.066 395.5C430.066 402.127 435.439 407.5 442.066 407.5Z" fill="#F2F2F2"/>
<path d="M591.137 263.758C597.764 263.758 603.137 258.385 603.137 251.758C603.137 245.13 597.764 239.758 591.137 239.758C584.509 239.758 579.137 245.13 579.137 251.758C579.137 258.385 584.509 263.758 591.137 263.758Z" fill="#F2F2F2"/>
<path d="M179.143 24C185.77 24 191.143 18.6274 191.143 12C191.143 5.37258 185.77 0 179.143 0C172.515 0 167.143 5.37258 167.143 12C167.143 18.6274 172.515 24 179.143 24Z" fill="#F2F2F2"/>
<path d="M1.24701 697.345H747.528C747.859 697.345 748.176 697.213 748.41 696.979C748.644 696.746 748.775 696.428 748.775 696.098C748.775 695.767 748.644 695.45 748.41 695.216C748.176 694.982 747.859 694.851 747.528 694.851H1.24701C0.916284 694.851 0.599108 694.982 0.36525 695.216C0.131392 695.45 0 695.767 0 696.098C0 696.428 0.131392 696.746 0.36525 696.979C0.599108 697.213 0.916284 697.345 1.24701 697.345Z" fill="#CCCCCC"/>
<path opacity="0.2" d="M456.995 126.858C462.461 136.204 464.423 147.189 462.53 157.849C460.637 168.509 455.012 178.147 446.662 185.038C438.312 191.929 427.781 195.624 416.956 195.461C406.131 195.298 395.717 191.287 387.578 184.148C390.91 189.854 395.442 194.768 400.861 198.549C406.28 202.331 412.456 204.889 418.962 206.047C425.468 207.205 432.147 206.935 438.538 205.256C444.929 203.577 450.879 200.529 455.975 196.323C461.072 192.117 465.193 186.854 468.054 180.897C470.915 174.941 472.447 168.434 472.544 161.827C472.641 155.219 471.3 148.67 468.615 142.632C465.931 136.594 461.966 131.212 456.995 126.858Z" fill="#231F20"/>
<path opacity="0.2" d="M512.975 64.6611C550.405 113.057 556.861 182.611 515.387 229.351C469.047 281.574 332.777 292.972 238.895 383.168C240.458 392.575 242.714 401.853 245.646 410.927C339.575 311.711 483.879 301.402 531.84 247.351C578.805 194.424 564.31 112.247 512.975 64.6611Z" fill="#231F20"/>
</g>
<defs>
<clipPath id="clip0_110_50">
<rect width="748.775" height="698.528" fill="white"/>
</clipPath>
</defs>
</svg>
