<svg xmlns="http://www.w3.org/2000/svg" fill="none" viewBox="0 0 16 16" id="Map-Pin-Area-Duotone--Streamline-Phosphor" height="16" width="16"><desc>Map Pin Area Duotone Streamline Icon: https://streamlinehq.com</desc><g id="map-pin-area-duotone"><path id="Vector" fill="#ffd858" d="M11.5 5c0 3.5 -3.5 5.5 -3.5 5.5s-3.5 -2 -3.5 -5.5c0 -0.92825625 0.36875 -1.81849375 1.025125 -2.474875C6.18150625 1.86875 7.07175 1.5 8 1.5s1.8185 0.36875 2.474875 1.025125C11.13125 3.18150625 11.5 4.07174375 11.5 5Z" stroke-width="0.0625"></path><path id="Vector_2" fill="#000000" d="M7 5c0 -0.19778125 0.058625 -0.39111875 0.1685 -0.55556875 0.1099375 -0.16445 0.2660625 -0.292625 0.4488125 -0.3683125 0.18275 -0.0756875 0.3838125 -0.0954875 0.57775 -0.05690625 0.194 0.0385875 0.3721875 0.13383125 0.5120625 0.27368125 0.1398125 0.13985 0.2350625 0.3180375 0.2736875 0.51201875 0.0385625 0.19398125 0.01875 0.39504375 -0.0569375 0.57776875 -0.0756875 0.18273125 -0.203875 0.33890625 -0.3683125 0.4487875C8.391125 5.94135 8.1978125 6 8 6c-0.2651875 0 -0.5195625 -0.10535625 -0.707125 -0.29289375C7.105375 5.51956875 7 5.26521875 7 5Zm-3 0c0 -1.06086875 0.421425 -2.07828125 1.171575 -2.828425C5.92171875 1.421425 6.939125 1 8 1c1.060875 0 2.0783125 0.421425 2.8284375 1.171575C11.5785625 2.92171875 12 3.93913125 12 5c0 3.746875 -3.59875 5.84625 -3.75 5.934375 -0.0755625 0.0431875 -0.1610625 0.0659375 -0.248125 0.0659375 -0.0870625 0 -0.1725625 -0.02275 -0.248125 -0.0659375C7.59875 10.84625 4 8.75 4 5Zm1 0c0 2.6375 2.24 4.388125 3 4.90625 0.759375 -0.5175 3 -2.26875 3 -4.90625 0 -0.79565 -0.3160625 -1.5587125 -0.8786875 -2.12131875C9.5586875 2.31606875 8.795625 2 8 2c-0.795625 0 -1.5586875 0.31606875 -2.12131875 0.87868125C5.31606875 3.4412875 5 4.20435 5 5Zm7.673125 4.226875c-0.1230625 -0.040625 -0.257125 -0.0319375 -0.373875 0.0243125 -0.11675 0.05625 -0.207125 0.155625 -0.252 0.27725 -0.044875 0.1215625 -0.040875 0.2558125 0.0113125 0.3744375 0.0521875 0.118625 0.148375 0.212375 0.2683125 0.2615C13.35875 10.54625 14 11.0575 14 11.5c0 0.835 -2.2825 2 -6 2s-6 -1.165 -6 -2c0 -0.4425 0.64125 -0.95375 1.673125 -1.335 0.11994375 -0.049125 0.2161375 -0.142875 0.26830625 -0.2615 0.0521625 -0.118625 0.056225 -0.252875 0.01131875 -0.3744375 -0.0449 -0.121625 -0.13525625 -0.221 -0.2520125 -0.27725 -0.1167625 -0.05625 -0.2508 -0.0649375 -0.3738625 -0.0243125C1.82625 9.780625 1 10.588125 1 11.5c0 1.94875 3.606875 3 7 3s7 -1.05125 7 -3c0 -0.911875 -0.82625 -1.719375 -2.326875 -2.273125Z" stroke-width="0.0625"></path></g></svg>