<svg width="525" height="521" viewBox="0 0 525 521" fill="none" xmlns="http://www.w3.org/2000/svg">
<g clip-path="url(#clip0_101_43)">
<path d="M524.67 518.998C524.67 519.658 524.14 520.188 523.48 520.188H1.19C0.53003 520.188 0 519.658 0 518.998C0 518.338 0.53003 517.808 1.19 517.808H523.48C524.14 517.808 524.67 518.338 524.67 518.998Z" fill="#1E1E1E"/>
<path d="M362.541 461.059L368.541 486.059L350.541 491.059L346.541 464.059L362.541 461.059Z" fill="#FFB6B6"/>
<path d="M391.541 380.059L372.541 396.059L360.541 415.059L377.541 426.059L406.541 393.059L391.541 380.059Z" fill="#FFB6B6"/>
<path d="M385.541 215.059L401.541 269.059C401.541 269.059 472.541 331.059 465.541 344.059C458.541 357.059 411.541 393.059 411.541 393.059C411.541 393.059 415.029 404.57 404.785 399.814C394.541 395.059 383.541 382.059 383.541 382.059C383.541 382.059 383.541 372.059 388.541 374.059C393.541 376.059 416.541 349.059 416.541 349.059L366.541 303.059V456.874C366.541 456.874 378.541 467.366 366.541 468.212C354.541 469.059 343.541 471.059 343.541 471.059C343.541 471.059 329.541 466.059 334.541 461.059L319.541 379.059L308.541 279.059L316.541 227.059L385.541 215.059Z" fill="#1E1E1E"/>
<path d="M353.542 483.059C353.542 483.059 354.542 479.059 358.542 479.059H370.758C370.758 479.059 374.542 496.059 373.542 496.059C372.542 496.059 389.542 518.059 371.542 519.059C353.542 520.059 348.542 518.059 348.542 518.059L346.542 510.165C346.542 510.165 343.542 505.059 344.542 501.059C345.542 497.059 353.542 483.059 353.542 483.059Z" fill="#1E1E1E"/>
<path d="M378.542 418.059C378.542 418.059 390.028 417.877 387.285 420.968C384.542 424.059 379.542 429.059 379.542 429.059C379.542 429.059 367.648 453.059 362.095 448.559C356.542 444.059 347.542 394.059 350.542 388.059C353.542 382.059 357.542 382.059 357.542 382.059L375.991 393.154C375.991 393.154 364.542 421.059 378.542 418.059Z" fill="#1E1E1E"/>
<path d="M350.541 130.059L354.541 105.059L327.541 94.0586L323.541 132.059L350.541 130.059Z" fill="#FFB6B6"/>
<path opacity="0.1" d="M350.541 130.059L354.541 105.059L327.541 94.0586L323.541 132.059L350.541 130.059Z" fill="black"/>
<path d="M322.042 126.559L354.042 118.559L388.042 129.559C388.042 129.559 403.042 171.559 398.042 186.559C393.042 201.559 393.042 230.858 393.042 230.858C393.042 230.858 392.542 218.059 363.542 227.059C334.542 236.059 313.542 235.059 313.542 235.059L312.542 199.059L299.979 167.082C294.61 153.414 300.397 137.896 313.405 131.082L322.042 126.559Z" fill="#E6E6E6"/>
<path d="M468.936 244.361C473.451 249.771 474.32 256.485 470.877 259.359C467.434 262.232 460.984 260.175 456.467 254.763C454.634 252.626 453.338 250.08 452.69 247.34L433.848 224.178L443.026 216.75L462.307 239.315C464.888 240.444 467.161 242.174 468.936 244.361Z" fill="#FFB6B6"/>
<path d="M386.589 129.878L380.031 155.854L412.128 207.233L444.895 240.164L455.515 231.353L422.469 190.237L397.421 137.259L386.589 129.878Z" fill="#E6E6E6"/>
<path d="M462.999 104.805C485.856 103.116 502.653 78.3057 500.517 49.3896C498.38 20.4735 478.118 -1.59827 455.26 0.090901C432.403 1.78007 415.605 26.5905 417.742 55.5066C419.879 84.4227 440.141 106.495 462.999 104.805Z" fill="#FFD858"/>
<path d="M462.129 104.805H460.129V304.243H462.129V104.805Z" fill="#1E1E1E"/>
<path d="M462.627 100.594L462.867 107.661L466.061 114.203L452.736 113.523L458.337 107.89L457.704 101.468L462.627 100.594Z" fill="#FFD858"/>
<path d="M343.719 113.095C358.925 113.095 371.253 100.768 371.253 85.5619C371.253 70.3555 358.925 58.0283 343.719 58.0283C328.513 58.0283 316.186 70.3555 316.186 85.5619C316.186 100.768 328.513 113.095 343.719 113.095Z" fill="#FFB6B6"/>
<path d="M341.522 48.5451C342.319 49.0102 343.386 48.3066 343.641 47.4201C343.897 46.5337 343.599 45.5925 343.304 44.7185L341.818 40.3184C340.765 37.1978 339.647 33.9681 337.365 31.5929C333.921 28.0079 328.447 27.0959 323.52 27.7566C317.192 28.6051 310.949 32.0313 308.007 37.6971C305.065 43.3629 306.318 51.2687 311.634 54.8036C304.057 63.4878 301.416 73.166 301.833 84.6833C302.25 96.2006 314.801 106.8 322.986 114.914C324.814 113.806 326.476 108.613 325.471 106.727C324.465 104.84 325.906 102.655 324.661 100.917C323.416 99.1799 322.374 101.947 323.633 100.219C324.427 99.1287 321.327 96.6206 322.508 95.9681C328.218 92.812 330.116 85.6953 333.702 80.2455C338.028 73.6719 345.431 69.2203 353.265 68.4818C357.58 68.0749 362.139 68.8118 365.676 71.3172C369.213 73.8226 371.503 78.2998 370.683 82.5562C372.807 80.3992 373.865 77.2381 373.466 74.237C373.067 71.2359 371.221 68.4608 368.607 66.9335C370.196 61.6773 368.835 55.6312 365.145 51.5639C361.456 47.4965 346.491 48.1892 341.105 49.2597" fill="#1E1E1E"/>
<path d="M340.686 68.6411C333.552 69.4112 328.402 75.5903 324.052 81.2967C321.546 84.5857 318.92 88.2179 318.983 92.3529C319.046 96.5334 321.842 100.119 323.177 104.081C325.361 110.557 323.233 118.262 318.035 122.699C323.171 123.673 328.723 119.822 329.61 114.671C330.642 108.673 326.095 102.885 326.634 96.8237C327.108 91.4834 331.317 87.3734 334.894 83.3805C338.472 79.3876 341.832 74.0891 340.186 68.9866" fill="#1E1E1E"/>
<path d="M314.426 234.558H108.757C85.4343 234.558 66.5273 253.465 66.5273 276.788V476.221C66.5273 499.544 85.4343 518.451 108.757 518.451H314.426C337.749 518.451 356.656 499.544 356.656 476.221V276.788C356.656 253.465 337.749 234.558 314.426 234.558Z" fill="white"/>
<path d="M314.426 519.45H108.757C84.9204 519.45 65.5273 500.058 65.5273 476.221V276.788C65.5273 252.951 84.9204 233.558 108.757 233.558H314.426C338.263 233.558 357.656 252.951 357.656 276.788V476.221C357.656 500.058 338.263 519.45 314.426 519.45ZM108.757 235.558C86.0229 235.558 67.5273 254.054 67.5273 276.788V476.221C67.5273 498.955 86.023 517.45 108.757 517.45H314.426C337.161 517.45 355.656 498.955 355.656 476.221V276.788C355.656 254.054 337.161 235.558 314.426 235.558H108.757Z" fill="#1E1E1E"/>
<path d="M292.724 254.177C295.358 254.177 297.493 252.042 297.493 249.408C297.493 246.774 295.358 244.639 292.724 244.639C290.09 244.639 287.955 246.774 287.955 249.408C287.955 252.042 290.09 254.177 292.724 254.177Z" fill="#1E1E1E"/>
<path d="M305.839 254.177C308.473 254.177 310.608 252.042 310.608 249.408C310.608 246.774 308.473 244.639 305.839 244.639C303.205 244.639 301.07 246.774 301.07 249.408C301.07 252.042 303.205 254.177 305.839 254.177Z" fill="#1E1E1E"/>
<path d="M318.955 254.177C321.588 254.177 323.724 252.042 323.724 249.408C323.724 246.774 321.588 244.639 318.955 244.639C316.321 244.639 314.186 246.774 314.186 249.408C314.186 252.042 316.321 254.177 318.955 254.177Z" fill="#1E1E1E"/>
<path d="M102.015 448.631C100.533 448.631 99.3281 449.836 99.3281 451.318C99.3281 452.04 99.6071 452.708 100.114 453.202C100.624 453.725 101.293 454.005 102.015 454.005H317.113C318.595 454.005 319.8 452.799 319.8 451.318C319.8 450.595 319.521 449.927 319.015 449.434C318.504 448.911 317.835 448.631 317.113 448.631H102.015Z" fill="#E6E6E6"/>
<path d="M217.03 447.735V454.9H102.016C101.031 454.9 100.135 454.506 99.4905 453.844C98.8276 453.199 98.4336 452.303 98.4336 451.318C98.4336 449.347 100.046 447.735 102.016 447.735L217.03 447.735Z" fill="#FFD858"/>
<path d="M312.635 434.301H276.81C272.859 434.301 269.645 431.087 269.645 427.136C269.645 423.184 272.859 419.971 276.81 419.971H312.635C316.586 419.971 319.8 423.184 319.8 427.136C319.8 431.087 316.586 434.301 312.635 434.301Z" fill="#E6E6E6"/>
<path d="M178.045 439.421L153.001 355.273L151.084 355.844L176.04 439.696" fill="#1E1E1E"/>
<path d="M178.911 247.916C201.768 246.227 218.566 221.417 216.429 192.5C214.292 163.584 194.03 141.513 171.172 143.202C148.315 144.891 131.517 169.701 133.654 198.617C135.791 227.534 156.053 249.605 178.911 247.916Z" fill="#FFD858"/>
<path d="M178.041 247.916H176.041V447.354H178.041V247.916Z" fill="#1E1E1E"/>
<path d="M154.125 352.836L156.37 359.541L161.297 364.901L148.332 368.049L152.094 361.052L149.656 355.078L154.125 352.836Z" fill="#FFD858"/>
<path d="M178.539 243.705L178.779 250.772L181.973 257.314L168.648 256.634L174.249 251.001L173.616 244.579L178.539 243.705Z" fill="#FFD858"/>
<path d="M154.8 354.593C176.207 346.404 185.162 317.812 174.803 290.731C164.443 263.65 138.691 248.335 117.284 256.524C95.8772 264.713 86.9215 293.305 97.2811 320.386C107.641 347.467 133.393 362.782 154.8 354.593Z" fill="#FFD858"/>
<path d="M336.51 224.322C343.255 226.358 347.673 231.49 346.376 235.783C345.079 240.075 338.56 241.903 331.812 239.865C329.106 239.088 326.624 237.674 324.576 235.741L296.104 226.751L299.687 215.5L328.198 223.751C330.974 223.275 333.825 223.47 336.51 224.322Z" fill="#FFB6B6"/>
<path d="M287.041 150.559L317.041 128.559L316.041 170.559L288.041 206.559L318.041 218.559L317.041 235.692C317.041 235.692 279.041 226.559 273.041 225.559C267.041 224.559 262.041 210.559 262.041 210.559L287.041 150.559Z" fill="#E6E6E6"/>
</g>
<defs>
<clipPath id="clip0_101_43">
<rect width="524.67" height="520.188" fill="white"/>
</clipPath>
</defs>
</svg>
