<svg width="392" height="410" viewBox="0 0 392 410" fill="none" xmlns="http://www.w3.org/2000/svg">
<rect width="392" height="410" rx="40" fill="#101010"/>
<path d="M112.196 283.811C112.196 281.797 113.745 280.713 115.294 280.713H176.016C177.72 280.713 179.141 281.952 179.114 283.811C178.663 316.031 145.036 334 119.941 334H115.604C113.745 334 112.196 332.606 112.196 330.592V283.811Z" fill="#FFD858"/>
<path d="M110.028 136.342C107.673 136.342 106.361 133.864 106 132.624V130.456C106 121.007 115.449 93.1238 139.459 81.506C145.964 78.3587 154.485 75.3098 161.146 75H280.732H282.591C284.945 75.2478 285.844 77.3752 285.999 78.4079V80.2667C279.028 116.979 255.483 136.342 232.092 136.342H110.028Z" fill="#FFD858"/>
<path d="M185.001 151.833C185.001 150.284 185.931 147.805 188.719 147.805H277.015C279.803 147.805 280.113 150.129 280.113 150.284C280.113 167.478 257.187 207.908 217.841 207.908H189.339C187.48 207.908 185.001 207.288 185.001 203.571V151.833Z" fill="#FFD858"/>
<circle cx="142.557" cy="180.025" r="35.628" fill="#FFD858"/>
<rect x="112.196" y="222.779" width="67.2285" height="48.3301" rx="8" fill="#FFD858"/>
</svg>
