<svg width="1396" height="91" viewBox="0 0 1396 91" fill="none" xmlns="http://www.w3.org/2000/svg">
<path d="M15.347 26.9062C19.6447 30.2884 25.0088 34.3239 30.1288 37.7955C32.0626 39.1139 33.9497 40.3573 35.7036 41.4848C37.7142 42.7652 36.4603 42.528 37.8499 43.4191C40.5752 45.1497 43.3393 46.3828 46.1072 47.9896C47.0281 48.5241 45.5428 48.5349 46.5189 49.0816C50.0431 51.0438 53.5995 52.6619 57.2465 54.2264C59.1426 55.0392 61.0551 55.8334 63.0233 56.6572C70.9773 59.9858 79.1155 62.8256 87.3869 65.2642C97.6891 68.2995 108.191 70.7117 118.843 72.6186C129.409 74.5081 140.117 75.9004 150.993 76.8656C151.718 76.9299 152.444 76.9923 153.169 77.0526C162.446 77.8377 173.471 78.7535 183.441 78.6535C184.626 78.6433 185.794 78.6221 186.939 78.5888C188.201 78.5508 187.446 77.9649 187.686 77.9151C191.443 77.1457 190.2 78.3441 192.657 78.4767C199.977 78.8619 207.939 78.8027 215.416 78.4487C217.886 78.3326 220.301 78.1856 222.627 78.0158C226.612 77.7175 222.553 76.7521 226.601 77.1998C226.882 77.2293 225.903 77.9086 227.001 77.9167C229.491 77.9369 234.192 77.5432 236.117 77.4653C239.827 77.3212 240.44 77.2718 243.943 77.0256C245.043 76.9484 246.192 76.8812 247.372 76.8158C251.327 76.5972 255.627 76.396 259.571 75.9281C260.663 75.7964 259.156 75.2897 260.891 75.021C262.628 74.7549 267.252 74.3629 268.824 74.3535C270.397 74.3468 269.785 74.9155 270.072 75.0026C272.443 75.7473 277.647 73.8274 278.327 73.7151C278.624 73.6686 278.921 73.6228 279.216 73.5777C290.485 71.8542 300.44 71.1846 311.011 69.7713C311.777 69.6686 312.545 69.5619 313.318 69.4505C322.213 68.1682 331.668 66.429 340.107 65.0524C340.959 64.9139 341.801 64.7784 342.634 64.6455C351.625 63.2066 359.549 62.0762 368.448 60.3475C369.474 60.1483 368.13 59.634 369.382 59.389C370.947 59.0826 372.512 58.776 374.078 58.4696C385.8 56.1749 397.371 53.7861 409.079 51.5171C409.287 51.477 409.424 51.4685 409.513 51.4818C409.765 51.5194 409.635 51.7303 409.611 51.8982C409.602 51.9574 409.607 52.0113 409.646 52.0503C409.71 52.1135 409.864 52.1378 410.199 52.0828C418.386 50.7439 431.451 48.8445 435.51 44.8265C438.363 44.163 441.532 43.4123 444.623 42.7434C447.454 42.1309 450.219 41.5872 452.614 41.2473C455.844 40.7871 452.983 42.2849 456.756 40.9746C457.607 40.6796 456.316 40.3658 457.605 39.9694C463.028 38.3011 469.07 36.907 474.409 35.1465C475.495 34.787 475.048 34.3199 475.334 34.138C476.436 33.454 478.02 33.1144 479.51 32.9322C481.282 32.7153 482.921 32.7216 483.453 32.6357C490.906 31.4175 496.137 29.7275 502.918 27.9677C504.492 27.5601 502.44 27.311 503.948 26.8924C507.487 25.9155 511.096 24.9644 514.709 24.0684C519.084 22.9835 523.466 21.9798 527.738 21.107C529.474 20.7547 528.051 21.7761 528.889 21.6402C532.577 21.0363 533.088 19.6506 536.626 19.0632C537.372 18.9385 537.09 19.5777 537.238 19.6046C539.552 20.0286 541.054 18.2776 541.586 18.1201C544.792 17.1566 547.538 16.7419 550.242 16.3884C553.206 16.0015 556.117 15.6878 559.549 14.824C560.334 14.6254 558.4 14.3316 560.617 13.8156C568.795 11.9147 577.324 10.1764 585.8 8.72408C592.637 7.55095 599.547 6.63116 606.224 5.97179C608.554 5.74342 606.97 6.4899 607.125 6.53438C609.628 7.22212 610.99 5.68151 611.743 5.53553C612.728 5.35096 613.703 5.21291 614.669 5.10117C619.52 4.53916 624.015 4.6588 627.283 2.99911C632.713 2.61674 638.138 2.25224 643.555 1.93334C653.24 1.36343 662.914 0.938038 672.577 0.822962C682.267 0.707776 691.945 0.905212 701.582 1.5892C702.136 1.6285 702.69 1.66941 703.243 1.71195C703.563 1.73494 702.976 2.394 703.614 2.43705C711.293 2.98029 709.837 1.91229 714.97 0.786642C716.263 0.504479 720.116 2.17746 720.453 2.30446C721.693 2.76592 720.354 3.71441 720.772 3.81033C724.223 4.5742 723.786 1.25314 728.487 1.4527C728.634 1.46461 727.99 2.04407 728.382 2.12159C729.107 2.26628 729.835 2.25874 730.556 2.28502C731.045 2.30284 731.532 2.33623 732.011 2.44322C734.733 3.05672 735.624 4.70195 739.856 3.9904C740.391 3.89891 739.683 1.98319 743.868 2.30355C745.541 2.42839 752.94 2.83961 754.999 3.09836C757.061 3.35205 755.601 3.86233 755.747 3.89782C757.853 4.3384 758.84 4.64147 759.411 4.9212C759.41 4.92114 759.41 4.92118 759.41 4.92117C760.336 5.37526 760.16 5.76872 761.834 6.61395C764.54 7.97777 763.958 5.12777 765.116 4.89442C766.277 4.66121 770.312 5.60998 771.298 5.91294C772.283 6.21472 771.006 6.50488 771.887 6.69953C777.73 7.9833 774.582 5.50507 776.562 5.20796C781.235 4.5081 784.651 6.86737 788.828 7.4172C789.96 7.56633 789.072 7.01727 790.087 7.05739C794.108 7.2248 796.461 8.07782 801.068 7.88963C801.809 7.85923 805.498 6.97429 807.807 8.02721C807.845 8.04444 807.882 8.06219 807.919 8.08047C808.245 8.24353 807.238 8.67047 808.933 8.94443C811.465 9.35378 816.044 9.90426 818.798 10.001C820.832 10.0719 818.598 8.99409 821.117 9.50894C822.237 9.73884 820.092 10.0282 822.198 10.4189C824.293 10.8068 829.694 11.3343 831.751 11.5326C833.803 11.7286 832.748 10.9676 832.918 10.9414C833.947 10.7963 837.916 10.9024 838.264 10.9412C844.332 11.5617 850.22 12.3278 856.03 13.1376C867.029 14.6714 877.75 16.3597 888.927 17.5435C890.267 17.6867 889.463 16.8956 889.669 16.9105C894.283 17.2125 890.443 18.5512 893.561 19.565C893.277 18.1311 895.131 18.6219 898.373 18.892C899.936 19.0214 899.16 18.3786 899.309 18.3426C901.718 17.8361 903.185 19.0927 903.569 19.3608C903.733 19.4751 903.903 19.5666 904.075 19.6403C905.391 20.2028 906.884 19.7182 907.739 20.3052C908.706 20.9652 906.217 21.4176 909.306 21.822C910.239 21.4468 908.118 19.8532 910.492 19.9606C919.451 20.3534 935.819 23.6821 942.905 24.8241C947.271 25.5217 949.818 25.8859 952.094 26.2456C953.507 26.4691 954.814 26.6913 956.385 26.9936C963.795 28.4236 961.204 27.0658 965.9 27.3251C970.61 27.5903 967.999 29.5904 968.59 30.1941C969.169 30.7961 969.962 30.3868 970.735 30.7869C971.505 31.1865 969.696 31.2616 971.589 31.6554C973.483 32.0484 978.842 31.9538 979.6 31.5329C981.203 30.6395 979.029 29.1065 984.022 30.2979C984.309 30.3673 983.27 30.8364 984.374 31.0708C989.476 32.1425 994.714 33.0899 999.929 34.0556C1003.68 34.7495 1007.41 35.4532 1011.07 36.2178C1012.28 36.4703 1011.08 36.9805 1011.78 37.1352C1019.06 38.7514 1016.62 37.1776 1020.86 36.5463C1019.68 38.1046 1021.74 39.5047 1027.31 40.4201C1030.66 40.9715 1030.21 40.134 1032.46 39.9632C1033.14 39.9111 1035.43 40.8095 1035.91 40.53C1037.52 39.6188 1035.49 37.9717 1041.16 39.4246C1041.41 39.4903 1040.5 39.9843 1041.37 40.1653C1044.43 40.807 1046.07 40.7744 1047.94 40.753C1049.48 40.7348 1051.17 40.7227 1053.94 41.0892C1058.72 41.7319 1067.1 43.6893 1072.53 44.5094C1072.16 46.4209 1077.39 46.6456 1079.63 45.5656C1083.17 46.0517 1087.01 46.4157 1090.41 46.9699C1091.59 47.1599 1090.75 47.6349 1090.89 47.7113C1093.08 48.904 1094.76 47.7675 1095.53 47.7951C1099 47.9422 1102.17 48.2953 1105.28 48.6375C1109.66 49.1199 1113.91 49.5805 1118.6 49.3738C1118.89 49.3603 1119.45 48.0529 1121.5 49.1909C1121.63 49.2685 1118.96 49.6878 1122.69 50.0085C1126.43 50.331 1133.44 51.5158 1138.68 51.1799C1139.95 51.1017 1143.18 50.1825 1145.69 51.1627C1146.03 51.2956 1145.64 51.6632 1146.12 51.9025C1147.67 52.6654 1148.6 51.3464 1150.42 52.5885C1152.23 53.8297 1156.09 54.8712 1161.38 54.2653C1161.5 54.2536 1162.13 53.7699 1163.04 53.4862C1163.47 53.3537 1163.96 53.2648 1164.48 53.2881C1167.12 53.4071 1170.86 53.7463 1173.61 53.8128C1174.93 53.8443 1174.11 53.1515 1174.34 53.1453C1183.21 52.998 1189.5 53.7095 1199.01 54.0706C1200.75 54.1387 1205.76 53.2648 1209.13 53.9999C1212.83 54.8022 1209.01 58.0914 1217.54 57.3159C1218.61 57.2181 1219.77 56.7451 1221.04 56.2041C1223.86 55.0077 1227.23 53.4801 1231.49 54.9427C1243.45 54.3277 1254.54 55.2823 1266.52 54.3066C1267.06 54.2632 1268.75 53.0674 1270.02 53.0599C1271.9 53.0511 1272.94 53.5761 1274.29 53.5863C1275.9 53.6023 1277.48 53.5668 1279.03 53.5069C1282.9 53.3576 1286.63 53.0574 1290.51 53.0265C1292.57 53.0088 1291.86 53.5874 1294.32 53.5659C1296.78 53.5436 1298.4 52.7664 1301.74 53.0515C1304.26 53.2693 1306.81 54.7296 1310.16 54.8329C1310.25 53.3352 1312.54 53.3153 1316.61 52.8322C1317.39 52.7386 1316.54 52.2365 1316.91 52.1654C1318.41 51.8645 1319.82 52.2657 1321.25 51.9432C1321.59 51.8657 1321.6 51.3547 1321.88 51.2625C1324.29 50.4587 1328.3 51.5244 1328.99 51.7105C1331.64 52.4162 1332.85 51.7276 1334.87 51.9869C1336.89 52.2465 1333.89 52.6792 1336.24 52.8147C1336.5 52.8296 1336.76 52.8432 1337.03 52.8555C1341.78 53.0742 1347.64 52.8962 1352.32 52.8438C1354.3 52.8187 1352.94 52.1585 1353.22 52.139C1357.3 51.9012 1361.44 52.5697 1363.68 51.1834C1366.56 54.6596 1366.14 50.8092 1371.98 51.4514C1372.45 51.5037 1373.05 53.158 1371.28 53.4194C1369.52 53.6807 1366.84 53.1914 1364.4 53.6022C1363.82 53.6981 1360.52 55.2978 1360.07 55.3988C1356.54 56.1852 1356 53.7134 1355.81 53.5796C1353.66 52.1406 1349.63 53.883 1348.56 54.0174C1344.33 54.5502 1340.64 54.4163 1337.07 54.6718C1336.52 54.7106 1335.98 54.7584 1335.45 54.8189C1332.78 55.1163 1332.55 56.7466 1330.45 56.7394C1323.47 56.7181 1320.99 54.5044 1314.45 56.6124C1313.05 57.0624 1314.49 58.8075 1309.41 57.5219C1309.09 57.4408 1305.31 56.2458 1303.16 57.1015C1302.89 57.2093 1302.91 57.7267 1302.55 57.7781C1300.15 58.1121 1298.54 57.735 1295.92 57.9894C1293.3 58.2437 1290.15 58.6059 1287.15 58.4931C1285.35 58.4261 1283.01 57.5094 1282.14 57.2908C1281.13 57.0292 1280.08 57.0772 1279.1 57.1661C1277.72 57.2913 1276.46 57.4975 1275.57 57.0329C1274.03 56.2345 1276.98 54.9204 1272.98 54.462C1272.86 55.8095 1272.54 57.1962 1272.33 58.553C1263.57 58.6702 1254.94 58.3763 1246.14 58.541C1245.05 58.5626 1246.18 59.2725 1245.01 59.3141C1240.08 59.4855 1235.76 59.0099 1230.64 59.2469C1227.58 59.3906 1224.3 59.8897 1221.05 60.1987C1220.09 60.2897 1219.14 60.3643 1218.19 60.4085C1215.66 58.8725 1209.51 59.3847 1205.04 59.2124C1203.48 59.1533 1203.58 58.7427 1202.47 58.6C1198.28 58.068 1200.23 59.4443 1199.08 59.6478C1194.13 60.5074 1193.74 57.4265 1187.92 57.4092C1187.62 57.4083 1183.81 58.9796 1183.29 59.0699C1179.97 59.6678 1182.76 58.4882 1180.69 58.3229C1176.92 58.0173 1174.32 57.5609 1169.88 57.9115C1168.58 58.0161 1165.45 58.9415 1162.97 58.062C1162.94 58.0494 1162.91 58.0319 1162.88 58.0106C1162.69 57.8361 1162.82 57.4067 1162.58 57.3701C1157.8 56.6668 1157.61 58.3598 1154.84 58.8247C1152.07 59.289 1147.87 57.9152 1147.03 57.533C1144.82 56.5469 1148.78 57.243 1148.9 57.161C1150.39 56.2043 1147.29 56.2388 1144.93 56.0321C1144.67 54.3474 1141.38 54.2749 1142.49 55.8231C1142.62 55.9929 1144.46 55.9324 1144.93 56.0321C1142.78 57.5654 1139.13 57.5843 1135.21 55.8162C1133.38 54.9845 1135.2 54.2655 1129.49 54.2091C1126.9 54.1772 1127.82 55.3917 1125.52 55.5493C1120.26 55.9077 1113.56 54.3129 1108.19 54.0102C1106.23 53.9005 1108.08 54.6948 1106.74 54.6407C1106.06 54.6132 1105.4 54.5627 1104.74 54.4984C1101.99 54.2267 1099.43 53.7107 1096.55 53.6182C1096.22 53.6085 1096.94 54.3436 1095.84 54.2408C1087.46 53.4658 1080.23 52.2139 1071.51 51.0638C1067.29 50.515 1059.72 49.8105 1055.39 49.0651C1052.68 48.6067 1049.77 47.9906 1046.85 47.34C1041.71 46.1928 1036.54 45.0021 1032.44 44.4838C1028.25 43.9522 1029.06 44.7523 1027.2 44.9057C1023.62 45.2056 1017.78 42.6825 1017 42.3125C1016.98 42.3004 1020.58 42.7244 1018.72 42.0821C1017.73 41.2066 1017.04 42.316 1017 42.3125C1016.49 42.0707 1009.35 40.7751 1007.91 40.6744C1007.13 40.6193 1007.46 41.3052 1007.06 41.2649C1004.35 40.992 1001.64 40.6894 998.934 40.3563C991.999 39.5021 985.075 38.4456 978.121 37.1646C977.952 37.1258 978.316 36.4746 977.917 36.3922C972.341 35.2221 968.611 35.5212 963.898 35.3251C959.185 35.1296 955.533 34.4162 952.962 32.824C952.394 32.7648 951.789 32.6824 951.162 32.5827C947.899 32.0637 944.034 31.0802 941.647 30.4628C938.801 29.7268 938.204 31.0164 937.946 31.0063C929.89 30.7229 925.413 29.3063 917.191 28.0525C913.825 27.537 907.573 26.831 903.18 26.3859C902.474 26.314 901.815 26.2487 901.225 26.1915C897.856 25.8684 895.877 25.289 892.761 25.092C892.339 25.0651 892.684 25.7203 892.554 25.727C889.013 26.0022 890.859 24.7469 890.18 24.3931C887.72 23.1094 886.188 22.3966 881.711 22.2922C880.677 22.2672 877.446 24.0145 875.574 23.9111C873.14 23.7726 874.144 23.125 871.592 23.0017C871.374 22.9906 871.362 23.4637 869.804 23.255C865.085 22.6272 860.094 21.9018 855.101 21.2548C852.439 20.9099 849.777 20.5872 847.155 20.3125C846.125 20.203 847.362 21.0924 845.873 20.9467C838.886 20.2625 831.239 19.4258 824.47 18.3921C822.804 18.1354 823.907 17.7201 823.559 17.5289C821.419 16.3679 818.116 17.4169 817.592 17.3924C813.848 17.2242 810.38 16.9226 807.017 16.5686C799.134 15.7407 791.815 14.6153 782.871 14.3119C782.174 14.289 776.745 15.332 774.462 13.9022C774.306 13.8064 772.047 12.347 769.903 13.0724C769.77 13.118 771.189 13.8846 768.635 13.6316C766.187 13.3895 762.273 13.5189 758.893 12.687C758.893 12.687 758.893 12.687 758.893 12.687C758.746 12.6507 758.599 12.6125 758.454 12.5724C757.36 12.2702 754.796 10.8154 751.414 11.6305C751.188 11.6859 745.932 13.6845 744.198 11.9918C743.918 11.7141 744.319 10.0419 740.31 10.6902C739.543 10.8172 740.898 11.2663 738.89 11.395C736.391 11.5578 733.262 11.1576 730.145 11.3182C729.426 11.3552 728.708 11.4218 727.998 11.5317C727.332 11.6353 724.507 12.661 722.304 11.7068C721.959 11.5573 722.647 11.0196 721.467 10.9115C715.862 10.3965 709.973 10.5974 704.282 10.0916C702.349 9.92195 703.234 9.09611 701.458 8.77956C701.381 8.76596 701.3 8.75332 701.213 8.74174C699.109 8.45901 694.862 8.17161 692.655 8.5749C690.448 8.97772 692.845 10.4417 689.548 10.5427C683.932 10.7211 678.343 10.7489 672.761 10.7588C664.102 10.7744 655.452 10.7461 646.785 11.178C644.897 11.274 646.119 11.6135 644.18 11.8291C643.95 11.855 643.674 11.8793 643.344 11.9017C635.956 12.3895 625.161 13.5055 615.779 14.484C610.603 15.0122 605.846 15.4768 602.301 15.6091C594.318 15.9387 604.095 13.7481 598.033 14.3256C595.093 14.615 592.252 16.821 591.56 16.9982C590.14 17.3632 588.802 17.6637 587.518 17.9244C582.675 18.9097 578.603 19.2743 573.791 20.4452C572.533 20.7527 573.912 21.1669 572.841 21.4216C569.189 22.2973 565.25 22.8281 561.743 23.6576C560.169 24.0318 560.573 24.4776 559.113 24.7613C556.791 25.2178 554.635 25.5867 552.423 25.874C551.308 26.0189 550.179 26.1431 549.007 26.2478C548.688 26.2764 550.621 25.158 548.046 25.7341C543.88 26.6696 538.606 27.4381 533.947 29.0993C532.565 29.5948 532.797 30.7655 529.554 30.7227C528.874 30.7156 529.341 29.1185 526.095 31.2107C525.577 31.5396 520.601 34.3488 517.366 34.4141C517.178 34.4178 516.995 34.4121 516.82 34.396C515.979 34.3193 513.718 33.6902 512.062 34.3103C511.838 34.3987 512.924 34.7797 511.53 35.2061C506.613 36.6985 501.389 38.0011 496.335 39.5468C494.986 39.9608 497.186 40.0647 495.17 40.6615C491.314 41.8037 486.744 42.9725 482.459 44.0017C480.584 44.4523 478.762 44.8759 477.08 45.2585C475.043 45.7206 476.296 44.8179 476.134 44.7992C473.523 44.4874 472.465 46.1281 471.701 46.4106C466.944 48.1499 463.071 48.5381 458.612 49.8805C457.38 50.2491 458.421 50.6232 458.187 50.7423C455.76 51.944 457.386 50.3542 455.73 50.6603C452.966 51.1687 450.05 51.8601 447.173 52.6014C445.222 53.1039 443.289 53.6296 441.433 54.1375C439.746 54.5999 441.831 54.817 440.314 55.2236C431.338 57.6429 421.922 59.8974 412.978 61.5832C411.293 61.899 412.214 61.1088 411.838 61.0657C411.809 61.0623 411.78 61.0591 411.751 61.0562C409.171 60.801 405.998 62.7509 405.221 63.0439C401.657 64.3945 400.118 64.2292 396.88 65.0326C390.457 66.6256 383.343 68.1612 376.203 69.5213C365.758 71.5156 355.076 73.2777 346.077 74.6857C345.506 74.7753 344.939 74.8637 344.376 74.9509C332.812 76.737 322.682 78.053 312.375 79.3792C305.793 80.2237 299.137 81.069 291.977 82.0022C290.774 82.1578 292.078 82.7476 291.042 82.8909C287.488 83.372 283.942 83.8003 280.398 84.1944C270.593 85.2844 260.809 86.1143 250.903 87.0678C249.796 87.1726 251.45 87.7485 249.674 87.9395C249.211 87.9896 248.733 88.0383 248.242 88.0851C244.868 88.4077 240.926 88.6339 237.686 88.6479C235.877 88.6566 238.254 87.8962 236.435 87.9166C232.197 87.9612 227.67 88.1681 223.334 88.4928C221.489 88.6317 224.312 89.218 221.909 89.3414C219.889 89.4456 217.877 89.543 215.864 89.6319C205.076 90.1085 194.261 90.3402 183.441 89.9878C179.952 89.8741 176.39 89.6799 172.814 89.3914C171.654 89.2974 170.704 87.8085 168.264 88.0052C168.067 88.4053 168.06 88.8839 167.965 89.3157C161.975 89.1581 156.028 88.8309 150.086 88.3465C138.971 87.4388 127.932 85.9886 116.927 84.0358C110.143 82.8309 103.372 81.4334 96.6151 79.8406C95.6202 79.605 97.1656 80.7649 95.2362 80.3098C91.4564 79.4118 87.7174 78.4763 84.0064 77.4477C76.7607 75.4375 69.5838 73.0691 62.4546 69.8767C61.3865 69.393 62.423 68.3396 59.1522 67.2964C58.5984 67.1313 54.2195 65.5466 52.6101 65.138C52.5188 65.1158 52.4363 65.0976 52.3639 65.084C52.1782 65.0528 52.8012 66.0142 51.2521 65.3704C42.2679 61.6149 33.1596 56.7983 25.0588 51.3169C23.7517 50.4288 25.5368 50.7402 24.6126 50.1028C24.0648 49.7241 23.5122 49.3452 22.956 48.9654C16.8726 44.8272 10.3099 40.4499 5.37072 35.479C1.80043 31.8303 4.00576 32.1797 2.80911 29.5389C2.6366 29.1715 0.408258 27.0225 0.770286 26.4239C1.66138 24.9339 3.99855 24.6174 4.81812 22.9034C4.98752 22.5471 1.88833 20.056 4.20974 21.0399C4.36522 21.1165 6.63283 22.8794 7.36691 23.1172C7.8725 23.2884 7.70054 22.1929 8.61525 22.6602C9.52854 23.1226 9.94265 24.2805 11.3928 25.1165C12.8488 25.9357 12.803 24.8953 15.347 26.9062ZM928.824 27.1809C926.235 26.1574 925.508 28.4718 928.485 28.3116C928.629 28.3011 928.958 27.232 928.824 27.1809ZM1254.96 56.5588C1251.4 55.5554 1249 57.1376 1251.51 57.9194C1254.02 58.6994 1256.04 56.8626 1254.96 56.5588ZM1291.67 55.1027C1287.52 54.3589 1286.94 57.7648 1291.36 56.9849C1291.61 56.9406 1291.92 55.1458 1291.67 55.1027ZM12.3979 37.2477C12.3846 37.2025 10.6656 35.7987 10.6075 35.7866C9.19945 35.64 12.6535 38.4647 12.3979 37.2477ZM1328.08 53.4757C1326.78 53.0432 1323.07 53.6513 1324.69 54.1881C1325.99 54.6198 1329.7 54.0133 1328.08 53.4757ZM788.845 8.59057C788.806 8.55133 787.244 8.39032 787.259 8.59394C787.312 9.24929 789.503 9.24678 788.845 8.59057ZM1389.99 52.6132C1380.84 52.5138 1375.27 49.7607 1385.24 50.0155C1387.05 50.0637 1381.36 50.9288 1383.66 51.1698C1387.86 51.6091 1390.65 49.8411 1394.94 50.7828C1395.72 50.9541 1390.51 52.6235 1389.97 52.6171C1389.98 52.6158 1389.98 52.6145 1389.99 52.6132ZM927.68 24.1179C927.631 24.0788 925.482 23.7479 925.426 23.772C924.156 24.3612 928.483 25.028 927.68 24.1179ZM697.407 2.27331C697.288 2.20033 692.236 2.08856 692.072 2.1538C689.433 3.36957 699.628 3.59611 697.407 2.27331ZM1072.61 44.572C1075.06 44.1222 1077.87 44.3837 1079.62 45.5633C1077.3 45.2288 1074.95 44.9252 1072.61 44.572Z" fill="black"/>
</svg>
