<svg width="550" height="70" viewBox="0 0 550 70" fill="none" xmlns="http://www.w3.org/2000/svg">
<path d="M13.5786 13.8844C13.9848 16.835 14.3213 20.5669 14.7602 23.4559C14.8943 24.3502 14.3691 24.0189 14.4509 24.6415C14.6249 25.8733 15.1367 26.7955 15.3819 28.0411C15.4584 28.4415 14.6535 28.2034 14.7507 28.6219C15.2988 30.9119 16.3652 32.7797 17.4212 34.8641C17.8437 35.6935 18.2734 36.4674 18.7737 37.2787C23.8047 45.5766 32.5496 51.2456 42.5793 54.3977C43.4242 54.668 44.2847 54.9243 45.1603 55.1668C49.1303 56.2876 54.1005 57.6922 58.5234 57.795C59.0352 57.8072 58.781 57.1935 58.8817 57.1534C60.4325 56.532 59.8433 57.6783 60.8216 57.9051C64.7612 58.7961 69.1897 58.8911 73.0426 58.5336C74.4739 58.3968 73.3482 57.5204 74.1877 57.7161C74.3029 57.7426 74.455 57.7891 74.6564 57.8596C74.7729 57.899 74.3845 58.5427 74.8367 58.5897C75.8586 58.6983 77.8142 58.4711 78.595 58.4634C80.1177 58.4534 80.3698 58.4263 81.8118 58.3083C83.7924 58.1485 86.1628 58.2068 88.257 57.7978C88.7034 57.7086 88.027 57.1481 88.7295 56.9478C89.4302 56.7502 91.3418 56.5397 91.9956 56.5936C92.6544 56.6491 92.4581 57.1879 92.588 57.2856C93.668 58.115 95.657 56.4242 95.9279 56.3418C99.7049 55.2752 103.168 54.9226 106.697 54.3423C107.878 54.1476 109.062 53.927 110.257 53.644C113.891 52.7834 117.646 51.5335 121.079 50.5856C125.111 49.4739 128.679 48.7214 132.53 47.3568C132.941 47.2115 132.216 46.661 132.715 46.4822C134.531 45.8313 136.277 45.202 138.087 44.558C141.555 43.3242 145.046 42.1095 148.52 41.0009C149.045 40.8339 148.653 41.7206 149.194 41.5896C152.601 40.7547 158.155 39.5969 158.605 36.129C160.767 35.1838 163.179 34.0449 165.334 33.4995C166.694 33.16 165.927 34.4289 167.196 33.3453C167.478 33.102 166.746 32.7966 167.191 32.4737C167.52 32.2336 167.858 32.002 168.198 31.7759C169.875 30.6666 171.734 29.6678 173.278 28.4492C173.658 28.1473 173.258 27.7254 173.324 27.5684C173.898 26.2732 176.24 26.4934 176.647 26.3738C178.659 25.7652 180.149 24.9747 181.653 24.1084C182.477 23.6338 183.308 23.1361 184.227 22.6389C184.831 22.3133 183.754 22.0357 184.322 21.6982C187.279 19.9569 190.465 18.3534 193.626 17.1477C194.33 16.8816 194.004 17.769 194.355 17.6719C194.893 17.5207 195.215 17.2714 195.47 16.9915C195.945 16.4699 196.187 15.8403 197.15 15.5671C197.461 15.4775 197.54 16.0556 197.618 16.0852C198.849 16.555 198.98 14.9955 199.181 14.8678C201.7 13.2384 204.009 13.7538 206.551 12.451C206.857 12.2941 205.87 11.9491 206.747 11.5473C207.677 11.1222 208.624 10.7098 209.583 10.3127C214.389 8.31905 219.54 6.7152 224.568 5.71154C224.851 5.65485 225.133 5.60001 225.415 5.54705C226.393 5.36439 225.852 6.06231 225.93 6.10796C227.171 6.81784 227.447 5.33922 227.75 5.20678C230.135 4.2004 232.692 4.79624 234.063 2.86228C235.993 2.56994 237.92 2.27865 239.849 2.01302C245.037 1.29486 250.401 0.758289 255.6 0.90771C259.171 1.00606 262.853 1.41925 266.349 2.24722C266.483 2.27704 266.177 2.92077 266.442 2.97739C268.343 3.3935 268.924 3.19097 269.579 2.73166C270.022 2.42322 270.496 2.00134 271.435 1.60929C272.027 1.36346 273.449 3.12738 273.57 3.26255C274.031 3.75398 273.336 4.65574 273.499 4.76231C274.836 5.61356 275.128 2.31501 277.107 2.65639C277.167 2.67262 276.804 3.2249 276.958 3.31339C277.436 3.59011 277.985 3.44483 278.447 3.74345C279.503 4.43523 279.589 6.08041 281.497 5.52032C281.741 5.44885 281.785 3.54107 283.51 4.00186C283.529 4.0071 283.55 4.01269 283.573 4.01863C284.368 4.21718 287.287 4.8618 288.086 5.18352C288.91 5.50849 288.182 5.95165 288.237 5.99184C290.329 7.32948 289.382 7.43721 290.225 8.86799C291.06 10.2971 291.451 7.50294 291.994 7.3211C292.54 7.13949 294.034 8.22051 294.378 8.55325C294.725 8.8849 294.117 9.11597 294.444 9.33948C296.607 10.8142 295.866 8.28868 296.777 8.0801C296.837 8.06635 296.896 8.0549 296.954 8.04562C298.982 7.7261 299.853 10.0309 301.438 10.707C301.881 10.8957 301.642 10.3306 302.062 10.4095C303.728 10.7301 304.509 11.6445 306.515 11.6383C306.843 11.6371 308.696 10.9008 309.381 12.0761C309.477 12.2447 308.938 12.6193 309.588 12.9438C309.687 12.9934 309.795 13.045 309.91 13.0979C310.921 13.5639 312.484 14.1349 313.516 14.2977C314.365 14.4313 313.693 13.3237 314.634 13.8989C315.052 14.1551 314.061 14.3659 314.858 14.8075C315.651 15.2475 317.823 15.9112 318.652 16.1541C319.479 16.3964 319.224 15.6368 319.303 15.6161C319.781 15.5048 321.451 15.702 321.59 15.7459C322.191 15.9271 322.786 16.1146 323.375 16.3068C327.859 17.7696 332.018 19.5072 336.376 20.8605C338.175 21.4187 339.998 21.95 341.871 22.4074C342.422 22.5431 342.256 21.7808 342.342 21.7947C344.284 22.0802 342.296 23.3772 343.411 24.3506C343.628 22.9682 344.319 23.4389 345.667 23.6988C346.317 23.8235 346.135 23.2047 346.209 23.17C346.259 23.1492 346.308 23.1314 346.355 23.1166C347.414 22.7858 347.722 23.9053 347.818 24.1521C348.193 25.1023 349.147 24.4251 349.403 25.0641C349.658 25.6989 348.461 26.1309 349.704 26.5223C350.206 26.1634 349.682 24.6304 350.692 24.7371C352.211 24.8974 354.13 25.5005 356.062 26.2412C358.978 27.3587 361.919 28.7876 363.607 29.4367C364.344 29.7201 364.952 29.9451 365.477 30.1361C366.949 30.6712 367.771 30.9396 368.944 31.4846C371.819 32.8194 371.04 31.5333 373.033 31.7525C375.031 31.9713 373.363 33.9019 373.465 34.4748C373.563 35.0458 374.019 34.6482 374.255 35.0241C374.475 35.374 373.781 35.4736 374.277 35.777C374.314 35.7992 374.356 35.8226 374.406 35.8472C375.14 36.2085 377.527 36.0594 377.968 35.645C378.9 34.7682 378.333 33.3325 380.224 34.4013C380.333 34.4634 379.759 34.9284 380.185 35.1363C381.606 35.8195 383.079 36.4301 384.563 37.0174C386.625 37.8328 388.709 38.6029 390.714 39.4644C391.189 39.669 390.551 40.2002 390.826 40.3269C393.332 41.4773 393.081 40.517 394.312 39.7457C394.313 39.7457 394.312 39.7457 394.313 39.7458C394.489 39.6346 394.697 39.527 394.948 39.4293C394.103 40.9805 394.716 42.264 397.004 42.9053C398.38 43.2882 398.342 42.4956 399.368 42.2209C399.676 42.1376 400.516 42.8943 400.782 42.597C401.656 41.6257 401.067 40.1379 403.284 41.2384C403.381 41.2883 402.897 41.8198 403.244 41.9475C405.125 42.6382 405.83 41.9691 407.491 42.0012C407.813 42.0071 408.172 42.0389 408.583 42.1111C410.561 42.4632 413.889 43.9652 416.113 44.5544C415.661 46.4434 417.89 46.4567 419.018 45.3189C419.449 45.4236 419.894 45.5182 420.342 45.6115C421.398 45.8312 422.472 46.0433 423.441 46.3619C423.916 46.5175 423.49 47.0077 423.54 47.0791C424.306 48.1957 425.188 47.0369 425.513 47.046C428.439 47.175 430.747 48.2077 433.427 48.3301C433.972 48.3548 434.531 48.3416 435.113 48.2752C435.236 48.2606 435.649 46.964 436.363 48.0818C436.409 48.1583 435.222 48.5811 436.76 48.8869C438.298 49.1931 441.104 50.3826 443.356 50.1055C443.901 50.0397 445.387 49.166 446.312 50.1748C446.436 50.3114 446.222 50.6695 446.392 50.9136C446.442 50.9832 446.491 51.0362 446.541 51.0761C447.047 51.4832 447.566 50.5149 448.11 51.6653C448.707 52.9281 450.19 54.0324 452.486 53.5712C452.559 53.5588 453.235 52.5688 453.917 52.6884C455.005 52.8806 456.522 53.3348 457.665 53.498C458.212 53.5757 457.961 52.8604 458.057 52.8624C458.666 52.8911 459.242 52.9411 459.798 53.0085C462.646 53.3539 464.948 54.1541 468.207 54.8631C468.92 55.0194 471.131 54.4282 472.418 55.356C472.669 55.5364 472.81 55.7799 472.892 56.0568C473.277 57.3384 472.402 59.3484 475.414 59.1418C476.901 59.042 479.283 55.1655 481.547 57.6514C482.943 57.6881 484.293 57.8396 485.625 58.0349C489.105 58.5444 492.473 59.3562 496.148 59.1762C496.377 59.1656 497.205 58.0781 497.73 58.1461C498.052 58.1887 498.305 58.3129 498.531 58.4506C498.853 58.6467 499.118 58.87 499.445 58.9225C501.778 59.31 503.969 59.0356 506.227 59.2931C507.084 59.3891 506.738 59.9266 507.763 60.0393C508.788 60.1504 509.527 59.4634 510.891 59.9217C511.029 59.9685 511.166 60.0375 511.303 60.1228C512.183 60.6719 513.055 61.8919 514.258 62.124C514.409 60.6349 515.367 60.7303 517.094 60.4389C517.426 60.3821 517.106 59.8415 517.265 59.7878C517.91 59.5577 518.468 60.0221 519.082 59.7643C519.232 59.7024 519.267 59.1929 519.391 59.1135C520.441 58.4197 522.043 59.6525 522.32 59.8661C523.12 60.4804 523.628 60.2658 524.184 60.2695C524.364 60.2707 524.55 60.2947 524.753 60.3772C525.58 60.7139 524.305 61.0309 525.28 61.2563C527.303 61.7228 529.929 61.7403 532 61.8286C532.827 61.8608 532.284 61.1618 532.403 61.1505C534.114 61.0312 535.826 61.7998 536.804 60.4639C536.884 60.7208 536.958 60.9388 537.027 61.1223C537.914 63.4642 538.017 60.2037 540.265 60.8954C540.456 60.9554 540.674 62.6198 539.93 62.8509C539.184 63.0816 538.072 62.541 537.037 62.8975C537.023 62.9021 537.006 62.9109 536.986 62.9235C536.64 63.1431 535.348 64.5079 535.164 64.5919C533.648 65.2888 533.508 62.8008 533.434 62.6627C532.585 61.1676 530.833 62.7872 530.378 62.8866C528.307 63.3455 526.576 62.9256 524.842 63.227C524.497 63.286 524.24 63.4765 524.024 63.7107C523.53 64.2462 523.252 65.0103 522.638 64.9456C519.699 64.6336 518.811 62.3127 515.927 64.1071C515.308 64.4879 515.785 66.3003 513.744 64.7678C513.614 64.6715 512.123 63.2907 511.155 64.0312C511.086 64.0843 511.045 64.274 510.995 64.4339C510.956 64.5555 510.912 64.6598 510.846 64.6739C509.811 64.8814 509.165 64.4199 508.046 64.5319C506.927 64.6436 505.573 64.8301 504.327 64.5482C503.575 64.3794 502.685 63.3332 502.344 63.0656C501.381 62.2973 500.181 63.3061 499.624 62.4258C499.065 61.5409 500.427 60.4082 498.811 59.716C498.62 61.0488 498.344 62.409 498.113 63.7455C498.08 63.7419 498.048 63.7383 498.016 63.7347C494.37 63.3249 490.83 62.5107 487.173 62.13C486.716 62.0835 487.096 62.8579 486.603 62.8263C486.068 62.7911 485.556 62.7159 485.053 62.6222C483.597 62.3508 482.224 61.9258 480.612 61.8634C478.937 61.8017 477 62.3038 475.236 62.2413C474.712 61.1911 473.485 60.8531 472.192 60.6389C471.425 60.512 470.634 60.4322 469.955 60.2761C469.318 60.1305 469.422 59.7306 468.984 59.5288C467.328 58.7777 467.936 60.2447 467.43 60.385C465.261 60.9832 465.544 57.913 463.129 57.6298C463.001 57.6138 461.203 59.005 460.973 59.0743C459.513 59.5306 460.832 58.4758 459.997 58.229C459.668 58.1317 459.362 58.0297 459.065 57.9317C457.989 57.5761 457.037 57.2733 455.548 57.4317C454.994 57.493 453.562 58.3127 452.643 57.3743C452.522 57.2514 452.678 56.7264 452.574 56.6785C450.666 55.8554 450.36 57.5321 449.136 57.9297C447.912 58.3272 446.334 56.8936 446.029 56.503C445.229 55.4914 446.802 56.2435 446.866 56.166C447.474 55.4199 446.732 55.2636 445.916 55.1046C445.724 55.0673 445.529 55.0299 445.346 54.9848C445.462 53.3119 444.082 53.1974 444.346 54.7446C444.377 54.914 445.162 54.879 445.346 54.9848C444.237 56.4714 442.696 56.4429 441.277 54.6645C440.614 53.8306 441.48 53.1237 439.075 53.0442C437.983 53.0061 438.211 54.2093 437.214 54.3632C435.736 54.5903 434.106 54.0235 432.531 53.5349C431.679 53.271 430.843 53.03 430.052 52.9505C429.233 52.8678 429.911 53.6275 429.347 53.5921C427.849 53.4993 426.64 52.7994 425.124 52.7634C424.986 52.7608 425.192 53.4698 424.732 53.3925C422.733 53.0635 420.912 52.5895 419.043 52.1008C417.648 51.7356 416.226 51.3622 414.679 51.0296C412.932 50.6576 409.727 50.3215 407.934 49.827C407.239 49.6375 406.518 49.3968 405.787 49.1311C403.248 48.2105 400.618 46.9879 398.5 46.6111C396.722 46.2904 396.931 47.0269 396.065 47.2574C394.833 47.5848 393.374 46.4756 392.587 45.7298C392.587 45.7297 392.588 45.7299 392.587 45.7298C392.303 45.4609 392.105 45.2397 392.033 45.1521C392.029 45.1466 392.441 45.2202 392.737 45.2117C392.737 45.2117 392.737 45.2117 392.737 45.2117C393.007 45.2041 393.179 45.1289 392.849 44.8658C392.847 44.8591 392.844 44.8525 392.842 44.8461C392.842 44.8461 392.842 44.8461 392.842 44.8461C392.579 44.0747 392.05 45.154 392.033 45.1521C391.857 44.9429 388.947 43.9224 388.322 43.8589C387.984 43.8276 387.98 44.4797 387.806 44.4519C386.021 44.1593 384.27 43.7837 382.539 43.3198C380.277 42.7138 378.059 41.9594 375.883 41.0537C375.818 41.0184 376.144 40.391 375.988 40.3165C374.912 39.7925 373.947 39.604 373 39.5282C372.032 39.4507 371.082 39.4907 370.055 39.4094C368.024 39.2482 366.603 38.5771 365.894 37.0631C365.129 36.8829 364.256 36.4651 363.449 36.0076C362.725 35.5973 362.053 35.1552 361.556 34.8231C360.506 34.1207 359.903 35.3522 359.792 35.3427C357.186 35.1357 355.653 34.31 353.657 33.3947C353.014 33.1003 352.324 32.797 351.535 32.5039C349.995 31.9267 346.844 31.1081 345.113 30.7211C344.723 30.6335 344.386 30.5261 344.074 30.413C343.294 30.1301 342.668 29.8098 341.748 29.6814C341.574 29.6568 341.566 30.2873 341.508 30.2942C339.93 30.5728 341.016 29.3551 340.809 29.0162C340.058 27.787 339.566 27.1035 337.678 27.0296C337.241 27.011 335.481 28.7272 334.704 28.6421C334.505 28.6192 334.367 28.5764 334.266 28.5214C333.842 28.2938 334.043 27.8692 333.166 27.7786C333.072 27.768 332.965 28.2281 332.325 28.026C329.346 27.0918 326.142 25.8484 323.067 24.9518C322.646 24.827 322.965 25.7075 322.352 25.5388C321.793 25.3844 321.226 25.2221 320.656 25.0521C318.293 24.3476 315.878 23.5081 313.757 22.5421C313.11 22.2448 313.69 21.879 313.59 21.6846C312.976 20.5037 311.292 21.4054 311.076 21.3644C309.832 21.1369 308.691 20.829 307.602 20.4793C304.14 19.3697 301.192 17.8236 297.22 17.1346C296.994 17.0971 295.377 17.5863 294.415 17.0752C294.158 16.9385 293.946 16.7299 293.818 16.4197C293.778 16.3215 293.183 14.8214 292.125 15.4455C292.059 15.4849 292.467 16.2806 291.47 15.9414C290.472 15.602 288.735 15.6023 287.519 14.5491C287.137 14.2173 286.388 12.7085 284.829 13.3912C284.717 13.4356 282.182 15.2225 281.807 13.5117C281.774 13.3592 281.9 12.8158 281.744 12.4273C281.612 12.097 281.273 11.8776 280.465 12.1144C280.129 12.2159 280.598 12.6976 279.759 12.7636C278.476 12.8684 276.952 12.1113 275.332 12.59C275.047 12.674 273.762 13.6138 273.023 12.6165C272.907 12.4601 273.259 11.9453 272.801 11.809C271.435 11.4025 269.985 11.2759 268.554 11.0883C267.7 10.9764 266.853 10.8427 266.023 10.6129C265.235 10.3978 265.733 9.5301 264.912 9.20929C264.09 8.88691 262.394 8.52497 261.505 8.89383C260.616 9.26182 261.483 10.7605 260.2 10.8123C258.698 10.8784 257.171 10.8771 255.6 10.8565C251.337 10.8097 247.523 10.5977 243.319 11.0515C242.485 11.1455 243.243 11.5636 242.025 11.7466C241.807 11.7802 241.582 11.8167 241.351 11.8558C237.258 12.505 231.192 14.2074 227.148 14.6895C226.68 14.7411 226.237 14.7739 225.827 14.7828C222.477 14.8794 226.182 13.0411 223.698 13.4283C222.489 13.6243 221.78 15.6376 221.528 15.7787C219.037 17.1858 216.945 17.158 214.645 18.2943C214.172 18.5299 214.901 18.9795 214.497 19.1729C214.122 19.3549 213.731 19.5111 213.333 19.6551C212.272 20.038 211.161 20.335 210.197 20.7877C209.604 21.069 209.921 21.5019 209.351 21.7029C207.991 22.1917 206.737 22.5097 205.245 22.6528C205.108 22.6663 205.632 21.7119 204.641 22.1385C203.041 22.8311 200.865 23.3292 199.275 24.67C199.269 24.6745 199.264 24.6791 199.259 24.6837C198.815 25.0945 199.298 26.1454 197.798 25.9846C197.481 25.9522 197.141 24.515 196.362 26.3C196.224 26.5979 194.762 29.2303 193.172 28.8567C192.752 28.7576 191.463 28.1135 190.91 28.6193C190.838 28.6916 191.487 29.0711 190.989 29.4095C189.484 30.4226 187.823 31.3067 186.248 32.3204C185.982 32.4912 185.719 32.6656 185.46 32.8447C184.981 33.1777 186.06 33.3312 185.337 33.809C183.352 35.121 180.688 36.4657 178.576 37.4666C177.796 37.8352 178.029 37.0605 177.945 37.0405C176.579 36.7149 176.734 38.1504 176.485 38.3866C175.465 39.3406 174.385 39.7983 173.323 40.3177C172.765 40.5906 172.198 40.8823 171.63 41.2762C171.172 41.5903 171.828 41.9347 171.761 42.038C171.032 43.084 171.215 41.6839 170.514 41.9396C168.446 42.7037 166.626 43.731 164.715 44.7931C164.027 45.1763 165.153 45.4199 164.527 45.7575C160.947 47.7041 157.074 49.4066 153.288 50.5886C152.577 50.8085 152.787 50.1109 152.596 50.0536C151.301 49.6351 150.354 51.3458 150.064 51.589C148.768 52.6911 147.971 52.4761 146.68 53.083C145.217 53.7719 143.628 54.4456 141.96 55.0936C136.598 57.1864 130.599 58.8987 125.732 60.1605C119.552 61.7669 114.33 62.7342 108.788 63.8511C106.876 64.2337 104.931 64.6288 102.885 65.0593C102.377 65.1652 103.032 65.7971 102.594 65.8976C96.9261 67.1597 91.2112 67.7335 85.4295 68.5533C84.9499 68.6192 85.7171 69.2494 84.9478 69.3782C83.3696 69.6472 81.3524 69.7838 79.7381 69.6715C78.9519 69.618 79.9526 68.9414 79.1643 68.8991C77.7054 68.8186 76.1492 68.8359 74.6408 68.9322C74.2463 68.9574 73.854 68.9882 73.4657 69.0243C72.6663 69.0991 73.899 69.7827 72.8555 69.8227C65.6997 70.0926 58.5531 69.946 51.3517 67.9555C50.867 67.8185 50.6376 66.3042 49.5416 66.4066C49.3945 66.7944 49.319 67.267 49.2114 67.6899C45.8968 67.2041 42.5743 66.4636 39.3323 65.4746C32.2478 63.315 25.3091 59.9072 19.1613 55.1095C18.7817 54.8117 18.9685 55.9408 18.2265 55.3598C14.3998 52.339 10.8478 48.8676 8.42865 44.4669C8.15564 43.9701 7.88321 43.4396 7.65397 42.9385C7.42718 42.4361 8.71652 41.9491 7.73161 40.7146C7.54641 40.5076 6.22657 38.5071 5.69029 38.0613C5.61144 38.0031 5.244 38.6955 4.8709 37.9901C2.77827 34.0003 1.39301 29.4196 0.82662 25.0067C0.734418 24.2825 1.56206 24.8938 1.50394 24.3799C1.14289 21.0568 0.125639 17.0232 0.568609 13.8884C0.866146 11.6869 2.08505 12.4378 3.19728 11.2565C3.35223 11.0928 3.35209 9.74931 4.02669 9.67181C5.71531 9.48354 7.5745 10.0863 9.37339 9.8055C9.75651 9.75194 9.33478 8.06606 10.2752 9.06173C10.3359 9.13442 10.6611 10.3329 10.9893 10.6099C11.2143 10.8048 11.8887 10.4289 12.1808 10.8267C12.4734 11.2201 11.9147 11.683 12.2767 12.3239C12.6463 12.955 13.4013 12.6379 13.5786 13.8844ZM356.822 31.6808C355.961 30.6989 355.037 32.9123 356.376 32.7618C356.442 32.7519 356.867 31.7299 356.822 31.6808ZM491.088 60.7089C489.728 59.4937 488.537 60.9149 489.488 61.8465C490.444 62.7766 491.504 61.0774 491.088 60.7089ZM506.525 61.4249C504.863 60.454 504.303 63.8118 506.224 63.2816C506.335 63.2518 506.622 61.4812 506.525 61.4249ZM3.84873 16.3793C3.87717 16.3597 3.82588 15.4539 3.79409 15.4331C2.99234 15.0101 3.09623 16.8452 3.84873 16.3793ZM521.836 61.59C521.319 61.1049 519.734 61.5502 520.375 62.1562C520.893 62.6445 522.482 62.1945 521.836 61.59ZM301.152 11.8403C301.145 11.8009 300.524 11.5838 300.48 11.781C300.339 12.416 301.266 12.4995 301.152 11.8403ZM547.787 62.2477C543.946 62.102 541.668 59.2659 545.821 59.6229C546.574 59.686 544.19 60.504 545.147 60.7643C546.903 61.2384 548.075 59.4835 549.864 60.4273C550.19 60.6008 548.007 62.2633 547.78 62.2516C547.782 62.2503 547.784 62.249 547.787 62.2477ZM357.128 28.7498C357.117 28.7124 356.265 28.3925 356.234 28.4154C355.525 28.9775 357.24 29.6216 357.128 28.7498ZM263.838 2.6876C263.794 2.61119 261.663 2.4075 261.589 2.47119C260.429 3.63809 264.672 4.04549 263.838 2.6876ZM416.138 44.6125C417.263 44.0697 418.432 44.2197 419.013 45.3171C418.061 45.0711 417.094 44.8629 416.138 44.6125Z" fill="black"/>
</svg>
